<svg version="1.1" id="Layer_1" xmlns="http://www.w3.org/2000/svg" xmlns:xlink="http://www.w3.org/1999/xlink" x="0px" y="0px"
	 width="100%" viewBox="0 0 113 159" enable-background="new 0 0 113 159" xml:space="preserve">
<path fill="#000000" opacity="1.000000" stroke="none" 
	d="
M111.354874,160.000000 
	C74.330917,160.000000 37.834644,160.000000 1.169187,160.000000 
	C1.169187,107.118690 1.169187,54.236652 1.169187,1.177309 
	C38.543869,1.177309 76.088852,1.177309 114.000000,1.177309 
	C114.000000,2.861916 114.000000,4.747571 114.000000,6.633225 
	C114.000000,56.461468 114.015289,106.289742 113.916595,156.117783 
	C113.913986,157.436005 115.818680,160.467941 111.354874,160.000000 
M80.981224,80.825119 
	C80.027168,79.613800 79.073120,78.402481 78.119072,77.191154 
	C77.613113,77.269295 77.107155,77.347435 76.601196,77.425575 
	C76.342827,80.156502 75.674805,82.925743 75.925720,85.609055 
	C76.269699,89.287544 77.527145,92.873993 77.983467,96.550735 
	C78.334465,99.378799 78.053398,102.285309 78.053398,105.156937 
	C78.594597,105.163818 79.135803,105.170700 79.677002,105.177589 
	C81.414330,97.416359 86.737961,89.994247 80.981224,80.825119 
z"/>
<path fill="#AA9A92" opacity="1.000000" stroke="none" 
	d="
M81.073563,81.183487 
	C86.737961,89.994247 81.414330,97.416359 79.677002,105.177589 
	C79.135803,105.170700 78.594597,105.163818 78.053398,105.156937 
	C78.053398,102.285309 78.334465,99.378799 77.983467,96.550735 
	C77.527145,92.873993 76.269699,89.287544 75.925720,85.609055 
	C75.674805,82.925743 76.342827,80.156502 76.601196,77.425575 
	C77.107155,77.347435 77.613113,77.269295 78.119072,77.191154 
	C79.073120,78.402481 80.027168,79.613800 81.073563,81.183487 
z"/>
</svg>