<svg version="1.1" id="Layer_1" xmlns="http://www.w3.org/2000/svg" xmlns:xlink="http://www.w3.org/1999/xlink" x="0px" y="0px"
	 width="100%" viewBox="0 0 69 162" enable-background="new 0 0 69 162" xml:space="preserve">
<path fill="#010101" opacity="1.000000" stroke="none" 
	d="
M1.000001,125.000000 
	C1.000000,122.299988 1.000000,119.599968 1.194136,116.011749 
	C2.175046,116.313240 2.961821,117.502937 3.528819,118.795303 
	C3.177538,119.274254 3.046034,119.650536 2.914529,120.026817 
	C3.608113,119.740173 4.301699,119.453522 5.268410,119.082054 
	C5.709592,118.907181 5.877647,118.817123 6.473298,118.794365 
	C11.928604,118.632263 16.956316,118.402855 21.991379,118.507721 
	C21.992731,119.510590 21.986734,120.179184 21.580376,120.910706 
	C19.153864,121.332718 17.127708,121.691811 14.778141,121.910141 
	C12.848561,122.095901 11.242395,122.422432 9.636232,122.748962 
	C10.118412,124.179123 10.600590,125.609283 11.078127,127.354599 
	C11.067653,128.089951 11.061820,128.510162 11.098068,129.219666 
	C11.424744,130.007248 11.709337,130.505524 11.872699,131.261551 
	C11.518130,132.040543 11.284795,132.561813 11.191365,133.317047 
	C11.141119,134.983414 10.950966,136.415817 10.707159,138.252396 
	C11.439604,138.433914 12.654311,138.734955 13.886690,139.405823 
	C17.615065,142.818771 21.325768,145.861908 25.153942,149.234436 
	C27.691717,152.352844 30.093340,155.158463 32.544857,157.919769 
	C33.195869,158.653046 33.932331,159.383408 34.781868,159.815979 
	C34.993313,159.923645 36.197128,158.897598 36.239285,158.339371 
	C36.309792,157.405624 36.090870,156.167587 35.491478,155.529358 
	C34.498180,154.471695 33.106201,153.788422 30.865915,152.249191 
	C33.139355,152.249191 34.280716,151.905441 35.008694,152.308426 
	C38.236481,154.095245 40.212605,153.173187 42.450832,150.313339 
	C45.247131,146.740463 49.511738,144.194321 51.816601,140.399597 
	C53.531693,137.575882 57.548260,134.292770 54.080711,129.690277 
	C54.495075,128.613281 54.838013,127.844482 55.537140,127.030090 
	C65.449699,123.110962 66.464104,121.642479 64.947113,113.591843 
	C64.968513,111.513893 64.951538,109.777679 64.921234,107.852036 
	C64.579124,107.744644 64.250328,107.826683 63.634933,107.899612 
	C62.967411,107.910843 62.586498,107.931198 62.137863,107.517944 
	C62.070145,104.912086 62.070145,102.739845 62.070145,100.563599 
	C59.126232,100.265350 56.901707,100.039986 54.754837,99.358566 
	C54.927090,98.292984 55.021675,97.683456 55.360733,97.031929 
	C55.605209,96.989922 56.094360,96.907074 56.453156,97.074570 
	C59.877796,97.462715 62.943645,97.683357 65.672279,97.879738 
	C65.801826,95.000801 66.077332,93.289879 65.895172,91.629150 
	C65.728210,90.106941 65.067276,88.638908 64.441971,86.806992 
	C62.156956,82.695648 60.053974,78.924309 57.886505,74.796837 
	C56.505566,73.659523 55.189110,72.878334 53.910866,72.104034 
	C53.949081,72.110939 53.889420,72.160660 53.913074,71.756866 
	C53.333767,66.988998 51.372158,63.595768 46.739716,61.854507 
	C45.565750,61.798878 44.784344,61.719242 43.796467,61.331703 
	C39.432758,60.684109 35.275520,60.344418 31.063602,59.537354 
	C31.005951,39.713322 31.002975,20.356661 31.000000,1.000000 
	C43.981384,1.000000 56.962769,1.000000 69.972076,1.000000 
	C69.972076,54.904049 69.972076,108.808121 69.972076,162.856094 
	C47.000584,162.856094 24.000435,162.856094 1.000000,162.856094 
	C1.000000,151.237320 1.000000,139.587326 1.359714,127.434265 
	C3.660103,125.406517 5.600779,123.881813 7.541455,122.357109 
	C7.130930,121.864853 6.720406,121.372597 6.309882,120.880341 
	C4.539922,122.253563 2.769961,123.626778 1.000001,125.000000 
M64.495255,103.540688 
	C64.495255,103.540688 64.475403,103.491173 64.495255,103.540688 
z"/>
<path fill="#020101" opacity="1.000000" stroke="none" 
	d="
M31.118279,60.004726 
	C35.275520,60.344418 39.432758,60.684109 43.345726,61.406898 
	C39.158928,62.029026 35.141415,62.862518 31.290331,62.376705 
	C24.409418,61.508678 18.716503,63.088593 13.770262,68.385475 
	C10.692474,71.684311 7.470186,74.591476 5.286229,78.138054 
	C3.276844,81.401146 2.384455,85.352081 1.000000,89.000000 
	C1.000000,59.778698 1.000000,30.557394 1.000000,1.000000 
	C9.684669,1.000000 18.373672,1.000000 27.536922,1.468874 
	C28.029503,9.083234 28.063179,16.228720 28.062599,23.374203 
	C28.061708,34.341789 27.970121,45.310139 28.094547,56.276150 
	C28.113405,57.938328 26.947996,61.368259 31.118279,60.004726 
z"/>
<path fill="#55432E" opacity="1.000000" stroke="none" 
	d="
M1.000000,89.466118 
	C2.384455,85.352081 3.276844,81.401146 5.286229,78.138054 
	C7.470186,74.591476 10.692474,71.684311 13.769873,68.722672 
	C16.253889,72.964828 14.681413,75.733765 11.170354,77.945793 
	C10.514862,78.358765 9.733927,79.097168 9.630078,79.779610 
	C8.652184,86.205833 7.808777,92.652527 6.926554,99.093307 
	C7.342957,99.338074 7.759361,99.582840 8.175764,99.827606 
	C12.105198,94.211090 16.034632,88.594574 20.101608,82.692856 
	C20.512480,81.613197 20.785809,80.818756 21.349615,80.140228 
	C22.429684,81.220459 23.219275,82.184769 24.408428,83.637047 
	C25.871809,80.616631 27.154675,77.973885 28.433039,75.328957 
	C30.119257,71.840202 33.151909,71.007050 36.106091,73.354446 
	C38.799614,75.494720 41.378300,77.779541 43.819992,80.144058 
	C43.395893,80.497421 43.187042,80.731987 42.684090,80.841362 
	C37.758602,78.401428 30.623436,78.391518 28.850170,81.442924 
	C26.797899,84.974434 25.504339,87.644508 20.872843,89.614212 
	C16.085052,91.650406 13.214329,98.194305 9.118361,102.761986 
	C6.154489,103.171768 3.577244,103.585884 1.000000,104.000000 
	C1.000000,99.310745 1.000000,94.621490 1.000000,89.466118 
z"/>
<path fill="#1E1817" opacity="1.000000" stroke="none" 
	d="
M1.000000,104.399994 
	C3.577244,103.585884 6.154489,103.171768 9.495567,102.755096 
	C12.699119,101.853325 15.138837,100.954117 17.971287,100.128296 
	C22.463991,99.654907 26.563967,99.108131 31.084648,98.584435 
	C38.010956,98.090836 44.516560,97.574165 51.440437,97.179993 
	C52.425663,97.212723 52.992611,97.122955 53.818504,97.038712 
	C54.423721,97.054131 54.769993,97.064034 55.116261,97.073936 
	C55.021675,97.683456 54.927090,98.292984 54.651283,99.469269 
	C54.242935,100.061600 54.093597,100.182915 53.567566,100.323006 
	C51.120182,100.215759 49.090832,99.926018 47.140636,100.199905 
	C38.420856,101.424477 29.723646,102.809769 20.612179,104.007095 
	C13.804045,105.251434 7.402022,106.625717 1.000000,108.000000 
	C1.000000,106.933327 1.000000,105.866661 1.000000,104.399994 
z"/>
<path fill="#5D4124" opacity="1.000000" stroke="none" 
	d="
M31.063602,59.537354 
	C26.947996,61.368259 28.113405,57.938328 28.094547,56.276150 
	C27.970121,45.310139 28.061708,34.341789 28.062599,23.374203 
	C28.063179,16.228720 28.029503,9.083234 28.005585,1.468874 
	C28.750000,1.000000 29.500000,1.000000 30.625000,1.000000 
	C31.002975,20.356661 31.005951,39.713322 31.063602,59.537354 
z"/>
<path fill="#A5A5A5" opacity="1.000000" stroke="none" 
	d="
M3.748594,118.692635 
	C2.961821,117.502937 2.175046,116.313240 1.194136,115.561775 
	C1.000000,113.958336 1.000000,111.916664 1.435286,109.453789 
	C3.816120,108.795334 5.756269,108.485237 7.708677,108.340553 
	C9.822675,108.183899 13.251054,107.339508 13.843950,108.256981 
	C16.469681,112.320137 19.296925,109.487953 22.425341,109.169930 
	C23.828604,109.138924 24.850769,109.140236 25.908745,109.450027 
	C25.964457,110.173004 25.984356,110.587502 25.630629,111.144920 
	C21.722393,111.864769 18.187784,112.441689 14.653174,113.018608 
	C14.689651,113.333534 14.726126,113.648453 14.762601,113.963379 
	C19.037548,113.759872 23.312494,113.556374 27.587440,113.352867 
	C27.583666,113.841316 27.579889,114.329765 27.576113,114.818214 
	C23.801802,115.227058 19.991528,115.435257 16.263704,116.103439 
	C12.811851,116.722168 9.448196,117.832954 6.045703,118.727066 
	C5.877647,118.817123 5.709592,118.907181 5.084706,118.946198 
	C4.356664,118.732643 4.063569,118.665138 3.748594,118.692635 
z"/>
<path fill="#BCBCBC" opacity="1.000000" stroke="none" 
	d="
M22.044241,109.202248 
	C19.296925,109.487953 16.469681,112.320137 13.843950,108.256981 
	C13.251054,107.339508 9.822675,108.183899 7.708677,108.340553 
	C5.756269,108.485237 3.816120,108.795334 1.435286,109.016289 
	C1.000000,109.000000 1.000000,108.500000 1.000000,108.250000 
	C7.402022,106.625717 13.804045,105.251434 20.603302,104.377060 
	C21.348436,106.318733 21.696339,107.760490 22.044241,109.202248 
z"/>
<path fill="#161310" opacity="1.000000" stroke="none" 
	d="
M1.000001,125.333328 
	C2.769961,123.626778 4.539922,122.253563 6.309882,120.880341 
	C6.720406,121.372597 7.130930,121.864853 7.541455,122.357109 
	C5.600779,123.881813 3.660103,125.406517 1.359714,126.965607 
	C1.000000,126.555557 1.000000,126.111107 1.000001,125.333328 
z"/>
<path fill="#655139" opacity="1.000000" stroke="none" 
	d="
M19.964067,82.978065 
	C16.034632,88.594574 12.105198,94.211090 8.175764,99.827606 
	C7.759361,99.582840 7.342957,99.338074 6.926554,99.093307 
	C7.808777,92.652527 8.652184,86.205833 9.630078,79.779610 
	C9.733927,79.097168 10.514862,78.358765 11.170354,77.945793 
	C14.681413,75.733765 16.253889,72.964828 14.078107,68.609802 
	C18.716503,63.088593 24.409418,61.508678 31.290331,62.376705 
	C35.141415,62.862518 39.158928,62.029026 43.552193,61.714798 
	C44.784344,61.719242 45.565750,61.798878 46.572968,62.138641 
	C45.966076,63.298138 45.133385,64.197502 44.107140,65.305923 
	C45.460659,66.097153 46.433411,66.665802 47.138481,67.530807 
	C44.899479,67.987740 42.928158,68.148308 40.260868,68.365562 
	C39.927044,69.030991 39.218758,70.442848 38.132263,72.608612 
	C42.262932,73.236008 45.826332,73.777237 49.459564,74.329079 
	C50.048862,73.060135 50.531998,72.019783 51.309818,71.086098 
	C52.366138,71.515396 53.127781,71.838028 53.889420,72.160660 
	C53.889420,72.160660 53.949081,72.110939 54.068394,72.392136 
	C55.442135,73.499870 56.696568,74.326416 57.950996,75.152962 
	C60.053974,78.924309 62.156956,82.695648 64.021294,86.758202 
	C60.855278,85.032745 57.927906,83.016075 54.781593,80.708382 
	C52.576771,80.156464 50.596977,79.774170 48.603020,79.674088 
	C47.080513,79.597672 45.540066,79.878654 44.007599,80.000648 
	C41.378300,77.779541 38.799614,75.494720 36.106091,73.354446 
	C33.151909,71.007050 30.119257,71.840202 28.433039,75.328957 
	C27.154675,77.973885 25.871809,80.616631 24.408428,83.637047 
	C23.219275,82.184769 22.429684,81.220459 21.185390,79.889084 
	C24.764849,75.987434 29.336666,72.641899 25.388876,66.297661 
	C25.303135,66.159874 25.172949,66.049751 25.063492,65.926720 
	C17.657358,72.650368 17.657358,72.650368 15.657380,85.292992 
	C17.195261,84.466354 18.579666,83.722206 19.964067,82.978065 
M10.568799,89.119919 
	C10.342880,89.442604 10.116962,89.765289 9.891042,90.087975 
	C10.028496,90.117249 10.258964,90.209755 10.288799,90.165863 
	C10.544420,89.789856 10.763723,89.389153 11.108486,88.934639 
	C11.108486,88.934639 11.004315,89.006218 10.568799,89.119919 
z"/>
<path fill="#16120F" opacity="1.000000" stroke="none" 
	d="
M64.908737,113.933563 
	C66.464104,121.642479 65.449699,123.110962 55.554291,126.670029 
	C55.456337,124.190994 55.697414,122.026436 55.716316,119.694252 
	C54.965477,119.350769 54.436813,119.174911 53.857239,118.664940 
	C53.054352,117.841431 52.168213,116.805458 51.572281,116.951744 
	C47.840782,117.867744 44.174011,119.047447 40.316193,119.908638 
	C39.390968,119.743614 38.635372,119.809807 37.694214,119.703934 
	C36.963543,119.283028 36.418430,119.034195 35.873314,118.785362 
	C35.808144,119.076500 35.742973,119.367645 35.677803,119.658783 
	C36.487431,119.813667 37.297058,119.968552 38.495361,120.120232 
	C39.406940,120.141563 39.929840,120.166107 40.526619,120.474915 
	C41.073193,121.230759 41.545898,121.702339 42.282616,122.313553 
	C42.929081,122.562859 43.311527,122.672554 44.061733,122.613319 
	C47.225334,122.290039 50.021179,122.135681 53.172752,121.994461 
	C53.765606,122.017220 54.002728,122.026848 54.177933,122.405319 
	C52.413364,123.837166 50.710716,124.900177 48.809769,125.915588 
	C48.611465,125.867989 48.204620,125.838707 47.966713,125.678711 
	C47.176025,125.428635 46.623249,125.338547 45.731010,125.242783 
	C39.612957,125.270950 33.834366,125.304787 27.835197,125.282417 
	C27.614624,125.226212 27.172098,125.119354 26.775448,125.090736 
	C25.587681,125.039276 24.796564,125.016426 24.011433,124.810471 
	C24.017418,124.627365 24.015131,124.260963 24.362911,124.151085 
	C26.048481,123.277115 27.386272,122.513023 28.724062,121.748932 
	C28.588810,121.448547 28.453558,121.148170 28.318304,120.847786 
	C26.205782,120.847786 24.093258,120.847786 21.980736,120.847786 
	C21.986734,120.179184 21.992731,119.510590 22.377533,118.357834 
	C27.176449,117.183426 31.596561,116.493179 36.424992,115.841187 
	C40.247540,115.307495 43.661774,114.735550 47.446247,114.228958 
	C49.262409,113.967995 50.708324,113.641685 52.573380,113.345413 
	C55.977501,112.247650 58.962490,111.119843 62.220898,110.076569 
	C63.299126,111.418587 64.103928,112.676079 64.908737,113.933563 
M31.511003,119.848160 
	C31.511003,119.848160 31.426859,120.101387 31.426859,120.101387 
	C31.426859,120.101387 31.617062,119.940887 31.511003,119.848160 
z"/>
<path fill="#261A14" opacity="1.000000" stroke="none" 
	d="
M55.360733,97.031929 
	C54.769993,97.064034 54.423721,97.054131 53.699341,96.690918 
	C48.982536,90.091919 45.000916,83.462166 36.737808,81.141113 
	C36.351139,81.415039 36.222740,81.707588 35.959892,82.334557 
	C35.588886,83.842216 35.352325,85.015465 34.830238,86.260513 
	C33.197063,86.151802 31.849411,85.971275 30.354502,85.771027 
	C29.680590,87.975227 29.101650,89.868797 28.299110,92.011475 
	C25.837551,94.296089 26.072296,101.348808 20.379677,95.694550 
	C19.294909,97.383156 18.436731,98.719032 17.578556,100.054909 
	C15.138837,100.954117 12.699119,101.853325 9.882195,102.759430 
	C13.214329,98.194305 16.085052,91.650406 20.872843,89.614212 
	C25.504339,87.644508 26.797899,84.974434 28.850170,81.442924 
	C30.623436,78.391518 37.758602,78.401428 42.886211,81.085266 
	C44.563824,82.003471 45.717571,82.527969 47.024590,83.251190 
	C47.452538,83.637207 47.727219,83.824509 48.206833,84.105164 
	C48.411770,84.198532 48.827927,84.370796 48.913948,84.697098 
	C51.364765,88.984627 53.729561,92.945854 56.094360,96.907074 
	C56.094360,96.907074 55.605209,96.989922 55.360733,97.031929 
z"/>
<path fill="#16120F" opacity="1.000000" stroke="none" 
	d="
M54.009285,129.998474 
	C57.548260,134.292770 53.531693,137.575882 51.816601,140.399597 
	C49.511738,144.194321 45.247131,146.740463 42.450832,150.313339 
	C40.212605,153.173187 38.236481,154.095245 35.008694,152.308426 
	C34.280716,151.905441 33.139355,152.249191 30.865915,152.249191 
	C33.106201,153.788422 34.498180,154.471695 35.491478,155.529358 
	C36.090870,156.167587 36.309792,157.405624 36.239285,158.339371 
	C36.197128,158.897598 34.993313,159.923645 34.781868,159.815979 
	C33.932331,159.383408 33.195869,158.653046 32.544857,157.919769 
	C30.093340,155.158463 27.691717,152.352844 25.490276,149.238297 
	C25.871561,148.912018 26.043871,148.944611 26.193367,148.900284 
	C26.320204,148.862671 26.420687,148.736206 26.532829,148.649048 
	C24.309015,146.123688 22.085199,143.598343 20.245546,141.027222 
	C25.542206,142.698654 30.120848,146.061615 35.845428,144.327301 
	C35.931099,144.780273 35.959789,144.962494 35.694504,145.329025 
	C33.852615,146.056641 32.304699,146.599945 30.658966,147.364227 
	C31.372351,147.725998 32.183548,147.866791 33.312016,147.959625 
	C35.277672,147.911636 36.926060,147.911636 38.880394,147.911636 
	C38.559963,146.904465 38.282917,146.033646 38.094639,144.893036 
	C38.253029,144.447159 38.322647,144.271072 38.536674,144.107025 
	C38.681076,144.119049 38.966652,144.069702 39.298401,144.006927 
	C41.127605,143.029205 42.625065,142.114273 44.398659,141.006668 
	C47.786289,137.208832 50.897789,133.603653 54.009285,129.998474 
z"/>
<path fill="#54422E" opacity="1.000000" stroke="none" 
	d="
M56.453156,97.074570 
	C53.729561,92.945854 51.364765,88.984627 49.163521,84.426132 
	C51.218224,82.885712 53.109379,81.942558 55.000530,80.999405 
	C57.927906,83.016075 60.855278,85.032745 64.203323,87.098206 
	C65.067276,88.638908 65.728210,90.106941 65.895172,91.629150 
	C66.077332,93.289879 65.801826,95.000801 65.672279,97.879738 
	C62.943645,97.683357 59.877796,97.462715 56.453156,97.074570 
z"/>
<path fill="#A4A4A4" opacity="1.000000" stroke="none" 
	d="
M61.947472,109.992043 
	C58.962490,111.119843 55.977501,112.247650 52.570019,113.013611 
	C51.899391,107.920654 49.092999,110.423714 46.663998,110.841064 
	C45.582619,110.858643 44.861771,110.875237 44.114910,110.583183 
	C44.065483,109.861664 44.042065,109.448807 44.373161,108.962769 
	C46.139797,108.570206 47.551910,108.250824 49.311508,107.954315 
	C50.518280,107.496269 51.377567,107.015350 52.236855,106.534431 
	C51.142334,106.053635 50.047813,105.572830 48.553474,105.072815 
	C45.577854,105.274681 43.002060,105.495758 40.426262,105.716843 
	C40.380497,105.309692 40.334732,104.902550 40.288967,104.495399 
	C41.987309,104.065361 43.705650,103.700943 45.379547,103.190704 
	C48.274902,102.308121 51.142689,101.335075 54.022041,100.399979 
	C54.093597,100.182915 54.242935,100.061600 54.573624,99.925323 
	C56.901707,100.039986 59.126232,100.265350 62.070145,100.563599 
	C62.070145,102.739845 62.070145,104.912086 61.983608,107.838272 
	C61.913872,109.058823 61.930672,109.525429 61.947472,109.992043 
z"/>
<path fill="#C1C1C1" opacity="1.000000" stroke="none" 
	d="
M36.016670,115.802933 
	C31.596561,116.493179 27.176449,117.183426 22.370182,118.023560 
	C16.956316,118.402855 11.928604,118.632263 6.473297,118.794365 
	C9.448196,117.832954 12.811851,116.722168 16.263704,116.103439 
	C19.991528,115.435257 23.801802,115.227058 27.576113,114.818214 
	C27.579889,114.329765 27.583666,113.841316 27.587440,113.352867 
	C23.312494,113.556374 19.037548,113.759872 14.762601,113.963379 
	C14.726126,113.648453 14.689651,113.333534 14.653174,113.018608 
	C18.187784,112.441689 21.722393,111.864769 26.056160,111.145599 
	C28.558441,110.998268 30.261562,110.993179 32.091648,111.299606 
	C33.484634,113.008392 34.750652,114.405663 36.016670,115.802933 
z"/>
<path fill="#413424" opacity="1.000000" stroke="none" 
	d="
M54.080711,129.690277 
	C50.897789,133.603653 47.786289,137.208832 44.369202,140.564240 
	C44.019157,139.435349 43.974701,138.556229 44.065605,137.399323 
	C45.900917,133.960175 51.505596,133.302246 49.874519,127.817314 
	C49.504879,127.022133 49.256470,126.492653 49.008064,125.963181 
	C50.710716,124.900177 52.413364,123.837166 54.396118,122.238434 
	C55.096977,121.089096 55.517735,120.475487 55.938496,119.861877 
	C55.697414,122.026436 55.456337,124.190994 55.198105,126.715622 
	C54.838013,127.844482 54.495075,128.613281 54.080711,129.690277 
z"/>
<path fill="#845C33" opacity="1.000000" stroke="none" 
	d="
M19.861385,141.072983 
	C22.085199,143.598343 24.309015,146.123688 26.532829,148.649048 
	C26.420687,148.736206 26.320204,148.862671 26.193367,148.900284 
	C26.043871,148.944611 25.871561,148.912018 25.372807,148.908905 
	C21.325768,145.861908 17.615065,142.818771 14.125786,139.186966 
	C15.187286,138.469666 16.027363,138.341049 16.963923,138.533630 
	C18.027424,139.589783 18.994442,140.324753 19.933517,141.040985 
	C19.905575,141.022263 19.861383,141.072983 19.861385,141.072983 
z"/>
<path fill="#DBA17F" opacity="1.000000" stroke="none" 
	d="
M21.580376,120.910706 
	C24.093258,120.847786 26.205782,120.847786 28.318304,120.847786 
	C28.453558,121.148170 28.588810,121.448547 28.724062,121.748932 
	C27.386272,122.513023 26.048481,123.277115 24.022501,124.126022 
	C20.868603,125.144440 18.402897,126.078056 15.881727,126.649567 
	C15.584695,124.875275 15.343124,123.463089 15.101555,122.050903 
	C17.127708,121.691811 19.153864,121.332718 21.580376,120.910706 
z"/>
<path fill="#020101" opacity="1.000000" stroke="none" 
	d="
M47.406166,67.234444 
	C46.433411,66.665802 45.460659,66.097153 44.107140,65.305923 
	C45.133385,64.197502 45.966076,63.298138 46.965523,62.114632 
	C51.372158,63.595768 53.333767,66.988998 53.913074,71.756866 
	C53.127781,71.838028 52.366138,71.515396 51.280125,70.751587 
	C50.924953,69.863708 50.894154,69.417000 50.860096,68.672699 
	C50.553478,68.140526 50.250114,67.905968 49.652649,67.511551 
	C48.707748,67.312614 48.056957,67.273529 47.406166,67.234444 
z"/>
<path fill="#201812" opacity="1.000000" stroke="none" 
	d="
M15.937189,127.011665 
	C18.402897,126.078056 20.868603,125.144440 23.674721,124.235901 
	C24.015131,124.260963 24.017418,124.627365 24.009064,125.139008 
	C24.000546,126.088188 24.000383,126.525719 23.709328,127.153427 
	C20.029011,130.732224 16.187494,131.015045 11.772891,128.987549 
	C11.533718,128.971146 11.055986,128.930359 11.055986,128.930359 
	C11.061820,128.510162 11.067653,128.089951 11.480063,127.350204 
	C13.236824,127.024323 14.587007,127.017990 15.937189,127.011665 
z"/>
<path fill="#0B0907" opacity="1.000000" stroke="none" 
	d="
M15.881727,126.649567 
	C14.587007,127.017990 13.236824,127.024323 11.484705,127.035049 
	C10.600590,125.609283 10.118412,124.179123 9.636232,122.748962 
	C11.242395,122.422432 12.848561,122.095901 14.778141,121.910141 
	C15.343124,123.463089 15.584695,124.875275 15.881727,126.649567 
z"/>
<path fill="#20170F" opacity="1.000000" stroke="none" 
	d="
M16.867443,138.212418 
	C16.027363,138.341049 15.187286,138.469666 14.108115,138.817139 
	C12.654311,138.734955 11.439604,138.433914 10.707159,138.252396 
	C10.950966,136.415817 11.141119,134.983414 11.537797,133.366898 
	C12.650983,133.427170 13.557644,133.671555 14.729939,134.001251 
	C15.993655,135.059067 16.991737,136.031555 17.780254,137.183350 
	C17.336275,137.645920 17.101860,137.929169 16.867443,138.212418 
z"/>
<path fill="#22211D" opacity="1.000000" stroke="none" 
	d="
M62.220894,110.076569 
	C61.930672,109.525429 61.913872,109.058823 62.051327,108.271881 
	C62.586498,107.931198 62.967411,107.910843 63.888210,107.935501 
	C64.596916,108.000816 64.765739,108.021141 64.934563,108.041458 
	C64.951538,109.777679 64.968513,111.513893 64.947113,113.591843 
	C64.103928,112.676079 63.299126,111.418587 62.220894,110.076569 
z"/>
<path fill="#020101" opacity="1.000000" stroke="none" 
	d="
M57.886509,74.796837 
	C56.696568,74.326416 55.442135,73.499870 54.030182,72.385231 
	C55.189110,72.878334 56.505566,73.659523 57.886509,74.796837 
z"/>
<path fill="#0B0907" opacity="1.000000" stroke="none" 
	d="
M14.464304,133.915939 
	C13.557644,133.671555 12.650983,133.427170 11.397891,133.132935 
	C11.284795,132.561813 11.518130,132.040543 11.981734,131.162018 
	C12.212003,130.804764 12.429723,130.605530 12.686520,130.809448 
	C13.450313,131.980896 13.957309,132.948425 14.464304,133.915939 
z"/>
<path fill="#161310" opacity="1.000000" stroke="none" 
	d="
M3.528816,118.795303 
	C4.063569,118.665138 4.356664,118.732643 4.811580,119.031021 
	C4.301699,119.453522 3.608113,119.740173 2.914529,120.026817 
	C3.046034,119.650536 3.177538,119.274254 3.528816,118.795303 
z"/>
<path fill="#0B0907" opacity="1.000000" stroke="none" 
	d="
M11.098068,129.219666 
	C11.055986,128.930359 11.533718,128.971146 11.820730,129.260864 
	C12.215070,129.902237 12.322396,130.253891 12.429723,130.605530 
	C12.429723,130.605530 12.212003,130.804764 12.102967,130.904297 
	C11.709337,130.505524 11.424744,130.007248 11.098068,129.219666 
z"/>
<path fill="#16120F" opacity="1.000000" stroke="none" 
	d="
M64.921234,107.852036 
	C64.765739,108.021141 64.596916,108.000816 64.174820,107.944611 
	C64.250328,107.826683 64.579124,107.744644 64.921234,107.852036 
z"/>
<path fill="#16120F" opacity="1.000000" stroke="none" 
	d="
M64.485329,103.515930 
	C64.475403,103.491173 64.495255,103.540688 64.485329,103.515930 
z"/>
<path fill="#715A42" opacity="1.000000" stroke="none" 
	d="
M20.101612,82.692856 
	C18.579666,83.722206 17.195261,84.466354 15.657380,85.292992 
	C17.657358,72.650368 17.657358,72.650368 25.063492,65.926720 
	C25.172949,66.049751 25.303135,66.159874 25.388876,66.297661 
	C29.336666,72.641899 24.764849,75.987434 20.894913,79.773163 
	C20.785809,80.818756 20.512480,81.613197 20.101612,82.692856 
z"/>
<path fill="#604C34" opacity="1.000000" stroke="none" 
	d="
M54.781593,80.708382 
	C53.109379,81.942558 51.218224,82.885712 49.077499,84.099831 
	C48.827927,84.370796 48.411770,84.198532 48.047638,83.913055 
	C47.448730,83.385101 47.178005,83.193398 46.871319,83.052467 
	C45.717571,82.527969 44.563824,82.003471 43.207954,81.235069 
	C43.187042,80.731987 43.395893,80.497421 43.819992,80.144058 
	C45.540066,79.878654 47.080513,79.597672 48.603020,79.674088 
	C50.596977,79.774170 52.576771,80.156464 54.781593,80.708382 
z"/>
<path fill="#CC926F" opacity="1.000000" stroke="none" 
	d="
M17.971285,100.128296 
	C18.436731,98.719032 19.294909,97.383156 20.379677,95.694550 
	C26.072296,101.348808 25.837551,94.296089 28.684347,91.998100 
	C31.136248,89.783997 36.697891,91.735741 35.115768,86.188705 
	C35.352325,85.015465 35.588886,83.842216 36.139793,82.228836 
	C36.677917,81.616203 36.858562,81.406548 36.996082,81.159729 
	C45.000916,83.462166 48.982536,90.091919 53.440392,96.685410 
	C52.992611,97.122955 52.425663,97.212723 51.266960,96.887581 
	C48.371170,94.118004 46.189941,91.617241 43.680134,89.507347 
	C43.020206,88.952576 41.058708,89.189827 40.185608,89.784180 
	C37.368618,91.701851 34.734055,93.901192 32.135078,96.116226 
	C31.448660,96.701248 31.143934,97.734123 30.663940,98.561356 
	C26.563967,99.108131 22.463991,99.654907 17.971285,100.128296 
z"/>
<path fill="#CECFCF" opacity="1.000000" stroke="none" 
	d="
M48.964027,107.931435 
	C47.551910,108.250824 46.139797,108.570206 44.056713,108.743332 
	C40.903824,108.731537 38.421902,108.866005 35.551231,109.000427 
	C34.129398,108.995308 33.096313,108.990234 31.623507,108.986641 
	C29.413498,109.039268 27.643215,109.090408 25.872932,109.141548 
	C24.850769,109.140236 23.828604,109.138924 22.425341,109.169930 
	C21.696339,107.760490 21.348436,106.318733 21.009411,104.507004 
	C29.723646,102.809769 38.420856,101.424477 47.140636,100.199905 
	C49.090832,99.926018 51.120182,100.215759 53.567566,100.322998 
	C51.142689,101.335075 48.274902,102.308121 45.379547,103.190704 
	C43.705650,103.700943 41.987309,104.065361 40.288967,104.495399 
	C40.334732,104.902550 40.380497,105.309692 40.426262,105.716843 
	C43.002060,105.495758 45.577854,105.274681 48.562374,105.427078 
	C48.968742,106.510849 48.966385,107.221138 48.964027,107.931435 
M25.498999,106.525612 
	C25.498999,106.525612 25.481485,106.485199 25.498999,106.525612 
z"/>
<path fill="#DBA683" opacity="1.000000" stroke="none" 
	d="
M31.084648,98.584427 
	C31.143934,97.734123 31.448660,96.701248 32.135078,96.116226 
	C34.734055,93.901192 37.368618,91.701851 40.185608,89.784180 
	C41.058708,89.189827 43.020206,88.952576 43.680134,89.507347 
	C46.189941,91.617241 48.371170,94.118004 50.848686,96.765076 
	C44.516560,97.574165 38.010956,98.090836 31.084648,98.584427 
z"/>
<path fill="#BCBCBC" opacity="1.000000" stroke="none" 
	d="
M25.908745,109.450027 
	C27.643215,109.090408 29.413498,109.039268 31.612989,109.321030 
	C32.016361,110.098656 31.990524,110.543373 31.964685,110.988098 
	C30.261562,110.993179 28.558441,110.998268 26.429787,111.002670 
	C25.984356,110.587502 25.964457,110.173004 25.908745,109.450027 
z"/>
<path fill="#705A42" opacity="1.000000" stroke="none" 
	d="
M47.138481,67.530807 
	C48.056957,67.273529 48.707748,67.312614 49.775597,67.751640 
	C50.416218,68.424484 50.639786,68.697388 50.863354,68.970299 
	C50.894154,69.417000 50.924953,69.863708 50.985443,70.644920 
	C50.531998,72.019783 50.048862,73.060135 49.459564,74.329079 
	C45.826332,73.777237 42.262932,73.236008 38.132263,72.608612 
	C39.218758,70.442848 39.927044,69.030991 40.260868,68.365562 
	C42.928158,68.148308 44.899479,67.987740 47.138481,67.530807 
z"/>
<path fill="#55432E" opacity="1.000000" stroke="none" 
	d="
M10.993882,88.995834 
	C10.763723,89.389153 10.544420,89.789856 10.288799,90.165863 
	C10.258964,90.209755 10.028496,90.117249 9.891043,90.087975 
	C10.116962,89.765289 10.342880,89.442604 10.784397,89.059959 
	C10.999995,89.000000 10.993881,88.995834 10.993882,88.995834 
z"/>
<path fill="#55432E" opacity="1.000000" stroke="none" 
	d="
M11.002155,89.003113 
	C11.004315,89.006218 11.108486,88.934639 11.051184,88.965240 
	C10.993881,88.995834 10.999995,89.000000 11.002155,89.003113 
z"/>
<path fill="#443625" opacity="1.000000" stroke="none" 
	d="
M12.686520,130.809448 
	C12.322396,130.253891 12.215070,129.902237 12.059904,129.277283 
	C16.187494,131.015045 20.029011,130.732224 24.016878,127.093170 
	C25.467579,126.268265 26.319838,125.693810 27.172096,125.119354 
	C27.172098,125.119354 27.614624,125.226212 27.822746,125.593567 
	C28.029362,126.593353 28.027855,127.225792 27.729622,128.064484 
	C26.123913,128.954483 24.883436,129.873535 23.493229,130.278275 
	C19.158314,131.540359 19.837460,133.837280 22.143337,136.393677 
	C25.615513,140.243103 30.334246,140.264175 34.914940,136.581573 
	C36.621494,137.429245 38.327271,138.278534 40.003517,139.487335 
	C39.638206,141.254471 39.302429,142.662079 38.966652,144.069702 
	C38.966652,144.069702 38.681076,144.119049 38.100632,144.085342 
	C36.942944,144.053284 36.365696,144.054916 35.788448,144.056564 
	C30.120848,146.061615 25.542206,142.698654 20.245544,141.027222 
	C19.861383,141.072983 19.905575,141.022263 19.886868,140.715179 
	C19.242048,139.273407 18.615934,138.138718 17.989820,137.004028 
	C16.991737,136.031555 15.993655,135.059067 14.729939,134.001251 
	C13.957309,132.948425 13.450313,131.980896 12.686520,130.809448 
z"/>
<path fill="#CECFD0" opacity="1.000000" stroke="none" 
	d="
M32.091648,111.299606 
	C31.990524,110.543373 32.016361,110.098656 32.052715,109.319542 
	C33.096313,108.990234 34.129398,108.995308 35.865078,109.206467 
	C39.092091,109.905640 41.616508,110.398743 44.140923,110.891838 
	C44.861771,110.875237 45.582619,110.858643 46.657948,111.259125 
	C47.033619,112.505341 47.054810,113.334473 47.076004,114.163605 
	C43.661774,114.735550 40.247540,115.307495 36.424988,115.841187 
	C34.750652,114.405663 33.484634,113.008392 32.091648,111.299606 
z"/>
<path fill="#C4926F" opacity="1.000000" stroke="none" 
	d="
M42.018600,122.173920 
	C41.545898,121.702339 41.073193,121.230759 40.505302,120.443718 
	C40.410114,120.128258 40.485817,120.139862 40.485817,120.139862 
	C44.174011,119.047447 47.840782,117.867744 51.572281,116.951744 
	C52.168213,116.805458 53.054352,117.841431 53.674232,118.929520 
	C53.300434,120.345917 53.058723,121.163620 52.817017,121.981323 
	C50.021179,122.135681 47.225334,122.290039 43.865349,122.348587 
	C42.873669,122.226486 42.446136,122.200203 42.018600,122.173920 
z"/>
<path fill="#4D3D2A" opacity="1.000000" stroke="none" 
	d="
M28.026350,127.858223 
	C28.027855,127.225792 28.029362,126.593353 28.043320,125.649773 
	C33.834366,125.304787 39.612957,125.270950 45.968376,125.388290 
	C47.098339,125.639214 47.651482,125.738960 48.204620,125.838707 
	C48.204620,125.838707 48.611465,125.867989 48.809761,125.915588 
	C49.256470,126.492653 49.504879,127.022133 49.464920,127.730209 
	C42.126488,127.891945 35.076420,127.875084 28.026350,127.858223 
z"/>
<path fill="#C1C1C1" opacity="1.000000" stroke="none" 
	d="
M47.446247,114.228958 
	C47.054810,113.334473 47.033619,112.505341 47.018478,111.258148 
	C49.092999,110.423714 51.899391,107.920654 52.150883,112.983566 
	C50.708324,113.641685 49.262409,113.967995 47.446247,114.228958 
z"/>
<path fill="#1E1712" opacity="1.000000" stroke="none" 
	d="
M53.172752,121.994461 
	C53.058723,121.163620 53.300434,120.345917 53.725143,119.263626 
	C54.436813,119.174911 54.965477,119.350769 55.716316,119.694252 
	C55.517735,120.475487 55.096977,121.089096 54.458038,121.869591 
	C54.002728,122.026848 53.765606,122.017220 53.172752,121.994461 
z"/>
<path fill="#1E1712" opacity="1.000000" stroke="none" 
	d="
M38.106682,120.123436 
	C37.297058,119.968552 36.487431,119.813667 35.677803,119.658783 
	C35.742973,119.367645 35.808144,119.076500 35.873314,118.785362 
	C36.418430,119.034195 36.963543,119.283028 37.751415,119.765358 
	C37.994175,119.998856 38.106682,120.123436 38.106682,120.123436 
z"/>
<path fill="#1E1712" opacity="1.000000" stroke="none" 
	d="
M26.775448,125.090736 
	C26.319838,125.693810 25.467579,126.268265 24.307770,126.902985 
	C24.000383,126.525719 24.000546,126.088188 24.003077,125.322121 
	C24.796564,125.016426 25.587681,125.039276 26.775448,125.090736 
z"/>
<path fill="#1E1712" opacity="1.000000" stroke="none" 
	d="
M37.936974,119.937431 
	C38.635372,119.809807 39.390968,119.743614 40.316193,119.908638 
	C40.485817,120.139862 40.410114,120.128258 40.431427,120.159454 
	C39.929840,120.166107 39.406940,120.141563 38.495361,120.120232 
	C38.106682,120.123436 37.994175,119.998856 37.936974,119.937431 
z"/>
<path fill="#413424" opacity="1.000000" stroke="none" 
	d="
M47.966713,125.678711 
	C47.651482,125.738960 47.098339,125.639214 46.307835,125.393967 
	C46.623249,125.338547 47.176025,125.428635 47.966713,125.678711 
z"/>
<path fill="#1E1712" opacity="1.000000" stroke="none" 
	d="
M31.564034,119.894524 
	C31.617062,119.940887 31.426859,120.101387 31.426859,120.101387 
	C31.426859,120.101387 31.511003,119.848160 31.564034,119.894524 
z"/>
<path fill="#1E1712" opacity="1.000000" stroke="none" 
	d="
M42.282619,122.313545 
	C42.446136,122.200203 42.873669,122.226486 43.497589,122.517502 
	C43.311527,122.672554 42.929081,122.562859 42.282619,122.313545 
z"/>
<path fill="#B37E5B" opacity="1.000000" stroke="none" 
	d="
M34.830238,86.260513 
	C36.697891,91.735741 31.136248,89.783997 28.907948,91.748993 
	C29.101650,89.868797 29.680590,87.975227 30.354502,85.771027 
	C31.849411,85.971275 33.197063,86.151802 34.830238,86.260513 
z"/>
<path fill="#54422E" opacity="1.000000" stroke="none" 
	d="
M47.024590,83.251190 
	C47.178005,83.193398 47.448730,83.385101 47.842701,83.819687 
	C47.727219,83.824509 47.452538,83.637207 47.024590,83.251190 
z"/>
<path fill="#B37E5B" opacity="1.000000" stroke="none" 
	d="
M36.737808,81.141113 
	C36.858562,81.406548 36.677917,81.616203 36.274239,81.894417 
	C36.222740,81.707588 36.351139,81.415039 36.737808,81.141113 
z"/>
<path fill="#4D3D2C" opacity="1.000000" stroke="none" 
	d="
M39.298401,144.006927 
	C39.302429,142.662079 39.638206,141.254471 40.329800,139.373306 
	C41.767159,138.492218 42.848701,138.084656 43.930244,137.677109 
	C43.974701,138.556229 44.019157,139.435349 44.093071,140.756897 
	C42.625065,142.114273 41.127605,143.029205 39.298401,144.006927 
z"/>
<path fill="#010101" opacity="1.000000" stroke="none" 
	d="
M38.005875,145.162827 
	C38.282917,146.033646 38.559963,146.904465 38.880394,147.911636 
	C36.926060,147.911636 35.277672,147.911636 33.017105,147.881149 
	C31.855545,147.614868 31.306162,147.379059 30.756779,147.143250 
	C32.304699,146.599945 33.852615,146.056641 36.030739,145.335999 
	C37.109257,145.160049 37.557564,145.161438 38.005875,145.162827 
z"/>
<path fill="#513523" opacity="1.000000" stroke="none" 
	d="
M30.658966,147.364227 
	C31.306162,147.379059 31.855545,147.614868 32.699837,147.929138 
	C32.183548,147.866791 31.372351,147.725998 30.658966,147.364227 
z"/>
<path fill="#4D3D2C" opacity="1.000000" stroke="none" 
	d="
M38.094643,144.893036 
	C37.557564,145.161438 37.109257,145.160049 36.324711,145.151672 
	C35.959789,144.962494 35.931099,144.780273 35.845428,144.327301 
	C36.365696,144.054916 36.942944,144.053284 37.956230,144.073318 
	C38.322647,144.271072 38.253029,144.447159 38.094643,144.893036 
z"/>
<path fill="#C1C1C1" opacity="1.000000" stroke="none" 
	d="
M44.114910,110.583183 
	C41.616508,110.398743 39.092091,109.905640 36.253830,109.206512 
	C38.421902,108.866005 40.903824,108.731537 43.702194,108.816505 
	C44.042065,109.448807 44.065483,109.861664 44.114910,110.583183 
z"/>
<path fill="#C1C1C1" opacity="1.000000" stroke="none" 
	d="
M49.311508,107.954315 
	C48.966385,107.221138 48.968742,106.510849 48.962196,105.446289 
	C50.047813,105.572830 51.142334,106.053635 52.236855,106.534431 
	C51.377567,107.015350 50.518280,107.496269 49.311508,107.954315 
z"/>
<path fill="#201712" opacity="1.000000" stroke="none" 
	d="
M44.065605,137.399323 
	C42.848701,138.084656 41.767159,138.492218 40.359329,139.013794 
	C38.327271,138.278534 36.621494,137.429245 34.914940,136.581573 
	C30.334246,140.264175 25.615513,140.243103 22.143337,136.393677 
	C19.837460,133.837280 19.158314,131.540359 23.493229,130.278275 
	C24.883436,129.873535 26.123913,128.954483 27.729622,128.064484 
	C35.076420,127.875084 42.126488,127.891945 49.586151,127.995911 
	C51.505596,133.302246 45.900917,133.960175 44.065605,137.399323 
M41.655979,129.882065 
	C39.906567,129.882065 38.157158,129.882065 34.980423,129.882065 
	C37.026417,132.600052 38.400948,134.426041 40.059219,136.628967 
	C42.413479,134.684753 44.363510,133.074356 47.139523,130.781845 
	C44.864815,130.384705 43.663452,130.174957 41.655979,129.882065 
M32.963791,133.603714 
	C34.137154,131.566803 33.963276,129.965805 31.216015,130.520920 
	C28.610903,131.047287 26.143047,132.252945 22.322479,133.623489 
	C25.478281,135.271255 27.378592,136.263474 28.220860,136.703247 
	C29.971581,135.462097 31.122641,134.646057 32.963791,133.603714 
z"/>
<path fill="#16120F" opacity="1.000000" stroke="none" 
	d="
M17.780256,137.183350 
	C18.615934,138.138718 19.242048,139.273407 19.914810,140.733902 
	C18.994442,140.324753 18.027424,139.589783 16.963924,138.533630 
	C17.101860,137.929169 17.336275,137.645920 17.780256,137.183350 
z"/>
<path fill="#655139" opacity="1.000000" stroke="none" 
	d="
M50.860096,68.672699 
	C50.639786,68.697388 50.416218,68.424484 50.069702,67.911491 
	C50.250114,67.905968 50.553478,68.140526 50.860096,68.672699 
z"/>
<path fill="#BCBCBC" opacity="1.000000" stroke="none" 
	d="
M25.490242,106.505402 
	C25.481485,106.485199 25.498999,106.525612 25.490242,106.505402 
z"/>
<path fill="#C49171" opacity="1.000000" stroke="none" 
	d="
M42.059032,129.923645 
	C43.663452,130.174957 44.864815,130.384705 47.139523,130.781845 
	C44.363510,133.074356 42.413479,134.684753 40.059219,136.628967 
	C38.400948,134.426041 37.026417,132.600052 34.980423,129.882065 
	C38.157158,129.882065 39.906567,129.882065 42.059032,129.923645 
z"/>
<path fill="#BA8967" opacity="1.000000" stroke="none" 
	d="
M32.618744,133.716858 
	C31.122641,134.646057 29.971581,135.462097 28.220860,136.703247 
	C27.378592,136.263474 25.478281,135.271255 22.322479,133.623489 
	C26.143047,132.252945 28.610903,131.047287 31.216015,130.520920 
	C33.963276,129.965805 34.137154,131.566803 32.618744,133.716858 
z"/>
</svg>