<svg version="1.1" id="Layer_1" xmlns="http://www.w3.org/2000/svg" xmlns:xlink="http://www.w3.org/1999/xlink" x="0px" y="0px"
	 width="100%" viewBox="0 0 113 159" enable-background="new 0 0 113 159" xml:space="preserve">
<path fill="#000000" opacity="1.000000" stroke="none" 
	d="
M62.000000,160.000000 
	C41.683369,160.000000 21.366735,160.000000 1.025051,160.000000 
	C1.025051,107.060242 1.025051,54.120472 1.025051,1.090349 
	C38.575302,1.090349 76.150894,1.090349 113.863243,1.090349 
	C113.863243,53.999760 113.863243,106.999825 113.863243,160.000000 
	C100.582115,160.000000 87.259720,160.000000 73.515656,159.568405 
	C73.080170,157.116882 73.066345,155.096970 73.116631,152.998520 
	C73.337418,152.572449 73.271103,152.275665 73.006088,151.574142 
	C73.014046,148.080124 72.997711,145.041611 73.075371,141.656326 
	C73.761086,138.962494 74.352791,136.615448 74.772850,134.949219 
	C71.984718,132.565964 69.489082,130.432739 67.284821,128.548584 
	C65.641312,130.642883 64.625786,133.236572 62.875561,133.904190 
	C58.893635,135.423111 58.832478,137.694595 60.298965,141.332977 
	C60.641605,144.503616 60.932396,147.218994 61.214607,150.342590 
	C61.347404,151.555038 61.488789,152.359238 61.579079,153.537537 
	C61.685322,155.941086 61.842663,157.970535 62.000000,160.000000 
z"/>
<path fill="#423525" opacity="1.000000" stroke="none" 
	d="
M61.223190,149.934357 
	C60.932396,147.218994 60.641605,144.503616 60.637367,141.397003 
	C62.168583,141.205643 63.413242,141.405502 65.328857,141.713120 
	C62.882168,136.829437 66.302803,136.708740 68.694359,135.871796 
	C70.235970,138.076614 71.608673,140.039856 72.981369,142.003098 
	C72.997711,145.041611 73.014046,148.080124 73.014008,151.836609 
	C73.015923,152.728729 73.034218,152.902893 73.052521,153.077042 
	C73.066345,155.096970 73.080170,157.116882 73.046997,159.568405 
	C69.638710,160.000000 66.277428,160.000000 62.458069,160.000000 
	C61.842663,157.970535 61.685322,155.941086 61.827644,153.468582 
	C63.023769,152.578674 63.920231,152.131805 65.552574,151.318115 
	C63.559952,150.681229 62.391571,150.307800 61.223190,149.934357 
z"/>
<path fill="#32281A" opacity="1.000000" stroke="none" 
	d="
M73.075371,141.656326 
	C71.608673,140.039856 70.235970,138.076614 68.694359,135.871796 
	C66.302803,136.708740 62.882168,136.829437 65.328857,141.713120 
	C63.413242,141.405502 62.168583,141.205643 60.585526,140.941742 
	C58.832478,137.694595 58.893635,135.423111 62.875561,133.904190 
	C64.625786,133.236572 65.641312,130.642883 67.284821,128.548584 
	C69.489082,130.432739 71.984718,132.565964 74.772850,134.949219 
	C74.352791,136.615448 73.761086,138.962494 73.075371,141.656326 
z"/>
<path fill="#32281A" opacity="1.000000" stroke="none" 
	d="
M61.214603,150.342590 
	C62.391571,150.307800 63.559952,150.681229 65.552574,151.318115 
	C63.920231,152.131805 63.023769,152.578674 61.878742,153.094498 
	C61.488789,152.359238 61.347404,151.555038 61.214603,150.342590 
z"/>
<path fill="#32281A" opacity="1.000000" stroke="none" 
	d="
M73.116631,152.998520 
	C73.034218,152.902893 73.015923,152.728729 72.989708,152.292114 
	C73.271103,152.275665 73.337418,152.572449 73.116631,152.998520 
z"/>
</svg>