<svg version="1.1" id="Layer_1" xmlns="http://www.w3.org/2000/svg" xmlns:xlink="http://www.w3.org/1999/xlink" x="0px" y="0px"
	 width="100%" viewBox="0 0 277 149" enable-background="new 0 0 277 149" xml:space="preserve">
<path fill="#000000" opacity="1.000000" stroke="none" 
	d="
M213.000000,150.000000 
	C142.000000,150.000000 71.500000,150.000000 1.000000,150.000000 
	C1.000000,100.333336 1.000000,50.666668 1.000000,1.000000 
	C93.333336,1.000000 185.666672,1.000000 278.000000,1.000000 
	C278.000000,50.666668 278.000000,100.333336 278.000000,150.000000 
	C256.500000,150.000000 235.000000,150.000000 213.000000,150.000000 
M173.005600,140.508011 
	C173.011673,140.677963 173.017731,140.847916 173.501266,141.523911 
	C176.421646,144.283829 179.828033,143.258667 183.297287,143.103500 
	C190.343338,142.788300 197.413376,143.009293 204.473526,143.009293 
	C200.194916,141.918243 195.917862,141.919800 191.641068,141.886749 
	C191.611038,141.886536 191.542480,141.404022 191.578781,141.159622 
	C191.592072,141.070206 191.858276,141.018387 192.910706,140.955383 
	C201.255188,140.562469 209.599670,140.169571 218.399826,140.246567 
	C222.080902,140.880951 221.918716,138.349701 221.984818,135.345856 
	C222.019562,134.936615 222.054306,134.527359 222.512924,134.027908 
	C222.512924,134.027908 222.934372,133.927002 223.687439,133.982208 
	C226.901917,134.269836 230.116409,134.557449 233.694321,135.120712 
	C233.877441,135.372742 233.987732,135.653412 233.770416,136.535248 
	C235.162704,138.031937 236.554977,139.528625 238.478653,141.040924 
	C238.654739,141.021027 238.830826,141.001129 238.981064,141.051895 
	C238.981064,141.051895 238.953079,141.121750 239.286758,141.816437 
	C243.948669,143.400909 248.586090,144.402802 253.677795,141.201935 
	C254.097626,141.217117 254.517471,141.232300 255.237686,141.863602 
	C257.825348,143.946533 259.885498,143.031021 261.316498,140.508270 
	C261.487000,140.207718 259.816345,138.862732 258.393066,137.518509 
	C254.618683,136.649094 250.844284,135.779694 246.801849,134.335953 
	C246.410110,133.850800 246.018356,133.365662 245.790665,132.156357 
	C242.229019,124.076500 238.667374,115.996651 235.069534,107.261795 
	C234.383347,106.178413 233.697159,105.095032 232.872025,103.543396 
	C232.743240,103.231369 232.535904,102.985619 232.131989,102.113899 
	C230.666946,99.569611 229.201904,97.025322 227.478897,93.830666 
	C225.449326,91.161217 223.419754,88.491776 221.039581,85.206963 
	C220.036514,84.917816 219.033432,84.628670 217.618073,84.414383 
	C217.618073,84.414383 217.226318,84.563118 216.917099,83.775063 
	C216.518738,82.432137 216.120392,81.089211 215.766708,79.136162 
	C215.739212,78.520966 215.711700,77.905762 215.847702,76.679344 
	C215.727631,76.107979 215.607559,75.536621 215.487488,74.965248 
	C214.965912,75.596512 214.444336,76.227776 213.441788,77.241875 
	C213.281525,77.825485 213.121262,78.409096 213.011887,78.975464 
	C213.011887,78.975464 212.973526,78.937851 212.311310,78.962227 
	C211.667770,78.821213 211.024216,78.680206 210.272125,78.302849 
	C210.272125,78.302849 210.069946,78.128983 210.000870,77.357185 
	C210.682114,75.258568 211.363358,73.159950 212.647919,70.605743 
	C213.783676,65.867279 214.919434,61.128819 216.165436,55.930443 
	C217.631332,58.702602 218.792038,60.897633 220.189255,63.709789 
	C221.979416,65.355423 223.769577,67.001060 225.559738,68.646698 
	C226.017700,68.529175 226.475662,68.411659 226.933624,68.294136 
	C226.933624,66.200089 226.933624,64.106033 227.729324,61.974613 
	C229.409180,61.193222 231.089035,60.411835 232.768906,59.630451 
	C231.825592,58.227654 231.183746,56.336124 229.873627,55.527966 
	C227.451187,54.033684 224.637360,53.173946 221.883804,51.469200 
	C221.567688,50.992630 221.251587,50.516064 220.941193,49.298428 
	C220.759918,46.044064 219.238220,43.853130 215.470963,42.614929 
	C213.625824,41.964836 211.780685,41.314743 209.450195,40.192921 
	C209.128021,39.883911 208.805847,39.574902 208.722931,38.542095 
	C207.839005,37.348549 206.955078,36.155003 205.711029,34.378136 
	C200.513504,30.842640 195.713745,26.512621 189.032089,25.333254 
	C189.178558,24.437017 189.325012,23.540781 189.710861,21.179789 
	C184.787582,23.493523 180.896973,25.321945 176.262070,27.043877 
	C173.202637,25.047472 171.121628,26.871912 168.950211,28.791988 
	C167.415939,30.148664 165.669128,31.264986 163.762177,31.846699 
	C161.491180,28.870173 160.922287,31.331146 160.351288,33.006245 
	C158.523407,38.368618 156.804749,43.768219 154.918945,49.535740 
	C155.140533,50.429287 155.585388,52.223160 155.863541,54.094467 
	C155.863541,54.094467 155.844284,54.284874 155.844284,54.284874 
	C155.844284,54.284874 155.980194,53.968239 156.703781,53.965157 
	C157.420807,54.025349 158.137848,54.085537 158.802246,54.880558 
	C158.702179,55.609974 158.602112,56.339386 158.129471,57.633633 
	C157.817520,60.115589 157.505585,62.597542 157.115280,65.832108 
	C157.122238,66.840454 157.129196,67.848793 157.025650,69.711075 
	C156.952423,73.976273 157.424500,77.987915 162.290985,80.596153 
	C163.149185,81.138390 164.007401,81.680626 165.044312,82.738495 
	C165.400604,83.143013 165.756882,83.547523 165.845337,84.520363 
	C166.523590,85.694191 167.201859,86.868011 168.508224,88.369095 
	C170.705765,91.108154 172.576569,94.473564 177.922043,92.951691 
	C180.953262,93.329834 183.984497,93.707977 186.936935,94.745232 
	C186.896454,95.182365 186.855988,95.619492 186.055099,96.027946 
	C183.049545,96.050186 182.946060,97.993530 182.652573,100.385139 
	C182.084686,101.181847 181.516785,101.978561 180.361008,103.114983 
	C179.412796,104.533134 178.464569,105.951279 177.166016,107.893387 
	C178.319550,108.847023 179.566925,109.878220 181.461105,110.989166 
	C181.892578,110.998772 182.324066,111.008377 182.805222,111.764038 
	C182.836502,112.511139 182.867783,113.258232 182.495544,114.354797 
	C182.296280,114.651039 182.097031,114.947281 181.371017,114.812286 
	C179.353806,112.857925 177.545334,110.610672 175.283890,108.999008 
	C164.468613,101.291321 163.815659,99.048592 151.149704,111.127388 
	C148.100220,113.421135 145.050720,115.714882 141.314667,117.990685 
	C140.225937,118.669540 139.137222,119.348389 137.302856,120.042542 
	C135.145233,121.529694 132.987595,123.016853 130.129944,124.344482 
	C129.369370,125.218819 128.608795,126.093147 127.098190,126.969963 
	C126.105507,127.009361 125.112816,127.048759 123.479271,127.375305 
	C120.404243,130.711960 116.561256,129.185974 112.021400,129.010178 
	C107.029922,129.673080 102.038452,130.335983 96.635262,131.274246 
	C96.376183,131.485794 96.164589,131.737305 95.269356,131.972656 
	C93.852722,131.627625 92.436081,131.282608 90.973770,130.199875 
	C90.534256,126.659683 88.111916,125.891914 84.478615,125.648315 
	C83.036354,124.593384 81.560181,123.581406 80.158875,122.474617 
	C77.207809,120.143791 74.233986,118.964722 70.284607,122.015648 
	C69.189583,122.704193 68.094566,123.392731 66.202469,124.056183 
	C65.142342,124.092087 64.082214,124.127998 62.267117,124.118263 
	C61.511887,124.078743 60.756660,124.039223 60.043846,123.343079 
	C60.081009,122.905998 60.118176,122.468925 60.751274,122.034447 
	C61.644207,122.034447 62.537136,122.034447 63.430069,122.034447 
	C63.505733,121.721909 63.581402,121.409378 63.657066,121.096840 
	C62.456543,120.727234 61.256020,120.357620 59.730858,119.333244 
	C58.191631,116.847946 56.652409,114.362648 54.805931,111.523331 
	C54.589230,111.295380 54.345455,111.101463 53.869507,110.266380 
	C49.938274,108.909218 46.007042,107.552055 41.313091,106.149200 
	C33.380680,106.828896 33.998451,114.359314 30.541737,119.515923 
	C30.209406,120.268654 29.925114,121.047165 29.537310,121.770134 
	C25.636320,129.042633 27.819878,132.819809 36.777775,133.002914 
	C38.621819,133.714233 40.451096,134.467087 42.312756,135.128845 
	C47.358765,136.922531 52.430866,138.832474 57.721916,133.988419 
	C58.485832,133.990143 59.249748,133.991867 60.767052,134.320908 
	C64.875931,134.218674 68.984802,134.116455 73.832695,134.044693 
	C75.709892,134.983063 77.655655,135.806976 79.450653,136.882523 
	C83.802048,139.489822 91.159843,138.013184 93.578964,134.124191 
	C94.061691,134.398285 94.544418,134.672394 95.019203,135.700577 
	C95.184753,139.718292 96.560745,140.784897 101.153175,140.796112 
	C105.841331,140.807571 110.528801,141.991653 114.978920,139.872223 
	C117.156136,138.835297 118.407532,138.526260 121.044899,139.718033 
	C124.550224,141.302017 129.060181,140.662750 133.683182,141.446747 
	C137.105026,141.640121 140.526871,141.833496 144.569458,141.559341 
	C146.801956,141.645416 149.034912,141.811630 151.266815,141.798325 
	C154.436493,141.779419 157.672867,141.707794 157.061157,136.382812 
	C157.693680,135.575562 158.326187,134.768295 159.604462,134.064255 
	C160.425034,134.355988 161.245621,134.647705 162.904129,134.949997 
	C164.584351,134.950577 166.264587,134.951141 168.880402,134.966675 
	C169.815674,134.943726 170.750946,134.920761 171.769897,135.097565 
	C171.769897,135.097565 171.637543,135.268997 171.224777,135.843552 
	C171.806519,136.903519 172.388245,137.963470 172.985931,139.510635 
	C172.985931,139.510635 173.000946,139.997849 173.005600,140.508011 
z"/>
<path fill="#C4B3AC" opacity="1.000000" stroke="none" 
	d="
M235.105728,107.916794 
	C238.667374,115.996651 242.229019,124.076500 245.347015,132.618790 
	C243.194534,132.471191 241.485703,131.861160 239.724960,131.232605 
	C238.820114,132.841461 237.907700,134.463791 236.751709,136.025955 
	C236.347519,135.919113 236.186905,135.872421 236.109253,135.451370 
	C235.742554,131.974686 235.904022,128.609924 234.709183,125.827621 
	C232.570679,120.847977 229.814682,116.094673 226.936966,111.483841 
	C224.709763,107.915276 221.902802,104.708557 219.353577,101.340973 
	C218.813431,101.598824 218.273285,101.856674 217.733154,102.114525 
	C218.205246,104.428146 218.677353,106.741776 219.103088,109.291595 
	C219.056717,109.527786 218.904877,109.984604 218.646164,110.050781 
	C218.594131,110.745140 218.800827,111.373314 218.996155,112.331741 
	C218.934433,113.097107 218.884079,113.532219 218.599304,113.968163 
	C218.364883,113.969002 217.903519,114.052467 217.503723,114.052383 
	C213.802597,114.932022 210.501266,115.811752 207.036240,116.269943 
	C206.470581,115.036362 206.068634,114.224312 205.669525,113.057442 
	C206.144455,110.379326 210.042114,109.355064 208.230042,106.048080 
	C208.154953,105.911064 209.825012,104.871521 210.625427,104.186333 
	C211.474854,103.459198 212.256744,102.653145 213.335724,101.679230 
	C215.307297,98.243500 217.054199,95.030136 218.598160,91.722046 
	C218.682098,91.542213 217.069595,90.570602 216.260773,89.620094 
	C216.591965,87.702797 216.909149,86.132957 217.226318,84.563118 
	C217.226318,84.563118 217.618073,84.414383 218.030396,84.625549 
	C219.425217,85.165260 220.407700,85.493790 221.390182,85.822327 
	C223.419754,88.491776 225.449326,91.161217 227.418625,94.523666 
	C225.524994,100.990250 226.481461,102.474228 232.250015,102.806137 
	C232.535904,102.985619 232.743240,103.231369 232.827469,104.075943 
	C232.403030,105.553627 232.023163,106.498749 231.453217,107.916794 
	C232.995163,107.916794 234.050446,107.916794 235.105728,107.916794 
z"/>
<path fill="#3F3223" opacity="1.000000" stroke="none" 
	d="
M151.795441,110.959656 
	C163.815659,99.048592 164.468613,101.291321 175.283890,108.999008 
	C177.545334,110.610672 179.353806,112.857925 181.693939,115.317108 
	C182.360352,116.545555 182.703857,117.269188 183.041412,118.354309 
	C184.024948,119.500038 185.014450,120.284279 186.199890,121.343407 
	C186.791595,122.887100 187.187332,124.155914 187.747528,125.951958 
	C185.277100,125.951958 183.646683,125.951958 181.841797,125.786453 
	C181.104080,125.726501 180.540817,125.832054 179.577820,125.888977 
	C176.463623,125.637703 173.749130,125.435051 170.759155,125.020966 
	C169.591965,123.532906 168.700256,122.256279 168.006104,120.703194 
	C169.124603,118.731819 170.045532,117.036919 170.966461,115.342010 
	C170.647644,115.136734 170.328827,114.931458 170.010010,114.726181 
	C168.183563,116.150764 166.357117,117.575356 164.205276,119.253738 
	C164.115051,117.914551 164.051056,116.964561 163.999237,115.599045 
	C163.905975,113.395782 163.800491,111.608047 163.695007,109.820320 
	C163.255341,109.798759 162.815674,109.777206 162.376007,109.755653 
	C161.950623,111.874664 161.525238,113.993683 161.091156,116.502350 
	C160.714600,118.922096 160.346741,120.952202 159.547180,122.990509 
	C157.375397,123.045769 155.635330,123.092819 153.592316,122.975853 
	C150.918716,121.264069 148.548080,119.716301 146.598373,118.443359 
	C148.657593,115.478111 150.226517,113.218887 151.795441,110.959656 
z"/>
<path fill="#0E0907" opacity="1.000000" stroke="none" 
	d="
M183.047348,117.992821 
	C182.703857,117.269188 182.360352,116.545555 181.957306,115.532722 
	C182.097031,114.947281 182.296280,114.651039 183.046295,114.285934 
	C184.901108,115.643555 186.205139,117.070053 187.610962,118.770439 
	C188.833252,120.030540 189.953751,121.016754 191.267822,121.822372 
	C191.652405,121.162460 191.843414,120.683144 192.029816,119.847656 
	C192.013123,119.016708 192.001007,118.541931 192.329407,118.119225 
	C196.212830,121.828445 200.044464,121.176498 204.103317,119.197098 
	C204.485809,119.990196 204.747971,120.515480 204.714066,121.220963 
	C200.575516,123.012093 196.733047,124.623024 192.915131,125.910233 
	C192.720825,124.935776 192.501968,124.285027 192.283112,123.634277 
	C192.005478,123.715279 191.727844,123.796272 191.450211,123.877274 
	C191.742935,124.714409 192.035660,125.551537 192.321854,126.715424 
	C192.173752,127.678528 192.032166,128.314865 191.588409,128.997253 
	C190.544617,129.376740 189.802994,129.710159 188.817780,130.131744 
	C188.119736,130.464645 187.665283,130.709381 186.994690,130.697357 
	C184.128586,127.715744 183.224533,130.358582 181.633240,132.000122 
	C180.791916,132.004517 180.311127,132.005661 179.865097,131.629379 
	C179.213715,126.864182 176.408691,127.105247 172.747559,127.910309 
	C173.599319,129.732803 174.261337,131.149292 175.009674,132.750473 
	C173.801453,133.531128 172.743835,134.214478 171.686218,134.897827 
	C170.750946,134.920761 169.815674,134.943726 168.413177,134.600616 
	C166.589828,132.665573 165.233704,131.096573 163.877594,129.527573 
	C163.273804,131.331528 162.669998,133.135483 162.066193,134.939438 
	C161.245621,134.647705 160.425034,134.355988 159.230957,133.685898 
	C157.632416,131.969543 156.407379,130.631546 155.182343,129.293549 
	C154.535095,129.406570 153.887863,129.519592 153.240616,129.632629 
	C152.702789,132.484375 152.164948,135.336136 151.627106,138.187897 
	C153.393265,137.794128 155.159424,137.400375 156.925568,137.006622 
	C157.672867,141.707794 154.436493,141.779419 151.266815,141.798325 
	C149.034912,141.811630 146.801956,141.645416 144.077057,141.611176 
	C143.417084,141.178665 143.249512,140.694321 143.222198,139.902313 
	C143.782669,139.452087 144.202881,139.309509 144.859756,139.144806 
	C145.410202,139.068466 145.725739,139.027817 146.359100,138.988251 
	C147.115952,137.975311 147.556717,136.974884 148.146149,135.668182 
	C149.231354,133.853058 150.058792,132.261551 151.126694,130.852234 
	C153.498535,127.722054 152.679321,125.874695 148.838745,124.710556 
	C146.448898,122.283768 144.225067,120.146194 142.001236,118.008621 
	C145.050720,115.714882 148.100220,113.421135 151.472565,111.043518 
	C150.226517,113.218887 148.657593,115.478111 146.598373,118.443359 
	C148.548080,119.716301 150.918716,121.264069 153.711182,123.285896 
	C155.225479,125.535858 156.317963,127.311760 157.410431,129.087662 
	C158.134583,128.591003 158.858719,128.094345 159.582870,127.597687 
	C159.714874,126.059227 159.846878,124.520760 159.978882,122.982300 
	C160.346741,120.952202 160.714600,118.922096 161.449677,116.471916 
	C162.540298,116.039413 163.263672,116.027000 163.987061,116.014580 
	C164.051056,116.964561 164.115051,117.914551 164.205276,119.253738 
	C166.357117,117.575356 168.183563,116.150764 170.010010,114.726181 
	C170.328827,114.931458 170.647644,115.136734 170.966461,115.342010 
	C170.045532,117.036919 169.124603,118.731819 167.688187,120.783112 
	C164.435150,124.152122 165.913925,127.678238 171.311707,130.992828 
	C171.223846,129.072723 171.129257,127.152565 171.034668,125.232407 
	C173.749130,125.435051 176.463623,125.637703 179.745285,126.079407 
	C180.880402,126.196289 181.448334,126.074120 182.016266,125.951950 
	C183.646683,125.951958 185.277100,125.951958 187.747528,125.951958 
	C187.187332,124.155914 186.791595,122.887100 186.064758,121.045418 
	C184.838242,119.645973 183.942795,118.819397 183.047348,117.992821 
z"/>
<path fill="#5F4D35" opacity="1.000000" stroke="none" 
	d="
M164.017212,32.488613 
	C165.669128,31.264986 167.415939,30.148664 168.950211,28.791988 
	C171.121628,26.871912 173.202637,25.047472 176.628677,27.481785 
	C176.998199,28.951504 177.001114,29.983315 176.676880,31.021038 
	C175.913467,31.032240 175.477234,31.037527 174.708618,31.087158 
	C173.893906,32.417927 173.411575,33.704353 172.925690,35.315346 
	C172.923111,36.072701 172.924057,36.505486 172.578995,36.968765 
	C167.666702,38.552647 168.930206,41.242683 170.888245,44.480637 
	C173.878632,55.151611 171.686996,65.071625 168.784393,74.829460 
	C168.342346,74.496735 168.137772,74.258469 167.979080,73.658630 
	C167.973999,72.895958 167.963303,72.460258 167.905334,71.661911 
	C166.829117,70.257668 165.800156,69.216080 164.771210,68.174492 
	C164.176880,69.169960 163.582550,70.165428 162.638763,71.090927 
	C160.571579,70.299683 158.853867,69.578415 157.136139,68.857140 
	C157.129196,67.848793 157.122238,66.840454 157.453369,65.441772 
	C158.192291,65.040039 158.593124,65.028633 159.259155,65.246155 
	C164.419525,65.628067 165.271408,64.583633 163.842163,59.694500 
	C163.131439,55.997982 160.915787,56.311214 158.502045,57.068802 
	C158.602112,56.339386 158.702179,55.609974 159.008499,54.200054 
	C160.815567,46.509239 162.416397,39.498924 164.017212,32.488613 
z"/>
<path fill="#171717" opacity="1.000000" stroke="none" 
	d="
M60.001431,123.999695 
	C60.756660,124.039223 61.511887,124.078743 62.642418,124.329727 
	C63.017715,124.541191 63.017815,124.922371 62.800968,125.113892 
	C62.379116,125.835770 62.174110,126.366127 61.663849,126.993057 
	C60.870342,127.745270 60.382088,128.400894 59.708282,129.289841 
	C59.363224,130.293869 59.203712,131.064606 58.743069,131.946716 
	C57.946770,132.695221 57.451603,133.332306 56.956436,133.969406 
	C52.430866,138.832474 47.358765,136.922531 42.312756,135.128845 
	C40.451096,134.467087 38.621819,133.714233 36.325832,132.635269 
	C34.253872,127.846207 32.633854,123.424789 31.013836,119.003372 
	C33.998451,114.359314 33.380680,106.828896 41.600922,106.497261 
	C33.612400,116.559990 40.878349,125.951508 50.697918,126.532547 
	C53.738487,126.712456 56.896946,124.899979 60.001431,123.999695 
z"/>
<path fill="#1D1917" opacity="1.000000" stroke="none" 
	d="
M209.935547,40.664650 
	C211.780685,41.314743 213.625824,41.964836 215.518463,43.072063 
	C215.674515,45.549522 215.798538,47.569180 215.886444,49.590401 
	C215.950272,51.058475 215.966293,52.528625 215.682800,54.106262 
	C213.504089,56.755543 211.646164,59.296413 209.578827,62.128510 
	C209.518402,62.606777 209.667419,62.793816 209.846802,62.928093 
	C209.877151,62.875332 209.775406,62.808487 209.432190,62.741768 
	C206.360870,65.326874 203.632782,67.978699 200.582489,70.771133 
	C192.812973,75.586807 185.365646,80.261864 177.947296,84.957573 
	C177.976273,84.978226 177.975082,84.907089 177.673477,84.926315 
	C177.178101,85.288490 176.984329,85.631447 176.356033,85.962685 
	C173.214020,86.543991 169.668320,83.913338 167.880112,88.041840 
	C167.201859,86.868011 166.523590,85.694191 166.171600,84.033836 
	C166.672440,83.015442 166.847031,82.483574 167.203186,81.918961 
	C167.384766,81.886215 167.752655,81.857552 168.067154,82.016861 
	C169.918640,82.175423 171.455612,82.174675 173.297455,82.037979 
	C174.042130,81.854004 174.481964,81.805977 175.055847,81.882515 
	C175.418564,81.812607 175.647232,81.618141 175.922882,81.263634 
	C175.969879,81.103592 175.995590,80.770996 176.346909,80.743744 
	C178.656158,79.825134 180.614075,78.933769 182.612427,78.155151 
	C182.652863,78.267891 182.882584,78.200027 183.229874,78.079041 
	C187.746887,75.342949 191.916595,72.727837 196.404602,70.008408 
	C198.030029,68.779930 199.337173,67.655762 200.943237,66.274506 
	C194.220886,64.534142 188.191635,62.973217 182.129089,60.997974 
	C182.068436,59.756149 182.041077,58.928638 182.017181,58.047462 
	C182.020615,57.993797 182.013458,57.886478 182.409515,57.943596 
	C186.154160,58.717201 189.502762,59.433685 193.016327,60.480011 
	C195.120758,61.205326 197.060257,61.600803 199.422729,62.005634 
	C202.491196,61.629684 206.006699,63.307983 207.283630,58.816345 
	C208.754852,56.430851 209.940521,54.228470 211.380447,51.850796 
	C212.082016,50.778374 212.529343,49.881248 212.980362,48.638535 
	C212.632874,47.259228 212.281677,46.225506 211.886932,44.864017 
	C211.207443,43.245716 210.571487,41.955185 209.935547,40.664650 
z"/>
<path fill="#080505" opacity="1.000000" stroke="none" 
	d="
M112.936272,129.040375 
	C116.561256,129.185974 120.404243,130.711960 123.793152,127.556503 
	C124.605919,129.149170 125.104797,130.560654 125.731033,132.234589 
	C126.190399,132.674805 126.522408,132.852524 126.920204,133.347076 
	C127.082077,134.084457 127.178169,134.505020 127.147331,135.307358 
	C128.131836,141.084579 132.886932,137.777252 135.178604,139.527039 
	C134.201965,140.168259 133.670242,140.573471 133.138519,140.978683 
	C129.060181,140.662750 124.550224,141.302017 121.044899,139.718033 
	C118.407532,138.526260 117.156136,138.835297 114.978920,139.872223 
	C110.528801,141.991653 105.841331,140.807571 101.153175,140.796112 
	C96.560745,140.784897 95.184753,139.718292 95.414513,135.330490 
	C97.280205,134.855179 98.750580,134.749939 100.220963,134.644699 
	C100.220848,134.345276 100.220726,134.045837 100.220612,133.746399 
	C98.813904,133.173859 97.407188,132.601303 96.000481,132.028748 
	C96.164589,131.737305 96.376183,131.485794 97.210022,131.299133 
	C103.130829,132.523712 108.266388,132.326859 112.936272,129.040375 
M123.085091,134.133331 
	C123.085091,134.133331 123.253090,134.159668 123.253090,134.159668 
	C123.253090,134.159668 122.987587,134.008240 122.743568,133.349182 
	C121.237244,132.915070 119.730919,132.480942 118.224602,132.046814 
	C118.144417,132.605087 118.064240,133.163345 117.984055,133.721603 
	C119.658745,133.810303 121.333435,133.899002 123.085091,134.133331 
z"/>
<path fill="#252525" opacity="1.000000" stroke="none" 
	d="
M60.022636,123.671387 
	C56.896946,124.899979 53.738487,126.712456 50.697918,126.532547 
	C40.878349,125.951508 33.612400,116.559990 41.982277,106.520111 
	C46.007042,107.552055 49.938274,108.909218 53.605957,110.571190 
	C51.680569,111.231361 50.018726,111.586716 48.356888,111.942078 
	C49.373692,113.454620 50.105171,115.883255 51.461494,116.305695 
	C55.328209,117.510010 54.810825,114.162682 55.113186,111.877350 
	C56.652409,114.362648 58.191631,116.847946 59.881954,120.002106 
	C60.073814,121.124596 60.114578,121.578224 60.155342,122.031845 
	C60.118176,122.468925 60.081009,122.905998 60.022636,123.671387 
z"/>
<path fill="#3A2D1F" opacity="1.000000" stroke="none" 
	d="
M167.752655,81.857552 
	C167.752655,81.857552 167.384766,81.886215 166.842056,81.947357 
	C165.821426,82.079948 165.343521,82.151405 164.865601,82.222862 
	C164.007401,81.680626 163.149185,81.138390 162.116272,79.989136 
	C162.269028,77.568993 162.596481,75.755875 163.098633,74.230034 
	C165.011780,76.790550 166.675064,80.035919 168.981613,74.958504 
	C171.686996,65.071625 173.878632,55.151611 171.073914,44.148647 
	C171.793198,41.244667 172.359100,39.091465 172.925003,36.938267 
	C172.924057,36.505486 172.923111,36.072701 173.221313,35.142715 
	C174.027298,33.444614 174.534134,32.243713 175.040985,31.042812 
	C175.477234,31.037527 175.913467,31.032240 176.975189,31.252016 
	C179.383606,31.672085 181.166550,31.867090 182.861771,32.387909 
	C177.227203,35.760509 180.903839,42.539410 177.281921,46.393559 
	C177.110611,46.575867 177.370880,47.585960 177.645554,47.702370 
	C182.389725,49.713085 180.340607,54.597843 182.013458,57.886478 
	C182.013458,57.886478 182.020615,57.993797 181.685425,57.970131 
	C177.615509,57.664730 174.033829,61.327209 172.962189,65.492767 
	C171.538177,71.028091 169.517166,76.409828 167.752655,81.857552 
z"/>
<path fill="#201A17" opacity="1.000000" stroke="none" 
	d="
M217.071716,84.169090 
	C216.909149,86.132957 216.591965,87.702797 216.065613,89.942093 
	C214.588547,93.606567 213.234512,96.570435 212.130310,99.624611 
	C211.925919,100.190010 212.729691,101.119896 213.068130,101.881554 
	C212.256744,102.653145 211.474854,103.459198 210.625427,104.186333 
	C209.825012,104.871521 208.154953,105.911064 208.230042,106.048080 
	C210.042114,109.355064 206.144455,110.379326 205.401245,113.307846 
	C204.086136,113.990913 202.932373,114.389175 202.021881,114.077263 
	C200.331467,113.498177 198.783066,112.504608 197.248825,111.427948 
	C197.364075,110.820175 197.406021,110.468071 197.627228,109.959686 
	C197.539871,109.475891 197.273209,109.148384 196.874161,108.496666 
	C193.535019,107.101669 190.328278,106.030884 186.800903,104.843918 
	C186.026840,104.754837 185.573410,104.781929 185.112946,104.859604 
	C185.105911,104.910202 185.208023,104.913132 185.154861,104.675034 
	C185.101700,104.436935 185.013504,103.957611 184.966171,103.650574 
	C184.371582,102.303856 183.824341,101.264175 183.277084,100.224495 
	C182.946060,97.993530 183.049545,96.050186 186.470215,95.975098 
	C186.885330,95.922256 187.031815,95.959534 187.082428,96.264725 
	C187.486252,97.060417 187.839447,97.550919 188.198059,98.330376 
	C188.775208,99.010048 189.346970,99.400764 189.943695,100.092041 
	C189.978622,100.593422 189.988541,100.794243 190.078323,101.263687 
	C190.443268,102.013512 190.728348,102.494705 191.033844,103.176331 
	C191.382599,103.314240 191.710938,103.251732 192.279205,102.987427 
	C192.723389,102.201698 192.927643,101.617767 193.363159,101.017059 
	C193.594391,101.000282 194.057358,100.974152 194.458313,100.935463 
	C195.915222,100.881439 196.971176,100.866104 198.269745,101.050438 
	C199.627380,101.039642 200.742432,100.829170 201.897339,100.964798 
	C202.280655,101.925644 202.624146,102.540405 202.967636,103.155167 
	C203.312180,102.105507 203.656723,101.055847 204.210602,99.981995 
	C204.419952,99.957794 204.838043,99.904434 204.924835,100.194168 
	C206.052933,100.087883 207.577011,100.000839 208.059387,99.247108 
	C212.011826,93.071495 215.438919,86.692978 212.973526,78.937851 
	C212.973526,78.937851 213.011887,78.975464 213.261780,79.091797 
	C214.248444,79.387520 214.985245,79.566910 215.722046,79.746292 
	C216.120392,81.089211 216.518738,82.432137 217.071716,84.169090 
M196.157257,105.635643 
	C196.855225,105.479767 197.553177,105.323891 198.251129,105.168015 
	C198.129745,104.795219 198.008347,104.422432 197.886948,104.049637 
	C197.186707,104.450241 196.486465,104.850845 196.157257,105.635643 
z"/>
<path fill="#080505" opacity="1.000000" stroke="none" 
	d="
M61.969109,126.896484 
	C62.174110,126.366127 62.379116,125.835770 63.042252,125.402748 
	C67.300789,126.392014 71.101189,127.283943 74.901588,128.175873 
	C75.002220,127.637321 75.102852,127.098770 75.203484,126.560219 
	C72.468834,125.733910 69.734192,124.907593 66.999542,124.081276 
	C68.094566,123.392731 69.189583,122.704193 70.756454,122.346428 
	C75.439156,124.036705 79.643478,125.417618 83.874817,126.710045 
	C84.173271,126.801208 84.671036,126.239838 85.076118,125.981895 
	C88.111916,125.891914 90.534256,126.659683 90.641312,130.534119 
	C88.170319,130.997406 86.031792,131.126480 83.893265,131.255539 
	C83.935097,131.628799 83.976936,132.002045 84.018776,132.375305 
	C87.017471,132.938248 90.016174,133.501175 93.014870,134.064117 
	C91.159843,138.013184 83.802048,139.489822 79.450653,136.882523 
	C77.655655,135.806976 75.709892,134.983063 73.267799,133.736725 
	C70.161949,129.467941 66.431473,128.384109 61.995117,128.652100 
	C61.985039,127.833321 61.977074,127.364906 61.969109,126.896484 
z"/>
<path fill="#15100E" opacity="1.000000" stroke="none" 
	d="
M205.010132,121.040756 
	C204.747971,120.515480 204.485809,119.990196 204.277771,118.971405 
	C205.287903,117.882423 206.243927,117.286957 207.199951,116.691483 
	C210.501266,115.811752 213.802597,114.932022 217.595337,114.296402 
	C218.335754,114.349457 218.584732,114.158386 218.833710,113.967323 
	C218.884079,113.532219 218.934433,113.097107 219.258957,112.258545 
	C219.323700,111.231598 219.114288,110.608101 218.904877,109.984604 
	C218.904877,109.984604 219.056717,109.527786 219.446014,109.323586 
	C221.359314,110.734734 223.414108,112.100571 224.311890,114.010307 
	C227.529953,120.855690 230.356384,127.885193 233.330887,134.845078 
	C230.116409,134.557449 226.901917,134.269836 223.454163,133.676804 
	C223.511856,132.598160 223.802811,131.824905 224.098206,130.649994 
	C222.817184,126.918480 221.657593,123.532722 220.210358,120.274750 
	C218.809875,117.122017 216.377899,116.637184 213.276764,117.982376 
	C210.585403,119.149818 207.770447,120.032310 205.010132,121.040756 
z"/>
<path fill="#3A2D1F" opacity="1.000000" stroke="none" 
	d="
M224.093781,131.051666 
	C223.802811,131.824905 223.511856,132.598160 223.077637,133.649200 
	C222.934372,133.927002 222.512924,134.027908 222.058014,133.864838 
	C219.289307,133.035690 216.975540,132.369614 213.748688,131.440689 
	C208.228470,134.464935 202.181610,141.275864 192.681671,133.468567 
	C192.412109,135.994705 192.200684,137.976059 191.633591,139.973145 
	C190.479050,139.134857 189.100540,138.346909 188.994217,137.413986 
	C188.718124,134.991196 189.001358,132.504669 189.061371,130.043579 
	C189.802994,129.710159 190.544617,129.376740 191.891617,129.166031 
	C198.651306,134.695877 201.030823,134.683273 207.859741,129.699097 
	C209.968582,128.159912 212.426117,127.089066 214.756012,125.864700 
	C217.314545,124.520172 218.922699,124.966309 220.090057,127.970634 
	C220.611801,129.313477 222.710663,130.043518 224.093781,131.051666 
z"/>
<path fill="#AB9C92" opacity="1.000000" stroke="none" 
	d="
M233.512604,134.982895 
	C230.356384,127.885193 227.529953,120.855690 224.311890,114.010307 
	C223.414108,112.100571 221.359314,110.734734 219.492371,109.087395 
	C218.677353,106.741776 218.205246,104.428146 217.733154,102.114525 
	C218.273285,101.856674 218.813431,101.598824 219.353577,101.340973 
	C221.902802,104.708557 224.709763,107.915276 226.936966,111.483841 
	C229.814682,116.094673 232.570679,120.847977 234.709183,125.827621 
	C235.904022,128.609924 235.742554,131.974686 235.790375,135.575165 
	C234.934082,136.036453 234.479630,135.999573 234.025192,135.962692 
	C233.987732,135.653412 233.877441,135.372742 233.512604,134.982895 
z"/>
<path fill="#3D3020" opacity="1.000000" stroke="none" 
	d="
M209.692871,40.428787 
	C210.571487,41.955185 211.207443,43.245716 211.652740,45.019260 
	C210.308090,45.332150 209.154068,45.162022 207.999725,44.996101 
	C207.999390,45.000309 208.007874,44.999397 207.824707,44.704895 
	C205.804001,43.346672 203.952515,42.306152 202.132965,41.212505 
	C200.427261,40.187286 198.755341,39.105850 197.308105,38.055054 
	C197.547668,38.060951 198.026871,38.054054 198.296997,38.165154 
	C199.162796,37.793549 199.758453,37.310852 200.354126,36.828156 
	C198.897720,36.195831 197.441299,35.563507 195.618576,34.927883 
	C194.112473,33.797108 192.972702,32.669636 191.832932,31.542162 
	C192.146637,31.038744 192.460358,30.535326 192.774063,30.031908 
	C189.515030,30.031908 186.255981,30.031908 183.117233,29.684046 
	C185.061188,28.879616 186.911484,28.500137 188.681717,27.888823 
	C188.968933,27.789640 188.901184,26.662563 188.997513,26.010605 
	C195.713745,26.512621 200.513504,30.842640 205.743530,34.983475 
	C204.383133,38.504768 206.279556,38.998619 208.483673,39.265884 
	C208.805847,39.574902 209.128021,39.883911 209.692871,40.428787 
z"/>
<path fill="#261C12" opacity="1.000000" stroke="none" 
	d="
M191.989258,139.957413 
	C192.200684,137.976059 192.412109,135.994705 192.681671,133.468567 
	C202.181610,141.275864 208.228470,134.464935 213.748688,131.440689 
	C216.975540,132.369614 219.289307,133.035690 221.846069,133.909943 
	C222.054306,134.527359 222.019562,134.936615 221.619751,135.723236 
	C220.151169,137.325958 219.047653,138.551300 217.944153,139.776657 
	C209.599670,140.169571 201.255188,140.562469 192.455383,140.704712 
	C192.000061,140.454025 191.989258,139.957413 191.989258,139.957413 
M214.468597,134.494827 
	C214.468597,134.494827 214.518555,134.474564 214.468597,134.494827 
z"/>
<path fill="#3A2D1F" opacity="1.000000" stroke="none" 
	d="
M212.642426,78.950043 
	C215.438919,86.692978 212.011826,93.071495 208.059387,99.247108 
	C207.577011,100.000839 206.052933,100.087883 204.953384,99.843460 
	C203.932648,98.437088 202.970123,97.671150 201.940643,96.656830 
	C201.245667,96.562828 200.617691,96.717224 199.592255,96.895081 
	C198.133316,96.926292 197.071793,96.934029 196.005951,96.568275 
	C195.989090,95.443649 195.976562,94.692513 196.251495,93.707947 
	C198.016983,93.291466 199.495026,93.108406 201.154175,93.107849 
	C201.894989,92.910355 202.454666,92.530373 203.417038,92.129684 
	C208.332291,91.310562 210.171143,87.706673 209.047882,81.515182 
	C209.500168,80.275917 209.940430,79.407555 210.380676,78.539200 
	C211.024216,78.680206 211.667770,78.821213 212.642426,78.950043 
z"/>
<path fill="#B3B1B1" opacity="1.000000" stroke="none" 
	d="
M200.904694,70.630524 
	C203.632782,67.978699 206.360870,65.326874 209.468353,63.102036 
	C207.894547,66.682999 205.941360,69.836975 203.889404,73.028770 
	C203.790665,73.066589 203.779129,73.336044 203.779129,73.336044 
	C203.779129,73.336044 204.007706,73.010338 204.292038,73.060043 
	C205.954971,72.932602 207.369690,72.891281 208.701294,72.537315 
	C209.864334,72.228157 210.933792,71.566986 212.044601,71.061333 
	C211.363358,73.159950 210.682114,75.258568 209.734131,77.880890 
	C208.289062,79.245201 207.110748,80.085808 205.945221,80.939262 
	C205.957993,80.952103 205.949234,80.926468 205.619080,80.941818 
	C203.994247,81.668289 202.699600,82.379410 201.091736,83.077049 
	C200.015762,83.063568 199.252975,83.063568 198.290466,83.063568 
	C200.651581,79.081802 200.651581,79.081802 198.102966,77.610077 
	C199.077240,75.049026 199.990967,72.839775 200.904694,70.630524 
z"/>
<path fill="#443625" opacity="1.000000" stroke="none" 
	d="
M163.889694,32.167656 
	C162.416397,39.498924 160.815567,46.509239 159.034821,53.832638 
	C158.137848,54.085537 157.420807,54.025349 156.352753,53.980732 
	C156.001709,53.996307 156.030258,54.017029 156.030258,54.017029 
	C155.585388,52.223160 155.140533,50.429287 154.918945,49.535740 
	C156.804749,43.768219 158.523407,38.368618 160.351288,33.006245 
	C160.922287,31.331146 161.491180,28.870173 163.889694,32.167656 
z"/>
<path fill="#232323" opacity="1.000000" stroke="none" 
	d="
M141.657959,117.999649 
	C144.225067,120.146194 146.448898,122.283768 148.554230,124.892273 
	C146.282639,127.257439 144.129532,129.151657 141.652527,130.947052 
	C136.001129,128.524734 135.688126,124.681183 138.048492,120.027245 
	C139.137222,119.348389 140.225937,118.669540 141.657959,117.999649 
z"/>
<path fill="#8C8C8B" opacity="1.000000" stroke="none" 
	d="
M203.988159,72.990952 
	C205.941360,69.836975 207.894547,66.682999 209.811584,63.168755 
	C209.775406,62.808487 209.877151,62.875332 210.003815,62.818951 
	C210.016403,62.454140 209.902328,62.145710 209.788254,61.837280 
	C211.646164,59.296413 213.504089,56.755543 215.901398,54.359665 
	C217.305084,54.696144 218.169388,54.887627 219.085846,55.428108 
	C219.432251,56.858269 219.726501,57.939426 220.009735,59.008858 
	C219.998703,58.997135 219.979141,58.971203 219.981140,59.383766 
	C219.973007,60.895103 219.962875,61.993885 219.952744,63.092663 
	C218.792038,60.897633 217.631332,58.702602 216.165436,55.930443 
	C214.919434,61.128819 213.783676,65.867279 212.346252,70.833542 
	C210.933792,71.566986 209.864334,72.228157 208.701294,72.537315 
	C207.369690,72.891281 205.954971,72.932602 204.287994,73.054749 
	C203.999619,72.999748 203.988159,72.990952 203.988159,72.990952 
z"/>
<path fill="#220F0B" opacity="1.000000" stroke="none" 
	d="
M191.633591,139.973145 
	C191.989258,139.957413 192.000061,140.454025 192.004578,140.701721 
	C191.858276,141.018387 191.592072,141.070206 191.578781,141.159622 
	C191.542480,141.404022 191.611038,141.886536 191.641068,141.886749 
	C195.917862,141.919800 200.194916,141.918243 204.473526,143.009293 
	C197.413376,143.009293 190.343338,142.788300 183.297287,143.103500 
	C179.828033,143.258667 176.421646,144.283829 173.643341,141.234894 
	C174.040192,140.929810 174.294937,140.913757 174.912170,140.851746 
	C180.127380,140.898148 180.127380,140.898148 180.896805,138.169861 
	C180.973099,137.493301 181.004913,137.223129 181.458405,136.968781 
	C186.946594,137.882370 187.304459,134.617798 187.210831,130.954117 
	C187.665283,130.709381 188.119736,130.464645 188.817780,130.131744 
	C189.001358,132.504669 188.718124,134.991196 188.994217,137.413986 
	C189.100540,138.346909 190.479050,139.134857 191.633591,139.973145 
z"/>
<path fill="#D29D79" opacity="1.000000" stroke="none" 
	d="
M127.274261,134.925598 
	C127.178169,134.505020 127.082077,134.084457 127.151230,133.176147 
	C127.439964,132.332138 127.563454,131.975845 127.716652,131.599792 
	C127.746361,131.580017 127.809280,131.613739 128.055801,131.751587 
	C128.485550,131.932816 128.668793,131.976196 129.079529,132.292175 
	C129.821625,131.911682 130.907471,130.918045 130.755173,130.662582 
	C129.959290,129.327682 128.849091,128.180161 127.848213,126.967484 
	C128.608795,126.093147 129.369370,125.218819 130.668793,124.695892 
	C133.599304,130.546539 137.909485,134.155670 143.121246,137.322784 
	C143.709641,138.148514 144.166367,138.657715 144.623093,139.166916 
	C144.202881,139.309509 143.782669,139.452087 142.879547,139.934555 
	C141.599213,140.536118 140.801788,140.797791 139.841003,140.856674 
	C139.349182,140.578354 139.020721,140.502853 138.650360,140.437149 
	C138.608444,140.446945 138.550247,140.383560 138.600189,140.010651 
	C136.657974,133.722031 131.528488,135.380325 127.274261,134.925598 
z"/>
<path fill="#B28263" opacity="1.000000" stroke="none" 
	d="
M180.852310,138.576233 
	C180.127380,140.898148 180.127380,140.898148 174.781693,140.605377 
	C174.163864,140.268417 174.039017,140.131866 173.936005,139.648193 
	C173.657822,138.496536 173.357803,137.692032 172.908234,136.660843 
	C172.384979,136.045761 172.011261,135.657379 171.637543,135.268997 
	C171.637543,135.268997 171.769897,135.097565 171.728058,134.997696 
	C172.743835,134.214478 173.801453,133.531128 175.009674,132.750473 
	C174.261337,131.149292 173.599319,129.732803 172.747559,127.910309 
	C176.408691,127.105247 179.213715,126.864182 179.628815,131.879791 
	C178.576385,134.845627 176.426636,137.520615 180.852310,138.576233 
z"/>
<path fill="#0E0907" opacity="1.000000" stroke="none" 
	d="
M142.989594,137.006256 
	C137.909485,134.155670 133.599304,130.546539 131.018814,124.775650 
	C132.987595,123.016853 135.145233,121.529694 137.675674,120.034897 
	C135.688126,124.681183 136.001129,128.524734 141.719604,131.268341 
	C143.406631,133.121658 144.702713,134.554901 145.987640,136.254028 
	C145.969284,136.697174 145.962036,136.874451 145.585007,137.026581 
	C144.473358,137.003067 143.731476,137.004669 142.989594,137.006256 
z"/>
<path fill="#4F3E2B" opacity="1.000000" stroke="none" 
	d="
M189.014801,25.671928 
	C188.901184,26.662563 188.968933,27.789640 188.681717,27.888823 
	C186.911484,28.500137 185.061188,28.879616 183.116364,30.021749 
	C182.979965,31.158909 182.964737,31.610502 182.949493,32.062096 
	C181.166550,31.867090 179.383606,31.672085 177.302338,31.246101 
	C177.001114,29.983315 176.998199,28.951504 177.000824,27.535030 
	C180.896973,25.321945 184.787582,23.493523 189.710861,21.179789 
	C189.325012,23.540781 189.178558,24.437017 189.014801,25.671928 
z"/>
<path fill="#4E3C2E" opacity="1.000000" stroke="none" 
	d="
M254.937302,141.247482 
	C254.517471,141.232300 254.097626,141.217117 253.096390,141.057663 
	C251.903946,140.363892 251.230759,139.286011 250.691803,139.349396 
	C246.763748,139.811356 242.862671,140.502808 238.953079,141.121765 
	C238.953079,141.121750 238.981064,141.051895 239.084625,140.669250 
	C241.815430,138.494492 244.442673,136.702393 247.069901,134.910294 
	C250.844284,135.779694 254.618683,136.649094 258.699158,138.147446 
	C257.649292,139.600082 256.293274,140.423782 254.937302,141.247482 
M248.522324,137.571762 
	C248.522324,137.571762 248.480713,137.494080 248.522324,137.571762 
z"/>
<path fill="#B9B9B9" opacity="1.000000" stroke="none" 
	d="
M187.015717,94.086121 
	C183.984497,93.707977 180.953262,93.329834 177.570831,92.586143 
	C178.113373,91.798279 179.007126,91.375961 180.261627,90.951843 
	C184.413193,91.342163 184.320969,88.325142 185.317505,85.979919 
	C186.082962,85.984627 186.520309,85.985367 187.132904,86.167160 
	C187.876480,86.225441 188.444794,86.102661 189.010956,85.993271 
	C189.008789,86.006660 188.981979,86.003502 189.340958,85.958717 
	C192.663422,84.722855 194.349762,85.354164 193.766068,89.193100 
	C191.556671,90.996300 189.564026,92.521805 187.427246,93.982353 
	C187.283127,93.917404 187.015717,94.086113 187.015717,94.086121 
z"/>
<path fill="#300102" opacity="1.000000" stroke="none" 
	d="
M61.997234,129.002441 
	C66.431473,128.384109 70.161949,129.467941 72.898293,133.721497 
	C68.984802,134.116455 64.875931,134.218674 60.348969,133.857605 
	C59.635330,132.874649 59.339767,132.354996 59.044205,131.835327 
	C59.203712,131.064606 59.363224,130.293869 60.060616,129.292908 
	C61.064743,129.042603 61.530987,129.022522 61.997234,129.002441 
z"/>
<path fill="#898A8A" opacity="1.000000" stroke="none" 
	d="
M179.900864,90.953644 
	C179.007126,91.375961 178.113373,91.798279 177.139908,92.525406 
	C172.576569,94.473564 170.705765,91.108154 168.194168,88.205467 
	C169.668320,83.913338 173.214020,86.543991 176.593384,85.828041 
	C177.501862,85.439117 177.738464,85.173103 177.975082,84.907089 
	C177.975082,84.907089 177.976273,84.978226 178.341156,85.063339 
	C179.790863,85.137878 180.875687,85.127319 181.900665,85.422935 
	C181.895035,87.730865 176.995102,87.893074 179.900864,90.953644 
z"/>
<path fill="#ABACAB" opacity="1.000000" stroke="none" 
	d="
M220.070999,63.401226 
	C219.962875,61.993885 219.973007,60.895103 220.231232,59.472511 
	C220.825073,58.578907 221.170837,58.009121 221.516602,57.439331 
	C221.131546,57.258926 220.746490,57.078522 220.361435,56.898117 
	C220.247879,57.605606 220.134323,58.313095 220.020767,59.020584 
	C219.726501,57.939426 219.432251,56.858269 219.169189,55.126274 
	C219.465179,54.152821 219.729980,53.830200 220.302872,53.662079 
	C221.027115,54.007450 221.443268,54.198322 222.039185,54.656872 
	C223.790497,57.287025 225.362061,59.649506 226.933624,62.011982 
	C226.933624,64.106033 226.933624,66.200089 226.933624,68.294136 
	C226.475662,68.411659 226.017700,68.529175 225.559738,68.646698 
	C223.769577,67.001060 221.979416,65.355423 220.070999,63.401226 
z"/>
<path fill="#1B1A1A" opacity="1.000000" stroke="none" 
	d="
M227.331467,61.993301 
	C225.362061,59.649506 223.790497,57.287025 222.070068,54.267242 
	C221.942978,53.089920 221.964767,52.569904 221.986557,52.049889 
	C224.637360,53.173946 227.451187,54.033684 229.873627,55.527966 
	C231.183746,56.336124 231.825592,58.227654 232.768906,59.630447 
	C231.089035,60.411835 229.409180,61.193222 227.331467,61.993301 
z"/>
<path fill="#0F100F" opacity="1.000000" stroke="none" 
	d="
M30.777786,119.259644 
	C32.633854,123.424789 34.253872,127.846207 35.946476,132.612183 
	C27.819878,132.819809 25.636320,129.042633 29.537310,121.770134 
	C29.925114,121.047165 30.209406,120.268654 30.777786,119.259644 
z"/>
<path fill="#34271F" opacity="1.000000" stroke="none" 
	d="
M246.935883,134.623123 
	C244.442673,136.702393 241.815430,138.494492 239.097565,140.633911 
	C238.830826,141.001129 238.654739,141.021027 238.210632,140.669159 
	C237.626862,138.893631 237.311081,137.489868 236.995300,136.086121 
	C237.907700,134.463791 238.820114,132.841461 239.724960,131.232605 
	C241.485703,131.861160 243.194534,132.471191 245.264984,132.980865 
	C246.018356,133.365662 246.410110,133.850800 246.935883,134.623123 
z"/>
<path fill="#171717" opacity="1.000000" stroke="none" 
	d="
M156.993362,136.694717 
	C155.159424,137.400375 153.393265,137.794128 151.627106,138.187897 
	C152.164948,135.336136 152.702789,132.484375 153.240616,129.632629 
	C153.887863,129.519592 154.535095,129.406570 155.182343,129.293549 
	C156.407379,130.631546 157.632416,131.969543 158.908081,133.634293 
	C158.326187,134.768295 157.693680,135.575562 156.993362,136.694717 
z"/>
<path fill="#1B1A1A" opacity="1.000000" stroke="none" 
	d="
M219.994781,53.507576 
	C219.729980,53.830200 219.465179,54.152821 219.117035,54.777275 
	C218.169388,54.887627 217.305084,54.696144 216.222198,54.251259 
	C215.966293,52.528625 215.950272,51.058475 215.886444,49.590401 
	C215.798538,47.569180 215.674515,45.549522 215.771744,43.285507 
	C219.238220,43.853130 220.759918,46.044064 220.735641,49.897541 
	C220.351654,51.500294 220.173218,52.503933 219.994781,53.507576 
z"/>
<path fill="#282015" opacity="1.000000" stroke="none" 
	d="
M162.923920,73.942757 
	C162.596481,75.755875 162.269028,77.568993 161.910126,79.765022 
	C157.424500,77.987915 156.952423,73.976273 157.080902,69.284103 
	C158.853867,69.578415 160.571579,70.299683 162.628479,71.436005 
	C162.953079,72.548279 162.938492,73.245522 162.923920,73.942757 
z"/>
<path fill="#1B1A1A" opacity="1.000000" stroke="none" 
	d="
M93.296921,134.094147 
	C90.016174,133.501175 87.017471,132.938248 84.018776,132.375305 
	C83.976936,132.002045 83.935097,131.628799 83.893265,131.255539 
	C86.031792,131.126480 88.170319,130.997406 90.664146,130.902954 
	C92.436081,131.282608 93.852722,131.627625 95.634918,132.000702 
	C97.407188,132.601303 98.813904,133.173859 100.220612,133.746399 
	C100.220726,134.045837 100.220848,134.345276 100.220963,134.644699 
	C98.750580,134.749939 97.280205,134.855179 95.418480,134.953461 
	C94.544418,134.672394 94.061691,134.398285 93.296921,134.094147 
z"/>
<path fill="#171717" opacity="1.000000" stroke="none" 
	d="
M112.478836,129.025269 
	C108.266388,132.326859 103.130829,132.523712 97.415878,131.161453 
	C102.038452,130.335983 107.029922,129.673080 112.478836,129.025269 
z"/>
<path fill="#B4A69E" opacity="1.000000" stroke="none" 
	d="
M180.814301,110.909424 
	C179.566925,109.878220 178.319550,108.847023 177.166016,107.893387 
	C178.464569,105.951279 179.412796,104.533134 180.998657,102.985275 
	C182.428268,103.258202 183.220245,103.660843 184.178207,104.247871 
	C184.598633,104.652756 184.886566,104.813049 185.208023,104.913132 
	C185.208023,104.913132 185.105911,104.910202 185.080414,105.280067 
	C185.012238,106.491600 184.969543,107.333267 184.575607,108.133766 
	C183.087662,109.031540 181.950989,109.970482 180.814301,110.909424 
z"/>
<path fill="#1B1A1A" opacity="1.000000" stroke="none" 
	d="
M84.777367,125.815109 
	C84.671036,126.239838 84.173271,126.801208 83.874817,126.710045 
	C79.643478,125.417618 75.439156,124.036705 71.127609,122.344872 
	C74.233986,118.964722 77.207809,120.143791 80.158875,122.474617 
	C81.560181,123.581406 83.036354,124.593384 84.777367,125.815109 
z"/>
<path fill="#3C3C3D" opacity="1.000000" stroke="none" 
	d="
M54.959557,111.700340 
	C54.810825,114.162682 55.328209,117.510010 51.461494,116.305695 
	C50.105171,115.883255 49.373692,113.454620 48.356888,111.942078 
	C50.018726,111.586716 51.680569,111.231361 53.708511,110.908798 
	C54.345455,111.101463 54.589230,111.295380 54.959557,111.700340 
z"/>
<path fill="#15100E" opacity="1.000000" stroke="none" 
	d="
M239.119919,141.469101 
	C242.862671,140.502808 246.763748,139.811356 250.691803,139.349396 
	C251.230759,139.286011 251.903946,140.363892 252.781677,141.075653 
	C248.586090,144.402802 243.948669,143.400909 239.119919,141.469101 
z"/>
<path fill="#8A7872" opacity="1.000000" stroke="none" 
	d="
M232.191010,102.460022 
	C226.481461,102.474228 225.524994,100.990250 227.547607,94.848854 
	C229.201904,97.025322 230.666946,99.569611 232.191010,102.460022 
z"/>
<path fill="#300102" opacity="1.000000" stroke="none" 
	d="
M162.485168,134.944717 
	C162.669998,133.135483 163.273804,131.331528 163.877594,129.527573 
	C165.233704,131.096573 166.589828,132.665573 167.945374,134.593140 
	C166.264587,134.951141 164.584351,134.950577 162.485168,134.944717 
z"/>
<path fill="#443625" opacity="1.000000" stroke="none" 
	d="
M158.315765,57.351219 
	C160.915787,56.311214 163.131439,55.997982 163.434387,59.694672 
	C159.189667,59.517887 158.764404,61.994728 158.993958,65.017227 
	C158.593124,65.028633 158.192291,65.040039 157.492554,65.065475 
	C157.505585,62.597542 157.817520,60.115589 158.315765,57.351219 
z"/>
<path fill="#1B1A1A" opacity="1.000000" stroke="none" 
	d="
M66.601006,124.068726 
	C69.734192,124.907593 72.468834,125.733910 75.203484,126.560219 
	C75.102852,127.098770 75.002220,127.637321 74.901588,128.175873 
	C71.101189,127.283943 67.300789,126.392014 63.259102,125.211227 
	C63.017815,124.922371 63.017715,124.541191 63.019905,124.352554 
	C64.082214,124.127998 65.142342,124.092087 66.601006,124.068726 
z"/>
<path fill="#34271F" opacity="1.000000" stroke="none" 
	d="
M187.509186,118.496552 
	C186.205139,117.070053 184.901108,115.643555 183.248062,114.111198 
	C182.867783,113.258232 182.836502,112.511139 183.162766,111.376602 
	C184.024963,110.992950 184.529602,110.996727 185.336243,111.163574 
	C187.755112,113.573471 189.871994,115.820320 191.988892,118.067162 
	C192.001007,118.541931 192.013123,119.016708 191.920288,119.819580 
	C191.815353,120.147682 191.598923,120.087402 191.342453,119.881744 
	C189.893723,119.282906 188.701447,118.889732 187.509186,118.496552 
z"/>
<path fill="#271D18" opacity="1.000000" stroke="none" 
	d="
M127.473206,126.968719 
	C128.849091,128.180161 129.959290,129.327682 130.755173,130.662582 
	C130.907471,130.918045 129.821625,131.911682 129.055862,132.095123 
	C128.472916,131.621582 128.141098,131.617645 127.809280,131.613739 
	C127.809280,131.613739 127.746361,131.580017 127.364487,131.621185 
	C126.522980,131.765610 126.063332,131.868866 125.603683,131.972137 
	C125.104797,130.560654 124.605919,129.149170 124.113586,127.412933 
	C125.112816,127.048759 126.105507,127.009361 127.473206,126.968719 
z"/>
<path fill="#261C12" opacity="1.000000" stroke="none" 
	d="
M140.004349,141.059479 
	C140.801788,140.797791 141.599213,140.536118 142.739288,140.242188 
	C143.249512,140.694321 143.417084,141.178665 143.766693,141.844940 
	C140.526871,141.833496 137.105026,141.640121 133.410858,141.212708 
	C133.670242,140.573471 134.201965,140.168259 135.428772,139.560547 
	C136.932648,139.699875 137.741440,140.041718 138.550247,140.383560 
	C138.550247,140.383560 138.608444,140.446945 138.808380,140.644958 
	C139.340317,140.915131 139.672333,140.987305 140.004349,141.059479 
z"/>
<path fill="#15100E" opacity="1.000000" stroke="none" 
	d="
M255.087494,141.555542 
	C256.293274,140.423782 257.649292,139.600082 259.002197,138.389114 
	C259.816345,138.862732 261.487000,140.207718 261.316498,140.508270 
	C259.885498,143.031021 257.825348,143.946533 255.087494,141.555542 
z"/>
<path fill="#15100E" opacity="1.000000" stroke="none" 
	d="
M218.171997,140.011612 
	C219.047653,138.551300 220.151169,137.325958 221.592194,136.030853 
	C221.918716,138.349701 222.080902,140.880951 218.171997,140.011612 
z"/>
<path fill="#15100E" opacity="1.000000" stroke="none" 
	d="
M236.751709,136.025955 
	C237.311081,137.489868 237.626862,138.893631 237.944946,140.661346 
	C236.554977,139.528625 235.162704,138.031937 233.897797,136.248962 
	C234.479630,135.999573 234.934082,136.036453 235.707397,135.949539 
	C236.186905,135.872421 236.347519,135.919113 236.751709,136.025955 
z"/>
<path fill="#1D1917" opacity="1.000000" stroke="none" 
	d="
M208.603302,38.903992 
	C206.279556,38.998619 204.383133,38.504768 205.923584,35.275131 
	C206.955078,36.155003 207.839005,37.348549 208.603302,38.903992 
z"/>
<path fill="#8A7872" opacity="1.000000" stroke="none" 
	d="
M235.087631,107.589294 
	C234.050446,107.916794 232.995163,107.916794 231.453217,107.916794 
	C232.023163,106.498749 232.403030,105.553627 232.896942,104.310074 
	C233.697159,105.095032 234.383347,106.178413 235.087631,107.589294 
z"/>
<path fill="#252525" opacity="1.000000" stroke="none" 
	d="
M205.932434,80.926422 
	C207.110748,80.085808 208.289062,79.245201 209.768661,78.266785 
	C210.069946,78.128983 210.272125,78.302849 210.326401,78.421021 
	C209.940430,79.407555 209.500168,80.275917 208.720642,81.488953 
	C207.565063,81.531219 206.748749,81.228821 205.932434,80.926422 
z"/>
<path fill="#251F1C" opacity="1.000000" stroke="none" 
	d="
M184.012207,104.063484 
	C183.220245,103.660843 182.428268,103.258202 181.292603,102.815414 
	C181.516785,101.978561 182.084686,101.181847 182.964828,100.304817 
	C183.824341,101.264175 184.371582,102.303856 184.714920,103.668335 
	C184.344742,104.016586 184.178482,104.040039 184.012207,104.063484 
z"/>
<path fill="#15100E" opacity="1.000000" stroke="none" 
	d="
M185.034256,111.000511 
	C184.529602,110.996727 184.024963,110.992950 183.137924,111.003571 
	C182.324066,111.008377 181.892578,110.998772 181.137695,110.949295 
	C181.950989,109.970482 183.087662,109.031540 184.594284,108.486755 
	C184.987564,109.587440 185.010910,110.293976 185.034256,111.000511 
z"/>
<path fill="#A87555" opacity="1.000000" stroke="none" 
	d="
M186.976318,94.415672 
	C187.015717,94.086113 187.283127,93.917404 187.838760,93.992004 
	C189.579941,94.346306 190.765472,94.626007 191.733902,94.998230 
	C191.249329,95.268120 191.034744,95.495415 190.489700,95.815353 
	C189.081512,95.891899 188.056656,95.925720 187.031815,95.959534 
	C187.031815,95.959534 186.885330,95.922256 186.850418,95.989441 
	C186.855988,95.619492 186.896454,95.182365 186.976318,94.415672 
z"/>
<path fill="#56442F" opacity="1.000000" stroke="none" 
	d="
M215.744370,79.441223 
	C214.985245,79.566910 214.248444,79.387520 213.236328,79.100418 
	C213.121262,78.409096 213.281525,77.825485 213.977783,77.120331 
	C214.903915,77.096046 215.294052,77.193306 215.684189,77.290565 
	C215.711700,77.905762 215.739212,78.520966 215.744370,79.441223 
z"/>
<path fill="#080505" opacity="1.000000" stroke="none" 
	d="
M60.453308,122.033142 
	C60.114578,121.578224 60.073814,121.124596 60.044273,120.329498 
	C61.256020,120.357620 62.456543,120.727234 63.657066,121.096840 
	C63.581402,121.409378 63.505733,121.721909 63.430069,122.034447 
	C62.537136,122.034447 61.644207,122.034447 60.453308,122.033142 
z"/>
<path fill="#1D1917" opacity="1.000000" stroke="none" 
	d="
M220.302856,53.662079 
	C220.173218,52.503933 220.351654,51.500294 220.732788,50.268074 
	C221.251587,50.516064 221.567688,50.992630 221.935181,51.759544 
	C221.964767,52.569904 221.942978,53.089920 221.890320,53.999565 
	C221.443268,54.198322 221.027115,54.007450 220.302856,53.662079 
z"/>
<path fill="#0E0907" opacity="1.000000" stroke="none" 
	d="
M171.431152,135.556274 
	C172.011261,135.657379 172.384979,136.045761 172.888184,137.016479 
	C173.001801,138.073685 172.985886,138.548553 172.969971,139.023438 
	C172.388245,137.963470 171.806519,136.903519 171.431152,135.556274 
z"/>
<path fill="#080505" opacity="1.000000" stroke="none" 
	d="
M58.743073,131.946716 
	C59.339767,132.354996 59.635330,132.874649 59.972275,133.693970 
	C59.249748,133.991867 58.485832,133.990143 57.339176,133.978912 
	C57.451603,133.332306 57.946770,132.695221 58.743073,131.946716 
z"/>
<path fill="#201A17" opacity="1.000000" stroke="none" 
	d="
M215.765945,76.984955 
	C215.294052,77.193306 214.903915,77.096046 214.218277,76.928909 
	C214.444336,76.227776 214.965912,75.596512 215.487488,74.965256 
	C215.607559,75.536621 215.727631,76.107979 215.765945,76.984955 
z"/>
<path fill="#B1A29A" opacity="1.000000" stroke="none" 
	d="
M221.214874,85.514641 
	C220.407700,85.493790 219.425217,85.165260 218.236542,84.588120 
	C219.033432,84.628670 220.036514,84.917816 221.214874,85.514641 
z"/>
<path fill="#1A1513" opacity="1.000000" stroke="none" 
	d="
M164.954956,82.480682 
	C165.343521,82.151405 165.821426,82.079948 166.660492,81.980095 
	C166.847031,82.483574 166.672440,83.015442 166.305511,83.749680 
	C165.756882,83.547523 165.400604,83.143013 164.954956,82.480682 
z"/>
<path fill="#220F0B" opacity="1.000000" stroke="none" 
	d="
M172.977951,139.267029 
	C172.985886,138.548553 173.001801,138.073685 173.037750,137.243164 
	C173.357803,137.692032 173.657822,138.496536 173.707764,139.651337 
	C173.457687,140.001633 173.000946,139.997849 173.000946,139.997849 
	C173.000946,139.997849 172.985931,139.510635 172.977951,139.267029 
z"/>
<path fill="#0E0907" opacity="1.000000" stroke="none" 
	d="
M173.003265,140.252930 
	C173.000946,139.997849 173.457687,140.001633 173.685928,139.998474 
	C174.039017,140.131866 174.163864,140.268417 174.419189,140.651337 
	C174.294937,140.913757 174.040192,140.929810 173.404602,140.981873 
	C173.017731,140.847916 173.011673,140.677963 173.003265,140.252930 
z"/>
<path fill="#443625" opacity="1.000000" stroke="none" 
	d="
M155.990952,53.982273 
	C155.980194,53.968239 155.844284,54.284874 155.844284,54.284874 
	C155.844284,54.284874 155.863541,54.094467 155.946899,54.055748 
	C156.030258,54.017029 156.001709,53.996307 155.990952,53.982273 
z"/>
<path fill="#B8A8A0" opacity="1.000000" stroke="none" 
	d="
M185.336243,111.163574 
	C185.010910,110.293976 184.987564,109.587440 184.945541,108.527924 
	C184.969543,107.333267 185.012238,106.491600 185.087433,105.229477 
	C185.573410,104.781929 186.026840,104.754837 186.892471,105.182602 
	C190.538620,106.698601 193.772598,107.759735 197.006561,108.820869 
	C197.273209,109.148384 197.539871,109.475891 197.332687,110.045914 
	C196.449982,110.881966 196.041122,111.475510 195.632263,112.069046 
	C196.146683,111.940575 196.661102,111.812103 197.175522,111.683624 
	C198.783066,112.504608 200.331467,113.498177 202.021881,114.077263 
	C202.932373,114.389175 204.086136,113.990913 205.398407,113.662674 
	C206.068634,114.224312 206.470581,115.036362 207.036240,116.269943 
	C206.243927,117.286957 205.287903,117.882423 204.157440,118.703590 
	C200.044464,121.176498 196.212830,121.828445 192.329407,118.119225 
	C189.871994,115.820320 187.755112,113.573471 185.336243,111.163574 
z"/>
<path fill="#B1A29A" opacity="1.000000" stroke="none" 
	d="
M213.335724,101.679230 
	C212.729691,101.119896 211.925919,100.190010 212.130310,99.624611 
	C213.234512,96.570435 214.588547,93.606567 216.051590,90.289551 
	C217.069595,90.570602 218.682098,91.542213 218.598160,91.722046 
	C217.054199,95.030136 215.307297,98.243500 213.335724,101.679230 
z"/>
<path fill="#AB9C92" opacity="1.000000" stroke="none" 
	d="
M218.646164,110.050781 
	C219.114288,110.608101 219.323700,111.231598 219.270325,111.928284 
	C218.800827,111.373314 218.594131,110.745140 218.646164,110.050781 
z"/>
<path fill="#AB9C92" opacity="1.000000" stroke="none" 
	d="
M218.599304,113.968163 
	C218.584732,114.158386 218.335754,114.349457 217.995148,114.296494 
	C217.903519,114.052467 218.364883,113.969002 218.599304,113.968163 
z"/>
<path fill="#15100E" opacity="1.000000" stroke="none" 
	d="
M170.759171,125.020966 
	C171.129257,127.152565 171.223846,129.072723 171.311707,130.992828 
	C165.913925,127.678238 164.435150,124.152122 167.490616,121.059578 
	C168.700256,122.256279 169.591965,123.532906 170.759171,125.020966 
z"/>
<path fill="#282015" opacity="1.000000" stroke="none" 
	d="
M159.547180,122.990509 
	C159.846878,124.520760 159.714874,126.059227 159.582870,127.597687 
	C158.858719,128.094345 158.134583,128.591003 157.410431,129.087662 
	C156.317963,127.311760 155.225479,125.535858 154.014130,123.449913 
	C155.635330,123.092819 157.375397,123.045769 159.547180,122.990509 
z"/>
<path fill="#2C231A" opacity="1.000000" stroke="none" 
	d="
M163.999252,115.599045 
	C163.263672,116.027000 162.540298,116.039413 161.458389,116.082260 
	C161.525238,113.993683 161.950623,111.874664 162.376007,109.755653 
	C162.815674,109.777206 163.255341,109.798759 163.695007,109.820320 
	C163.800491,111.608047 163.905975,113.395782 163.999252,115.599045 
z"/>
<path fill="#15100E" opacity="1.000000" stroke="none" 
	d="
M183.041412,118.354309 
	C183.942795,118.819397 184.838242,119.645973 185.868805,120.770531 
	C185.014450,120.284279 184.024948,119.500038 183.041412,118.354309 
z"/>
<path fill="#15100E" opacity="1.000000" stroke="none" 
	d="
M181.841797,125.786453 
	C181.448334,126.074120 180.880402,126.196289 180.145020,126.128036 
	C180.540817,125.832054 181.104080,125.726501 181.841797,125.786453 
z"/>
<path fill="#443627" opacity="1.000000" stroke="none" 
	d="
M224.098206,130.649994 
	C222.710663,130.043518 220.611801,129.313477 220.090057,127.970634 
	C218.922699,124.966309 217.314545,124.520172 214.756012,125.864700 
	C212.426117,127.089066 209.968582,128.159912 207.859741,129.699097 
	C201.030823,134.683273 198.651306,134.695877 192.193787,129.119965 
	C192.032166,128.314865 192.173752,127.678528 192.460098,126.672623 
	C192.604858,126.303070 192.890564,126.233955 192.890564,126.233948 
	C196.733047,124.623024 200.575516,123.012093 204.714066,121.220963 
	C207.770447,120.032310 210.585403,119.149818 213.276764,117.982376 
	C216.377899,116.637184 218.809875,117.122017 220.210358,120.274750 
	C221.657593,123.532722 222.817184,126.918480 224.098206,130.649994 
z"/>
<path fill="#131213" opacity="1.000000" stroke="none" 
	d="
M145.998779,135.988129 
	C144.702713,134.554901 143.406631,133.121658 142.043488,131.367157 
	C144.129532,129.151657 146.282639,127.257439 148.720276,125.181488 
	C152.679321,125.874695 153.498535,127.722054 151.126694,130.852234 
	C150.058792,132.261551 149.231354,133.853058 147.813156,135.678787 
	C146.887253,135.993149 146.443024,135.990631 145.998779,135.988129 
z"/>
<path fill="#443627" opacity="1.000000" stroke="none" 
	d="
M186.994690,130.697357 
	C187.304459,134.617798 186.946594,137.882370 181.464935,136.607300 
	C181.364441,134.818924 181.679092,133.407913 181.993744,131.996887 
	C183.224533,130.358582 184.128586,127.715744 186.994690,130.697357 
z"/>
<path fill="#15100E" opacity="1.000000" stroke="none" 
	d="
M181.633240,132.000122 
	C181.679092,133.407913 181.364441,134.818924 181.043274,136.591446 
	C181.004913,137.223129 180.973099,137.493301 180.896805,138.169861 
	C176.426636,137.520615 178.576385,134.845627 179.594055,132.257233 
	C180.311127,132.005661 180.791916,132.004517 181.633240,132.000122 
z"/>
<path fill="#8A7872" opacity="1.000000" stroke="none" 
	d="
M187.610962,118.770439 
	C188.701447,118.889732 189.893723,119.282906 191.254333,120.201530 
	C191.306534,121.152306 191.190384,121.577637 191.074249,122.002968 
	C189.953751,121.016754 188.833252,120.030540 187.610962,118.770439 
z"/>
<path fill="#000000" opacity="1.000000" stroke="none" 
	d="
M145.987640,136.254028 
	C146.443024,135.990631 146.887253,135.993149 147.664490,135.985046 
	C147.556717,136.974884 147.115952,137.975311 146.351471,138.662750 
	C146.003418,137.917068 145.979095,137.484390 145.954773,137.051712 
	C145.962036,136.874451 145.969284,136.697174 145.987640,136.254028 
z"/>
<path fill="#15100E" opacity="1.000000" stroke="none" 
	d="
M192.915131,125.910240 
	C192.890564,126.233955 192.604858,126.303070 192.466614,126.345871 
	C192.035660,125.551537 191.742935,124.714409 191.450211,123.877274 
	C191.727844,123.796272 192.005478,123.715279 192.283112,123.634277 
	C192.501968,124.285027 192.720825,124.935776 192.915131,125.910240 
z"/>
<path fill="#261C12" opacity="1.000000" stroke="none" 
	d="
M145.585007,137.026581 
	C145.979095,137.484390 146.003418,137.917068 146.035370,138.675262 
	C145.725739,139.027817 145.410202,139.068466 144.859756,139.144806 
	C144.166367,138.657715 143.709641,138.148514 143.121246,137.322800 
	C143.731476,137.004669 144.473358,137.003067 145.585007,137.026581 
z"/>
<path fill="#15100E" opacity="1.000000" stroke="none" 
	d="
M191.267822,121.822372 
	C191.190384,121.577637 191.306534,121.152306 191.510803,120.407196 
	C191.598923,120.087402 191.815353,120.147682 191.924881,120.175758 
	C191.843414,120.683144 191.652405,121.162460 191.267822,121.822372 
z"/>
<path fill="#443625" opacity="1.000000" stroke="none" 
	d="
M163.098633,74.230034 
	C162.938492,73.245522 162.953079,72.548279 162.977936,71.505966 
	C163.582550,70.165428 164.176880,69.169960 164.771210,68.174492 
	C165.800156,69.216080 166.829117,70.257668 167.650635,71.720596 
	C167.619949,72.756508 167.796707,73.371063 167.973465,73.985619 
	C168.137772,74.258469 168.342346,74.496735 168.784393,74.829460 
	C166.675064,80.035919 165.011780,76.790550 163.098633,74.230034 
z"/>
<path fill="#3F3223" opacity="1.000000" stroke="none" 
	d="
M159.259155,65.246155 
	C158.764404,61.994728 159.189667,59.517887 163.578903,60.004265 
	C165.271408,64.583633 164.419525,65.628067 159.259155,65.246155 
z"/>
<path fill="#4F3E2B" opacity="1.000000" stroke="none" 
	d="
M172.578995,36.968765 
	C172.359100,39.091465 171.793198,41.244667 171.041641,43.729858 
	C168.930206,41.242683 167.666702,38.552647 172.578995,36.968765 
z"/>
<path fill="#4F3E2B" opacity="1.000000" stroke="none" 
	d="
M174.708618,31.087158 
	C174.534134,32.243713 174.027298,33.444614 173.224854,34.818146 
	C173.411575,33.704353 173.893906,32.417927 174.708618,31.087158 
z"/>
<path fill="#3A2D1F" opacity="1.000000" stroke="none" 
	d="
M167.979080,73.658630 
	C167.796707,73.371063 167.619949,72.756508 167.697906,72.083252 
	C167.963303,72.460258 167.973999,72.895958 167.979080,73.658630 
z"/>
<path fill="#000000" opacity="1.000000" stroke="none" 
	d="
M61.995117,128.652100 
	C61.530987,129.022522 61.064743,129.042603 60.246162,129.059601 
	C60.382088,128.400894 60.870342,127.745270 61.663853,126.993057 
	C61.977074,127.364906 61.985039,127.833321 61.995117,128.652100 
z"/>
<path fill="#56442F" opacity="1.000000" stroke="none" 
	d="
M182.861755,32.387909 
	C182.964737,31.610502 182.979965,31.158909 182.996063,30.369612 
	C186.255981,30.031908 189.515030,30.031908 192.774063,30.031908 
	C192.460358,30.535326 192.146637,31.038744 191.832932,31.542162 
	C192.972702,32.669636 194.112473,33.797108 195.814301,35.180401 
	C196.926498,36.308834 197.476685,37.181446 198.026871,38.054054 
	C198.026871,38.054054 197.547668,38.060951 196.873962,38.039745 
	C193.460541,38.353298 190.720825,38.688057 187.716812,39.086205 
	C187.980835,40.083298 188.509171,41.017002 188.723663,42.011726 
	C187.209854,44.630878 186.009872,47.189018 184.753571,49.867222 
	C187.335892,50.333950 189.167435,50.664982 191.188797,51.285034 
	C192.804901,52.331764 194.232803,53.086430 195.656998,53.848038 
	C197.068573,54.602905 198.476410,55.364750 199.885895,56.123531 
	C199.741028,56.402363 199.596161,56.681194 199.451309,56.960022 
	C196.944946,56.451317 194.438583,55.942612 191.932220,55.433903 
	C191.882324,55.716515 191.832428,55.999126 191.782532,56.281738 
	C193.230911,57.170948 194.679276,58.060158 196.920761,59.436287 
	C194.947784,59.782398 193.899582,59.966282 192.851364,60.150169 
	C189.502762,59.433685 186.154160,58.717201 182.409515,57.943596 
	C180.340607,54.597843 182.389725,49.713085 177.645554,47.702370 
	C177.370880,47.585960 177.110611,46.575867 177.281921,46.393559 
	C180.903839,42.539410 177.227203,35.760509 182.861755,32.387909 
z"/>
<path fill="#B67F5D" opacity="1.000000" stroke="none" 
	d="
M182.162384,61.412292 
	C188.191635,62.973217 194.220886,64.534142 200.943237,66.274506 
	C199.337173,67.655762 198.030029,68.779930 196.161774,69.721039 
	C185.363327,65.388992 183.416718,66.637985 182.869202,77.708580 
	C182.861145,77.871773 182.877579,78.036186 182.882584,78.200027 
	C182.882584,78.200027 182.652863,78.267891 182.223785,78.149902 
	C179.236740,77.621849 176.411758,76.646492 175.995590,80.770996 
	C175.995590,80.770996 175.969879,81.103592 175.665314,81.293274 
	C175.214447,81.574615 175.068130,81.666290 174.921799,81.757957 
	C174.481964,81.805977 174.042130,81.854004 172.959442,81.959091 
	C172.059921,81.415138 171.440857,80.681877 171.604233,80.234154 
	C172.842773,76.840050 174.223022,73.497093 175.602692,70.156197 
	C175.702698,69.914032 176.145905,69.813591 176.409988,69.658730 
	C176.881393,70.779320 177.350845,71.895287 177.890472,73.178070 
	C179.455551,68.867485 180.808975,65.139885 182.162384,61.412292 
z"/>
<path fill="#443423" opacity="1.000000" stroke="none" 
	d="
M193.016327,60.480007 
	C193.899582,59.966282 194.947784,59.782398 196.920761,59.436287 
	C194.679276,58.060158 193.230911,57.170948 191.782532,56.281738 
	C191.832428,55.999126 191.882324,55.716515 191.932220,55.433903 
	C194.438583,55.942612 196.944946,56.451317 199.451309,56.960022 
	C199.596161,56.681194 199.741028,56.402363 199.885895,56.123531 
	C198.476410,55.364750 197.068573,54.602905 195.656998,53.848038 
	C194.232803,53.086430 192.804901,52.331764 191.518951,51.192181 
	C193.505447,47.646107 196.322128,48.569378 199.358047,49.200935 
	C203.098663,50.234444 206.517044,51.125843 210.233124,52.017708 
	C210.729279,52.020813 210.927734,52.023453 211.126190,52.026093 
	C209.940521,54.228470 208.754852,56.430851 206.878601,58.809021 
	C203.651993,59.654644 198.948090,55.149780 198.999741,61.996277 
	C197.060257,61.600803 195.120758,61.205326 193.016327,60.480007 
z"/>
<path fill="#1A1513" opacity="1.000000" stroke="none" 
	d="
M182.129089,60.997974 
	C180.808975,65.139885 179.455551,68.867485 177.890472,73.178070 
	C177.350845,71.895287 176.881393,70.779320 176.409988,69.658730 
	C176.145905,69.813591 175.702698,69.914032 175.602692,70.156197 
	C174.223022,73.497093 172.842773,76.840050 171.604233,80.234154 
	C171.440857,80.681877 172.059921,81.415138 172.654602,82.095047 
	C171.455612,82.174675 169.918640,82.175423 168.067154,82.016861 
	C169.517166,76.409828 171.538177,71.028091 172.962189,65.492767 
	C174.033829,61.327209 177.615509,57.664730 181.681976,58.023800 
	C182.041077,58.928638 182.068436,59.756149 182.129089,60.997974 
z"/>
<path fill="#D7A380" opacity="1.000000" stroke="none" 
	d="
M183.229874,78.079041 
	C182.877579,78.036186 182.861145,77.871773 182.869202,77.708580 
	C183.416718,66.637985 185.363327,65.388992 195.843475,69.825348 
	C191.916595,72.727837 187.746887,75.342949 183.229874,78.079041 
z"/>
<path fill="#C7C8C8" opacity="1.000000" stroke="none" 
	d="
M181.960510,85.116760 
	C180.875687,85.127319 179.790863,85.137878 178.312195,85.042679 
	C185.365646,80.261864 192.812973,75.586807 200.582489,70.771133 
	C199.990967,72.839775 199.077240,75.049026 197.780487,77.667465 
	C196.582352,78.375099 195.767242,78.673553 194.847839,78.861420 
	C194.429871,78.625504 194.177017,78.718536 193.988632,79.010864 
	C193.992294,78.991798 194.030670,78.985855 193.825653,79.128197 
	C193.359131,79.483696 193.147507,79.738335 192.990997,80.013840 
	C192.996185,79.993240 193.038406,79.998077 192.678925,80.052391 
	C189.544144,81.401939 186.768845,82.697174 183.696350,84.043869 
	C182.919617,84.435822 182.440063,84.776291 181.960510,85.116760 
z"/>
<path fill="#3F3223" opacity="1.000000" stroke="none" 
	d="
M211.380447,51.850796 
	C210.927734,52.023453 210.729279,52.020813 209.930557,51.860596 
	C206.480103,48.715225 204.125732,44.820206 198.710556,45.884834 
	C197.591782,44.850727 196.736725,43.974922 196.134613,42.891811 
	C200.261017,43.456135 204.134445,44.227764 208.007874,44.999397 
	C208.007874,44.999397 207.999390,45.000309 208.059647,45.335068 
	C209.738815,46.774593 211.357742,47.879360 212.976654,48.984131 
	C212.529343,49.881248 212.082016,50.778374 211.380447,51.850796 
z"/>
<path fill="#34271F" opacity="1.000000" stroke="none" 
	d="
M199.422729,62.005634 
	C198.948090,55.149780 203.651993,59.654644 206.593033,58.992130 
	C206.006699,63.307983 202.491196,61.629684 199.422729,62.005634 
z"/>
<path fill="#4F3E2B" opacity="1.000000" stroke="none" 
	d="
M212.980362,48.638538 
	C211.357742,47.879360 209.738815,46.774593 208.059967,45.330864 
	C209.154068,45.162022 210.308090,45.332150 211.696289,45.347031 
	C212.281677,46.225506 212.632874,47.259228 212.980362,48.638538 
z"/>
<path fill="#D7A380" opacity="1.000000" stroke="none" 
	d="
M176.346909,80.743744 
	C176.411758,76.646492 179.236740,77.621849 182.183350,78.037170 
	C180.614075,78.933769 178.656158,79.825134 176.346909,80.743744 
z"/>
<path fill="#AEAEAE" opacity="1.000000" stroke="none" 
	d="
M177.673477,84.926315 
	C177.738464,85.173103 177.501862,85.439117 177.027893,85.839767 
	C176.984329,85.631447 177.178101,85.288490 177.673477,84.926315 
z"/>
<path fill="#1A1513" opacity="1.000000" stroke="none" 
	d="
M175.055847,81.882515 
	C175.068130,81.666290 175.214447,81.574615 175.618317,81.453308 
	C175.647232,81.618141 175.418564,81.812607 175.055847,81.882515 
z"/>
<path fill="#B3B1B1" opacity="1.000000" stroke="none" 
	d="
M209.578827,62.128510 
	C209.902328,62.145710 210.016403,62.454140 209.973450,62.871712 
	C209.667419,62.793816 209.518402,62.606777 209.578827,62.128510 
z"/>
<path fill="#B07C5C" opacity="1.000000" stroke="none" 
	d="
M138.600189,140.010651 
	C137.741440,140.041718 136.932648,139.699875 135.873688,139.324539 
	C132.886932,137.777252 128.131836,141.084579 127.147331,135.307358 
	C131.528488,135.380325 136.657974,133.722031 138.600189,140.010651 
z"/>
<path fill="#271D18" opacity="1.000000" stroke="none" 
	d="
M123.008125,133.987701 
	C121.333435,133.899002 119.658745,133.810303 117.984055,133.721603 
	C118.064240,133.163345 118.144417,132.605087 118.224602,132.046814 
	C119.730919,132.480942 121.237244,132.915070 122.871674,133.674515 
	C122.999779,133.999847 123.008125,133.987701 123.008125,133.987701 
z"/>
<path fill="#B07C5C" opacity="1.000000" stroke="none" 
	d="
M125.731033,132.234604 
	C126.063332,131.868866 126.522980,131.765610 127.334778,131.640961 
	C127.563454,131.975845 127.439964,132.332138 127.085449,132.859344 
	C126.522408,132.852524 126.190399,132.674805 125.731033,132.234604 
z"/>
<path fill="#271D18" opacity="1.000000" stroke="none" 
	d="
M122.993683,134.004044 
	C122.987587,134.008240 123.253090,134.159668 123.253090,134.159668 
	C123.253090,134.159668 123.085091,134.133331 123.046608,134.060516 
	C123.008125,133.987701 122.999779,133.999847 122.993683,134.004044 
z"/>
<path fill="#0E0907" opacity="1.000000" stroke="none" 
	d="
M190.873047,95.772629 
	C191.034744,95.495415 191.249329,95.268120 191.780457,95.294495 
	C192.339447,96.006966 192.634750,96.515686 193.315948,97.029388 
	C194.471313,97.003510 195.240799,96.972641 196.010284,96.941772 
	C197.071793,96.934029 198.133316,96.926292 199.927933,96.924332 
	C201.109894,96.921814 201.558762,96.913513 202.007614,96.905212 
	C202.970123,97.671150 203.932648,98.437088 204.866608,99.553726 
	C204.838043,99.904434 204.419952,99.957794 203.927094,99.966934 
	C203.056625,99.969566 202.679031,99.963058 202.092346,99.618027 
	C200.588531,99.190910 199.293793,99.102318 197.580994,98.900162 
	C195.436356,98.852242 193.709778,98.917870 191.740128,98.966522 
	C191.497055,98.949532 191.013962,99.013588 190.761292,99.010925 
	C190.340256,99.004372 190.171890,99.000481 189.982758,98.766144 
	C189.962006,98.535683 189.868759,98.082397 190.006714,97.798553 
	C190.387466,96.934021 190.630249,96.353325 190.873047,95.772629 
z"/>
<path fill="#251F1C" opacity="1.000000" stroke="none" 
	d="
M196.874176,108.496658 
	C193.772598,107.759735 190.538620,106.698601 187.213089,105.298782 
	C190.328278,106.030884 193.535019,107.101669 196.874176,108.496658 
z"/>
<path fill="#A87555" opacity="1.000000" stroke="none" 
	d="
M191.983200,98.983505 
	C193.709778,98.917870 195.436356,98.852242 197.594711,99.206360 
	C198.026703,100.034325 198.026932,100.442551 198.027161,100.850769 
	C196.971176,100.866104 195.915222,100.881439 194.378601,100.716858 
	C193.712906,100.225975 193.444809,100.114113 192.831970,100.074936 
	C192.374588,99.626862 192.178894,99.305183 191.983200,98.983505 
z"/>
<path fill="#D29D79" opacity="1.000000" stroke="none" 
	d="
M198.269745,101.050438 
	C198.026932,100.442551 198.026703,100.034325 198.012772,99.319916 
	C199.293793,99.102318 200.588531,99.190910 201.913635,99.738182 
	C201.944016,100.196861 201.857483,100.618706 201.857483,100.618706 
	C200.742432,100.829170 199.627380,101.039642 198.269745,101.050438 
z"/>
<path fill="#2C231A" opacity="1.000000" stroke="none" 
	d="
M195.971741,105.443542 
	C196.486465,104.850845 197.186707,104.450241 197.886948,104.049637 
	C198.008347,104.422432 198.129745,104.795219 198.251129,105.168015 
	C197.553177,105.323891 196.855225,105.479767 195.971741,105.443542 
z"/>
<path fill="#56442F" opacity="1.000000" stroke="none" 
	d="
M191.740128,98.966522 
	C192.178894,99.305183 192.374588,99.626862 192.826141,100.283661 
	C193.081970,100.618790 193.131912,101.033836 193.131912,101.033836 
	C192.927643,101.617767 192.723389,102.201698 192.023041,102.931847 
	C191.355774,103.044014 191.184601,103.009956 191.013428,102.975906 
	C190.728348,102.494705 190.443268,102.013512 190.286728,101.067032 
	C190.614838,100.072365 190.814392,99.542976 191.013962,99.013588 
	C191.013962,99.013588 191.497055,98.949532 191.740128,98.966522 
z"/>
<path fill="#2C231A" opacity="1.000000" stroke="none" 
	d="
M201.897339,100.964798 
	C201.857483,100.618706 201.944016,100.196861 202.122726,100.076706 
	C202.679031,99.963058 203.056625,99.969566 203.717743,99.991135 
	C203.656723,101.055847 203.312180,102.105507 202.967636,103.155167 
	C202.624146,102.540405 202.280655,101.925644 201.897339,100.964798 
z"/>
<path fill="#34271F" opacity="1.000000" stroke="none" 
	d="
M190.489685,95.815353 
	C190.630249,96.353325 190.387466,96.934021 189.727844,97.786804 
	C188.938232,98.053062 188.565430,98.047241 188.192642,98.041420 
	C187.839447,97.550919 187.486252,97.060417 187.082428,96.264725 
	C188.056656,95.925720 189.081512,95.891899 190.489685,95.815353 
z"/>
<path fill="#B4A69E" opacity="1.000000" stroke="none" 
	d="
M197.248825,111.427948 
	C196.661102,111.812103 196.146683,111.940575 195.632263,112.069046 
	C196.041122,111.475510 196.449982,110.881966 197.153412,110.202194 
	C197.406021,110.468071 197.364075,110.820175 197.248825,111.427948 
z"/>
<path fill="#4E3C2E" opacity="1.000000" stroke="none" 
	d="
M188.198059,98.330376 
	C188.565430,98.047241 188.938232,98.053062 189.589890,98.070641 
	C189.868759,98.082397 189.962006,98.535683 189.951385,98.963791 
	C189.940765,99.391907 189.918716,99.791481 189.918716,99.791481 
	C189.346970,99.400764 188.775208,99.010048 188.198059,98.330376 
z"/>
<path fill="#251F1C" opacity="1.000000" stroke="none" 
	d="
M189.943695,100.092041 
	C189.918716,99.791481 189.940765,99.391907 189.972137,99.194252 
	C190.171890,99.000481 190.340256,99.004372 190.761292,99.010925 
	C190.814392,99.542976 190.614838,100.072365 190.206879,100.798409 
	C189.988541,100.794243 189.978622,100.593422 189.943695,100.092041 
z"/>
<path fill="#2C231A" opacity="1.000000" stroke="none" 
	d="
M191.033844,103.176331 
	C191.184601,103.009956 191.355774,103.044014 191.783112,103.133652 
	C191.710938,103.251732 191.382599,103.314240 191.033844,103.176331 
z"/>
<path fill="#B8A8A0" opacity="1.000000" stroke="none" 
	d="
M184.178207,104.247871 
	C184.178482,104.040039 184.344742,104.016586 184.762253,103.975372 
	C185.013504,103.957611 185.101700,104.436935 185.154861,104.675034 
	C184.886566,104.813049 184.598633,104.652756 184.178207,104.247871 
z"/>
<path fill="#2C231A" opacity="1.000000" stroke="none" 
	d="
M193.363159,101.017059 
	C193.131912,101.033836 193.081970,100.618790 193.087799,100.410065 
	C193.444809,100.114113 193.712906,100.225975 193.977661,100.755539 
	C194.057358,100.974152 193.594391,101.000282 193.363159,101.017059 
z"/>
<path fill="#4F3E2B" opacity="1.000000" stroke="none" 
	d="
M207.824707,44.704895 
	C204.134445,44.227764 200.261017,43.456135 195.870178,42.831779 
	C194.898514,42.693188 194.444229,42.407322 193.889343,41.769356 
	C191.852844,40.619114 189.916977,39.820965 187.981110,39.022820 
	C190.720825,38.688057 193.460541,38.353298 196.634399,38.033848 
	C198.755341,39.105850 200.427261,40.187286 202.132965,41.212505 
	C203.952515,42.306152 205.804001,43.346672 207.824707,44.704895 
z"/>
<path fill="#4F3E2B" opacity="1.000000" stroke="none" 
	d="
M198.296997,38.165154 
	C197.476685,37.181446 196.926498,36.308834 196.180603,35.183704 
	C197.441299,35.563507 198.897720,36.195831 200.354126,36.828156 
	C199.758453,37.310852 199.162796,37.793549 198.296997,38.165154 
z"/>
<path fill="#3A2D1F" opacity="1.000000" stroke="none" 
	d="
M214.493576,134.484695 
	C214.518555,134.474564 214.468597,134.494827 214.493576,134.484695 
z"/>
<path fill="#15100E" opacity="1.000000" stroke="none" 
	d="
M192.930054,97.024399 
	C192.634750,96.515686 192.339447,96.006966 191.997589,95.201981 
	C190.765472,94.626007 189.579941,94.346306 187.982880,94.056953 
	C189.564026,92.521805 191.556671,90.996300 194.120056,89.174553 
	C196.072891,88.089706 197.454987,87.301109 198.876373,86.911682 
	C198.947220,87.844521 198.978790,88.378181 198.854309,89.183914 
	C206.210938,90.799675 207.973434,89.466499 205.969910,83.567825 
	C205.953598,82.435959 205.951416,81.681213 205.949234,80.926468 
	C205.949234,80.926468 205.957993,80.952103 205.945221,80.939255 
	C206.748749,81.228821 207.565063,81.531219 208.708618,81.859863 
	C210.171143,87.706673 208.332291,91.310562 203.131729,92.127258 
	C201.953506,92.405464 201.463272,92.665398 200.973053,92.925339 
	C199.495026,93.108406 198.016983,93.291466 195.925278,93.784607 
	C194.517761,95.071259 193.723923,96.047829 192.930054,97.024399 
z"/>
<path fill="#34271F" opacity="1.000000" stroke="none" 
	d="
M193.315948,97.029388 
	C193.723923,96.047829 194.517761,95.071259 195.637817,94.018036 
	C195.976562,94.692513 195.989090,95.443649 196.005951,96.568283 
	C195.240799,96.972641 194.471313,97.003510 193.315948,97.029388 
z"/>
<path fill="#34271F" opacity="1.000000" stroke="none" 
	d="
M201.154175,93.107841 
	C201.463272,92.665398 201.953506,92.405464 202.729050,92.147957 
	C202.454666,92.530373 201.894989,92.910355 201.154175,93.107841 
z"/>
<path fill="#34271F" opacity="1.000000" stroke="none" 
	d="
M201.940643,96.656830 
	C201.558762,96.913513 201.109894,96.921814 200.325378,96.900864 
	C200.617691,96.717224 201.245667,96.562828 201.940643,96.656830 
z"/>
<path fill="#D5D5D5" opacity="1.000000" stroke="none" 
	d="
M198.837082,86.512527 
	C197.454987,87.301109 196.072891,88.089706 194.336807,88.896851 
	C194.349762,85.354164 192.663422,84.722855 189.400146,85.627808 
	C190.413040,83.560478 191.725723,81.779274 193.038406,79.998077 
	C193.038406,79.998077 192.996185,79.993240 193.200851,79.876877 
	C193.613892,79.502296 193.822281,79.244072 194.030670,78.985855 
	C194.030670,78.985855 193.992294,78.991798 194.230835,79.001022 
	C194.469376,79.010239 194.952133,78.972008 194.952133,78.972008 
	C195.767242,78.673553 196.582352,78.375099 197.719940,78.019257 
	C200.651581,79.081802 200.651581,79.081802 198.290466,83.063568 
	C199.252975,83.063568 200.015762,83.063568 200.989502,83.377319 
	C200.412674,84.631546 199.624878,85.572037 198.837082,86.512527 
z"/>
<path fill="#252525" opacity="1.000000" stroke="none" 
	d="
M198.876373,86.911690 
	C199.624878,85.572037 200.412674,84.631546 201.302704,83.390793 
	C202.699600,82.379410 203.994247,81.668289 205.619080,80.941818 
	C205.951416,81.681213 205.953598,82.435959 205.728973,83.793106 
	C203.338226,85.900963 201.174301,87.406410 199.010376,88.911850 
	C198.978790,88.378181 198.947220,87.844521 198.876373,86.911690 
z"/>
<path fill="#8C8C8B" opacity="1.000000" stroke="none" 
	d="
M204.003662,73.005043 
	C204.007706,73.010338 203.779129,73.336044 203.779129,73.336044 
	C203.779129,73.336044 203.790665,73.066589 203.889404,73.028770 
	C203.988159,72.990952 203.999619,72.999748 204.003662,73.005043 
z"/>
<path fill="#B07C5C" opacity="1.000000" stroke="none" 
	d="
M139.841003,140.856674 
	C139.672333,140.987305 139.340317,140.915131 138.850281,140.635162 
	C139.020721,140.502853 139.349182,140.578354 139.841003,140.856674 
z"/>
<path fill="#B07C5C" opacity="1.000000" stroke="none" 
	d="
M128.055801,131.751587 
	C128.141098,131.617645 128.472916,131.621582 128.828400,131.822540 
	C128.668793,131.976196 128.485550,131.932816 128.055801,131.751587 
z"/>
<path fill="#15100E" opacity="1.000000" stroke="none" 
	d="
M248.501526,137.532928 
	C248.480713,137.494080 248.522324,137.571762 248.501526,137.532928 
z"/>
<path fill="#AEAEAE" opacity="1.000000" stroke="none" 
	d="
M181.900665,85.422943 
	C182.440063,84.776291 182.919617,84.435822 183.903809,84.241882 
	C184.602127,84.917603 184.795776,85.446785 184.989426,85.975960 
	C184.320969,88.325142 184.413193,91.342163 180.261627,90.951843 
	C176.995102,87.893074 181.895035,87.730865 181.900665,85.422943 
z"/>
<path fill="#B3B1B1" opacity="1.000000" stroke="none" 
	d="
M185.317505,85.979919 
	C184.795776,85.446785 184.602127,84.917603 184.201019,84.190414 
	C186.768845,82.697174 189.544144,81.401939 192.678925,80.052383 
	C191.725723,81.779274 190.413040,83.560478 189.041168,85.672592 
	C188.981979,86.003502 189.008789,86.006660 188.668655,85.976006 
	C187.871567,85.958931 187.414627,85.972519 186.957672,85.986099 
	C186.520309,85.985367 186.082962,85.984627 185.317505,85.979919 
z"/>
<path fill="#D5D5D5" opacity="1.000000" stroke="none" 
	d="
M187.132904,86.167160 
	C187.414627,85.972519 187.871567,85.958931 188.670822,85.962616 
	C188.444794,86.102661 187.876480,86.225441 187.132904,86.167160 
z"/>
<path fill="#8C8C8B" opacity="1.000000" stroke="none" 
	d="
M220.009735,59.008858 
	C220.134323,58.313095 220.247879,57.605606 220.361435,56.898117 
	C220.746490,57.078522 221.131546,57.258926 221.516602,57.439331 
	C221.170837,58.009121 220.825073,58.578907 220.229233,59.059948 
	C219.979141,58.971203 219.998703,58.997135 220.009735,59.008858 
z"/>
<path fill="#624F37" opacity="1.000000" stroke="none" 
	d="
M193.989960,42.121456 
	C194.444229,42.407322 194.898514,42.693188 195.617218,43.039085 
	C196.736725,43.974922 197.591782,44.850727 198.718170,46.260223 
	C199.004929,47.548889 199.020355,48.303860 199.035797,49.058830 
	C196.322128,48.569378 193.505447,47.646107 191.329132,50.903160 
	C189.167435,50.664982 187.335892,50.333950 184.753571,49.867222 
	C186.009872,47.189018 187.209854,44.630878 189.135498,42.026993 
	C191.237411,42.027981 192.613693,42.074718 193.989960,42.121456 
z"/>
<path fill="#3F3223" opacity="1.000000" stroke="none" 
	d="
M193.889343,41.769356 
	C192.613693,42.074718 191.237411,42.027981 189.449310,41.965977 
	C188.509171,41.017002 187.980835,40.083298 187.716812,39.086205 
	C189.916977,39.820965 191.852844,40.619114 193.889343,41.769356 
z"/>
<path fill="#56442F" opacity="1.000000" stroke="none" 
	d="
M199.358047,49.200935 
	C199.020355,48.303860 199.004929,47.548889 198.981873,46.418526 
	C204.125732,44.820206 206.480103,48.715225 209.632843,51.860126 
	C206.517044,51.125843 203.098663,50.234444 199.358047,49.200935 
z"/>
<path fill="#B3B1B1" opacity="1.000000" stroke="none" 
	d="
M193.825653,79.128189 
	C193.822281,79.244072 193.613892,79.502296 193.195648,79.897476 
	C193.147507,79.738335 193.359131,79.483696 193.825653,79.128189 
z"/>
<path fill="#B3B1B1" opacity="1.000000" stroke="none" 
	d="
M194.847839,78.861420 
	C194.952133,78.972008 194.469376,79.010239 194.227173,79.020081 
	C194.177017,78.718536 194.429871,78.625504 194.847839,78.861420 
z"/>
<path fill="#A87555" opacity="1.000000" stroke="none" 
	d="
M198.854324,89.183914 
	C201.174301,87.406410 203.338226,85.900963 205.743103,84.170227 
	C207.973434,89.466499 206.210938,90.799675 198.854324,89.183914 
z"/>
</svg>