<svg version="1.1" id="Layer_1" xmlns="http://www.w3.org/2000/svg" xmlns:xlink="http://www.w3.org/1999/xlink" x="0px" y="0px"
	 width="60px" viewBox="0 0 113 159" enable-background="new 0 0 113 159" xml:space="preserve">
<path fill="#000000" opacity="1.000000" stroke="none" 
	d="
M99.011642,160.000000 
	C66.009521,160.000000 33.509815,160.000000 1.007582,160.000000 
	C1.005054,107.003845 1.005054,54.007694 1.002527,1.008655 
	C38.662479,1.005770 76.324959,1.005770 113.990585,1.002885 
	C113.993721,53.995335 113.993721,106.990669 113.993721,160.000000 
	C109.171356,160.000000 104.342697,160.000000 99.011642,160.000000 
M33.041328,96.916771 
	C33.041328,96.916771 33.110573,96.906502 32.976566,97.847054 
	C32.976566,103.772781 32.976566,109.698502 32.976566,115.624229 
	C33.253780,115.614807 33.530994,115.605392 33.808208,115.595970 
	C33.808208,109.343369 33.808208,103.090767 33.934479,95.966736 
	C34.905586,90.223099 33.035488,85.397018 29.161163,81.209991 
	C24.053919,83.142540 21.901426,87.102249 23.238123,92.113457 
	C24.914570,98.398354 27.471245,104.448471 29.636381,111.076134 
	C30.055571,111.450569 30.474758,111.825005 30.893944,112.199440 
	C30.931772,111.800392 30.969601,111.401352 31.098005,110.082397 
	C31.354420,105.670830 31.610832,101.259262 32.483494,96.832764 
	C32.688469,96.847099 32.893440,96.861427 33.041328,96.916771 
z"/>
<path fill="#AF9E95" opacity="1.000000" stroke="none" 
	d="
M31.867247,96.847687 
	C31.610832,101.259262 31.354420,105.670830 30.819754,110.492096 
	C30.274071,110.711212 29.976242,110.610588 29.648018,110.599915 
	C27.471245,104.448471 24.914570,98.398354 23.238123,92.113457 
	C21.901426,87.102249 24.053919,83.142540 29.166811,81.212265 
	C33.035488,85.397018 34.905586,90.223099 33.694092,96.390472 
	C33.453701,96.814217 33.110573,96.906502 33.110573,96.906502 
	C33.110573,96.906502 33.041328,96.916771 33.005203,96.638336 
	C32.601803,96.522507 32.234524,96.685097 31.867247,96.847687 
z"/>
<path fill="#504A47" opacity="1.000000" stroke="none" 
	d="
M33.043571,97.376778 
	C33.110573,96.906502 33.453701,96.814217 33.630955,96.826187 
	C33.808208,103.090767 33.808208,109.343369 33.808208,115.595970 
	C33.530994,115.605392 33.253780,115.614807 32.976566,115.624229 
	C32.976566,109.698502 32.976566,103.772781 33.043571,97.376778 
z"/>
<path fill="#504A47" opacity="1.000000" stroke="none" 
	d="
M29.642200,110.838028 
	C29.976242,110.610588 30.274071,110.711212 30.774466,110.952049 
	C30.969601,111.401352 30.931772,111.800392 30.893944,112.199440 
	C30.474758,111.825005 30.055571,111.450569 29.642200,110.838028 
z"/>
<path fill="#504A47" opacity="1.000000" stroke="none" 
	d="
M32.175369,96.840225 
	C32.234524,96.685097 32.601803,96.522507 33.033745,96.617836 
	C32.893440,96.861427 32.688469,96.847099 32.175369,96.840225 
z"/>
</svg>