<svg version="1.1" id="Layer_1" xmlns="http://www.w3.org/2000/svg" xmlns:xlink="http://www.w3.org/1999/xlink" x="0px" y="0px"
	 width="100%" viewBox="0 0 113 159" enable-background="new 0 0 113 159" xml:space="preserve">
<path fill="#000000" opacity="1.000000" stroke="none" 
	d="
M38.000000,160.000000 
	C25.677315,160.000000 13.354629,160.000000 1.015971,160.000000 
	C1.015971,107.056404 1.015971,54.112808 1.015971,1.084605 
	C38.577576,1.084605 76.155411,1.084605 113.866623,1.084605 
	C113.866623,53.999775 113.866623,106.999832 113.866623,160.000000 
	C101.248749,160.000000 88.593033,160.000000 75.453476,159.596191 
	C74.519257,157.370590 74.068878,155.548813 73.615631,153.608917 
	C73.612770,153.490784 73.721703,153.281097 73.716797,153.113739 
	C73.681328,152.618088 73.588684,152.307877 73.351120,151.626129 
	C73.169815,148.156509 73.071342,145.076508 73.081284,142.015717 
	C73.189705,142.034958 73.409531,142.048004 73.539627,141.873596 
	C73.565712,140.808441 73.461716,139.917679 73.354721,138.693115 
	C73.379280,137.914948 73.406830,137.470627 73.687218,136.833786 
	C74.551643,134.252670 76.377487,130.445923 75.550316,129.737686 
	C72.923622,127.488647 69.332062,126.337303 66.036751,124.942940 
	C65.702446,124.801483 64.498306,125.774864 64.293922,126.419807 
	C62.959713,130.629959 59.425396,130.879745 55.929298,131.368820 
	C50.292408,132.157379 44.541157,130.846512 38.988457,133.951828 
	C32.970127,137.317535 32.278770,138.744537 37.204910,144.378372 
	C37.529030,149.851990 37.764515,154.925995 38.000000,160.000000 
z"/>
<path fill="#070504" opacity="1.000000" stroke="none" 
	d="
M37.116272,143.978760 
	C32.278770,138.744537 32.970127,137.317535 38.988457,133.951828 
	C44.541157,130.846512 50.292408,132.157379 55.929298,131.368820 
	C59.425396,130.879745 62.959713,130.629959 64.293922,126.419807 
	C64.498306,125.774864 65.702446,124.801483 66.036751,124.942940 
	C69.332062,126.337303 72.923622,127.488647 75.550316,129.737686 
	C76.377487,130.445923 74.551643,134.252670 73.568939,136.484222 
	C71.519157,133.878433 69.840485,131.429703 68.122795,128.924057 
	C66.053116,131.250305 64.903526,133.630341 63.097157,134.341064 
	C59.583336,135.723618 59.065437,137.695038 60.365536,141.251587 
	C60.945999,147.812134 61.473000,153.906067 62.000000,160.000000 
	C58.307091,160.000000 54.614182,160.000000 50.444038,159.531616 
	C49.761497,151.861771 49.556190,144.660324 49.342697,137.109650 
	C48.110542,135.797119 46.659313,133.841797 45.706062,134.060196 
	C43.055508,134.667404 40.383442,135.866486 38.191620,137.474731 
	C37.226822,138.182632 37.405067,140.448364 37.100044,142.334534 
	C37.129257,143.101089 37.122765,143.539917 37.116272,143.978760 
z"/>
<path fill="#413425" opacity="1.000000" stroke="none" 
	d="
M49.350883,137.458878 
	C49.556190,144.660324 49.761497,151.861771 49.983402,159.531616 
	C46.307091,160.000000 42.614182,160.000000 38.460636,160.000000 
	C37.764515,154.925995 37.529030,149.851990 37.204906,144.378372 
	C37.122765,143.539917 37.129257,143.101089 37.446083,142.215256 
	C41.621239,140.331802 45.486061,138.895340 49.350883,137.458878 
z"/>
<path fill="#423525" opacity="1.000000" stroke="none" 
	d="
M62.458069,160.000000 
	C61.473000,153.906067 60.945999,147.812134 60.702072,141.333771 
	C62.215363,141.164749 63.445576,141.380173 65.335960,141.711212 
	C62.904064,136.829224 66.312614,136.709732 68.684639,135.871689 
	C70.231995,138.081757 71.602432,140.039124 72.972870,141.996490 
	C73.071342,145.076508 73.169815,148.156509 73.389557,151.950836 
	C73.581131,152.870468 73.651421,153.075790 73.721703,153.281097 
	C73.721703,153.281097 73.612770,153.490784 73.522919,153.997360 
	C73.288704,156.335953 73.144356,158.167984 73.000000,160.000000 
	C69.638710,160.000000 66.277428,160.000000 62.458069,160.000000 
z"/>
<path fill="#070504" opacity="1.000000" stroke="none" 
	d="
M73.333328,160.000000 
	C73.144356,158.167984 73.288704,156.335953 73.525780,154.115479 
	C74.068878,155.548813 74.519257,157.370590 74.984818,159.596191 
	C74.555557,160.000000 74.111107,160.000000 73.333328,160.000000 
z"/>
<path fill="#33291A" opacity="1.000000" stroke="none" 
	d="
M73.081284,142.015717 
	C71.602432,140.039124 70.231995,138.081757 68.684639,135.871689 
	C66.312614,136.709732 62.904064,136.829224 65.335960,141.711212 
	C63.445576,141.380173 62.215363,141.164749 60.648613,140.867142 
	C59.065437,137.695038 59.583336,135.723618 63.097157,134.341064 
	C64.903526,133.630341 66.053116,131.250305 68.122795,128.924057 
	C69.840485,131.429703 71.519157,133.878433 73.316116,136.676727 
	C73.406830,137.470627 73.379280,137.914948 73.322739,139.069855 
	C73.332336,140.536270 73.370934,141.292145 73.409531,142.048004 
	C73.409531,142.048004 73.189705,142.034958 73.081284,142.015717 
z"/>
<path fill="#070504" opacity="1.000000" stroke="none" 
	d="
M73.539627,141.873596 
	C73.370934,141.292145 73.332336,140.536270 73.325729,139.403671 
	C73.461716,139.917679 73.565712,140.808441 73.539627,141.873596 
z"/>
<path fill="#070504" opacity="1.000000" stroke="none" 
	d="
M73.716797,153.113739 
	C73.651421,153.075790 73.581131,152.870468 73.472389,152.340439 
	C73.588684,152.307877 73.681328,152.618088 73.716797,153.113739 
z"/>
<path fill="#261E14" opacity="1.000000" stroke="none" 
	d="
M49.342697,137.109650 
	C45.486061,138.895340 41.621239,140.331802 37.410378,141.887543 
	C37.405067,140.448364 37.226822,138.182632 38.191620,137.474731 
	C40.383442,135.866486 43.055508,134.667404 45.706062,134.060196 
	C46.659313,133.841797 48.110542,135.797119 49.342697,137.109650 
z"/>
</svg>