<svg version="1.1" id="Layer_1" xmlns="http://www.w3.org/2000/svg" xmlns:xlink="http://www.w3.org/1999/xlink" x="0px" y="0px"
	 width="100%" viewBox="0 0 113 159" enable-background="new 0 0 113 159" xml:space="preserve">
<path fill="#000000" opacity="1.000000" stroke="none" 
	d="
M38.000000,160.000000 
	C25.676834,160.000000 13.353670,160.000000 1.015252,160.000000 
	C1.015252,107.053871 1.015252,54.107731 1.015252,1.080796 
	C38.581596,1.080796 76.163422,1.080796 113.872620,1.080796 
	C113.872620,53.999817 113.872620,106.999855 113.879440,159.999939 
	C93.236610,160.000000 72.586960,160.000000 51.286247,159.619812 
	C50.210594,151.957779 49.786007,144.675934 49.379860,137.040680 
	C48.873779,133.565369 47.200218,132.963470 44.478642,134.340805 
	C42.742046,135.219650 40.982197,136.144501 39.125916,136.674408 
	C35.958916,137.578476 34.999084,139.130539 37.048988,142.411301 
	C37.395802,144.760742 37.824741,146.689835 37.896645,148.632111 
	C38.036777,152.417496 37.976994,156.210281 38.000000,160.000000 
z"/>
<path fill="#413425" opacity="1.000000" stroke="none" 
	d="
M38.463184,160.000000 
	C37.976994,156.210281 38.036777,152.417496 37.896645,148.632111 
	C37.824741,146.689835 37.395802,144.760742 37.405167,142.297607 
	C41.575214,140.311035 45.468319,138.852570 49.361420,137.394104 
	C49.786007,144.675934 50.210594,151.957779 50.817589,159.619812 
	C46.975456,160.000000 42.950912,160.000000 38.463184,160.000000 
z"/>
<path fill="#261E14" opacity="1.000000" stroke="none" 
	d="
M49.379860,137.040680 
	C45.468319,138.852570 41.575214,140.311035 37.325939,141.883209 
	C34.999084,139.130539 35.958916,137.578476 39.125916,136.674408 
	C40.982197,136.144501 42.742046,135.219650 44.478642,134.340805 
	C47.200218,132.963470 48.873779,133.565369 49.379860,137.040680 
z"/>
</svg>