<svg version="1.1" id="Layer_1" xmlns="http://www.w3.org/2000/svg" xmlns:xlink="http://www.w3.org/1999/xlink" x="0px" y="0px"
	 width="100%" viewBox="0 0 52 66" enable-background="new 0 0 52 66" xml:space="preserve">
<path fill="#010000" opacity="1.000000" stroke="none" 
	d="
M1.000000,10.000000 
	C1.000000,7.015911 1.000000,4.031822 1.000000,1.023867 
	C18.225466,1.023867 35.450966,1.023867 53.000000,1.023867 
	C53.000000,8.017499 53.000000,15.039967 52.751457,22.883179 
	C51.987766,23.458969 51.472614,23.214012 50.968925,22.991936 
	C50.980389,23.014814 51.025425,22.987810 51.002037,22.687727 
	C50.655018,21.926615 50.331379,21.465588 49.741226,20.990047 
	C49.119053,20.973532 48.763401,20.971527 48.344833,20.608164 
	C52.340023,16.177954 52.267651,14.110882 48.029846,12.437035 
	C48.048965,11.839662 48.055687,11.498166 48.254669,10.968356 
	C47.984531,9.992176 47.522129,9.204310 47.157799,8.161520 
	C47.322571,7.737161 47.389267,7.567725 47.612232,7.197221 
	C47.691353,6.552084 47.614212,6.108014 47.537064,5.663942 
	C47.223728,5.992078 46.910393,6.320214 46.421844,6.861284 
	C46.046963,7.385336 45.847282,7.696455 45.553070,8.218164 
	C45.559956,9.187773 45.661381,9.946791 45.581161,10.906656 
	C45.293839,11.625666 45.188164,12.143827 44.769073,12.451013 
	C43.495560,12.941544 42.535465,13.643050 41.575371,14.344557 
	C42.037170,14.736315 42.498966,15.128073 42.710159,15.539837 
	C41.822456,16.027468 41.185352,16.495092 40.213387,16.706215 
	C38.252804,17.647816 36.627087,18.845919 34.676468,20.027121 
	C33.921043,20.051109 33.490520,20.092001 32.729813,20.215385 
	C30.926413,20.753813 29.453197,21.209747 27.676899,21.517735 
	C26.268070,21.301918 25.162325,21.234049 23.789639,21.024029 
	C22.988800,20.611202 22.454906,20.340527 21.558899,20.038803 
	C20.470160,20.003157 19.743532,19.998558 18.845482,19.766026 
	C18.147398,19.341623 17.620733,19.145157 16.944908,18.680088 
	C15.857448,18.037962 14.919147,17.664442 13.761511,17.165762 
	C13.385102,16.980001 13.228032,16.919401 12.980408,16.626350 
	C12.692359,16.085539 12.410531,15.933109 12.026304,15.963238 
	C12.008237,15.989863 12.072328,15.995665 11.992022,15.734236 
	C11.607801,15.285686 11.303886,15.098566 10.859140,14.657404 
	C10.171053,14.231209 9.623796,14.059055 9.049986,13.552559 
	C8.696619,12.437436 8.369802,11.656653 7.919080,10.659553 
	C7.560642,10.177801 7.266384,10.038014 6.766824,9.764961 
	C5.982315,8.824471 5.343380,8.142895 3.985440,6.694324 
	C4.316544,8.500031 4.468037,9.326216 4.687365,10.465038 
	C4.874272,11.187124 4.993344,11.596572 4.884834,12.165031 
	C4.452841,12.823116 4.248430,13.322190 3.829802,13.768139 
	C3.615583,13.715015 3.175452,13.681392 3.145959,13.742456 
	C3.116467,13.803521 3.251828,13.812021 3.251730,13.488586 
	C2.834339,12.421122 2.417045,11.677094 1.877064,10.735052 
	C1.543106,10.301579 1.291648,10.122565 1.000000,10.000000 
M29.579823,20.549004 
	C29.579823,20.549004 29.482555,20.610840 29.579823,20.549004 
z"/>
<path fill="#010000" opacity="1.000000" stroke="none" 
	d="
M53.000000,36.000000 
	C53.000000,46.296139 53.000000,56.592281 53.000000,66.944214 
	C35.766388,66.944214 18.532572,66.944214 1.000000,66.944214 
	C1.000000,54.313999 1.000000,41.625656 1.240957,28.141384 
	C1.961250,27.590172 2.440586,27.834887 2.948259,28.438942 
	C3.304421,29.846060 3.632248,30.893841 3.969987,32.399536 
	C4.632709,36.242897 5.285518,39.628338 6.018691,43.412655 
	C6.258616,44.864418 6.418177,45.917305 6.450909,47.322556 
	C6.338274,48.421921 6.352469,49.168922 6.061052,50.118904 
	C5.822330,51.877655 5.889219,53.433434 5.939744,55.397446 
	C6.323444,57.869152 6.723508,59.932621 7.057181,62.382824 
	C7.720048,67.571648 10.257524,63.834019 12.369264,63.904518 
	C14.809606,62.724567 16.884886,61.471210 19.347218,60.376198 
	C25.195312,62.458485 30.550745,61.520672 36.128319,60.122082 
	C37.748852,60.051533 39.123466,59.797531 40.184601,59.601456 
	C41.761059,60.024895 43.392471,60.463097 45.409744,60.933662 
	C50.465618,58.721409 51.511131,54.329937 49.071995,47.563705 
	C49.202679,44.098976 49.147526,41.055305 49.410904,37.933331 
	C50.178642,37.160728 50.627853,36.466434 51.451012,35.583344 
	C52.216633,35.596367 52.608318,35.798183 53.000000,36.000000 
z"/>
<path fill="#AB998F" opacity="1.000000" stroke="none" 
	d="
M1.000000,19.000000 
	C1.000000,17.611111 1.000000,16.222221 1.376297,14.402296 
	C2.252340,13.918180 2.752084,13.865100 3.251828,13.812021 
	C3.251828,13.812021 3.116467,13.803521 3.203844,14.016843 
	C3.559669,14.475072 3.828117,14.719978 4.398358,15.081682 
	C6.126220,16.509930 7.552290,17.821383 8.998686,19.104511 
	C9.019011,19.076187 8.951414,19.061157 9.030584,19.308002 
	C9.389585,19.746586 9.669415,19.938324 10.094360,20.441696 
	C13.877096,22.888504 17.514715,25.023678 21.165289,27.166454 
	C21.026804,27.382914 20.517303,28.179300 19.813007,29.200445 
	C19.068501,29.651785 18.518789,29.878365 17.891376,29.767483 
	C15.211292,27.617828 12.608913,25.805632 9.777794,23.748482 
	C6.699368,22.002354 3.849684,20.501177 1.000000,19.000000 
z"/>
<path fill="#B8A89F" opacity="1.000000" stroke="none" 
	d="
M1.000000,19.449978 
	C3.849684,20.501177 6.699368,22.002354 9.767711,24.078579 
	C9.663699,25.435570 9.341029,26.217514 8.778535,26.906521 
	C7.726192,26.868217 6.913671,26.922852 5.771490,26.984863 
	C4.889308,27.292515 4.336788,27.592789 3.560157,27.902515 
	C3.336047,27.911970 2.919923,28.079603 2.919923,28.079603 
	C2.440586,27.834887 1.961250,27.590172 1.240957,27.672728 
	C1.000000,25.299986 1.000000,22.599974 1.000000,19.449978 
z"/>
<path fill="#94847B" opacity="1.000000" stroke="none" 
	d="
M53.000000,35.536816 
	C52.608318,35.798183 52.216633,35.596367 51.451897,35.358685 
	C51.078846,35.322823 50.786602,34.980698 50.817932,34.521790 
	C50.885330,30.364943 50.921398,26.666998 50.957466,22.969055 
	C51.472614,23.214012 51.987766,23.458969 52.751457,23.351963 
	C53.000000,27.024544 53.000000,31.049088 53.000000,35.536816 
z"/>
<path fill="#A48B81" opacity="1.000000" stroke="none" 
	d="
M3.251730,13.488586 
	C2.752084,13.865100 2.252340,13.918180 1.376297,13.985629 
	C1.000000,13.250000 1.000000,12.500000 1.252574,11.397640 
	C1.670016,11.007874 1.834884,10.970469 1.999751,10.933064 
	C2.417045,11.677094 2.834339,12.421122 3.251730,13.488586 
z"/>
<path fill="#1B1010" opacity="1.000000" stroke="none" 
	d="
M1.877064,10.735052 
	C1.834884,10.970469 1.670016,11.007874 1.252574,11.022640 
	C1.000000,11.000000 1.000000,10.500000 1.000000,10.250000 
	C1.291648,10.122565 1.543106,10.301579 1.877064,10.735052 
z"/>
<path fill="#B8A59C" opacity="1.000000" stroke="none" 
	d="
M48.017448,12.692911 
	C52.267651,14.110882 52.340023,16.177954 48.248589,21.003876 
	C48.141117,22.840590 48.066986,23.920229 47.706890,25.041496 
	C46.947540,25.387753 46.474152,25.692383 45.724121,25.899069 
	C43.631157,26.533955 41.814835,27.266785 39.655067,27.890305 
	C38.856651,26.475613 38.401684,25.170231 38.055534,23.574980 
	C39.131268,22.234163 40.098183,21.183216 41.356007,19.992142 
	C42.765522,18.577406 43.884129,17.302795 45.298195,15.867918 
	C46.401581,14.702739 47.209515,13.697824 48.017448,12.692911 
M39.467110,24.495327 
	C39.467110,24.495327 39.514641,24.475578 39.467110,24.495327 
z"/>
<path fill="#0E0A07" opacity="1.000000" stroke="none" 
	d="
M47.992851,24.999870 
	C48.066986,23.920229 48.141117,22.840590 48.311501,21.365234 
	C48.763401,20.971527 49.119053,20.973532 49.751923,21.297218 
	C50.361233,22.075207 50.693329,22.531509 51.025425,22.987810 
	C51.025425,22.987810 50.980389,23.014814 50.968925,22.991936 
	C50.921398,26.666998 50.885330,30.364943 50.498123,34.521133 
	C49.720230,34.991138 49.293472,35.002895 48.746777,34.626732 
	C48.415508,31.159164 48.204182,28.079517 47.992851,24.999870 
z"/>
<path fill="#0A0807" opacity="1.000000" stroke="none" 
	d="
M8.978360,19.132833 
	C7.552290,17.821383 6.126220,16.509930 4.347960,14.797516 
	C4.011853,14.204790 4.027937,14.013027 4.044020,13.821263 
	C4.248430,13.322190 4.452841,12.823116 5.093493,12.345215 
	C6.022035,12.894505 6.514333,13.422622 7.169483,14.202319 
	C7.867877,14.708959 8.403420,14.964020 8.975676,15.618032 
	C9.001044,17.055599 8.989702,18.094217 8.978360,19.132833 
z"/>
<path fill="#724B1C" opacity="1.000000" stroke="none" 
	d="
M8.998686,19.104511 
	C8.989702,18.094217 9.001044,17.055599 9.002259,15.283758 
	C9.020267,14.329323 9.048402,14.108112 9.076538,13.886902 
	C9.623796,14.059055 10.171053,14.231209 10.960711,14.912249 
	C11.492850,15.612644 11.782589,15.804154 12.072328,15.995665 
	C12.072328,15.995665 12.008237,15.989863 11.891849,16.335426 
	C11.814054,17.469009 11.852650,18.257032 11.560846,18.983559 
	C10.797027,18.821516 10.363605,18.720968 9.649052,18.649681 
	C9.229083,18.806343 9.090249,18.933750 8.951414,19.061157 
	C8.951414,19.061157 9.019011,19.076187 8.998686,19.104511 
z"/>
<path fill="#141010" opacity="1.000000" stroke="none" 
	d="
M45.002735,16.028183 
	C43.884129,17.302795 42.765522,18.577406 41.155899,19.721893 
	C40.320843,19.305153 39.976799,19.018534 39.740982,18.415966 
	C40.082214,17.720919 40.315231,17.341818 40.548248,16.962719 
	C41.185352,16.495092 41.822456,16.027468 42.924252,15.387581 
	C43.539146,15.125273 43.689346,15.035225 44.067986,15.086322 
	C44.531860,15.494371 44.767296,15.761277 45.002735,16.028183 
z"/>
<path fill="#090806" opacity="1.000000" stroke="none" 
	d="
M45.298195,15.867918 
	C44.767296,15.761277 44.531860,15.494371 44.191570,14.789948 
	C44.418640,13.788949 44.750565,13.225470 45.082489,12.661989 
	C45.188164,12.143827 45.293839,11.625666 45.963860,10.993432 
	C47.039608,10.971797 47.551006,11.064233 48.062408,11.156670 
	C48.055687,11.498166 48.048965,11.839662 48.029846,12.437035 
	C47.209515,13.697824 46.401581,14.702739 45.298195,15.867918 
z"/>
<path fill="#745029" opacity="1.000000" stroke="none" 
	d="
M24.056580,21.166178 
	C25.162325,21.234049 26.268070,21.301918 27.676441,21.863415 
	C27.990047,22.814718 28.001030,23.272396 27.637232,23.813301 
	C26.076851,23.657522 24.891251,23.418522 23.877018,23.040401 
	C24.114212,22.770885 24.265930,22.605331 24.229660,22.516718 
	C24.123165,22.256525 23.941969,22.026905 23.871130,21.636757 
	C23.952232,21.488201 24.056580,21.166178 24.056580,21.166178 
z"/>
<path fill="#9E714A" opacity="1.000000" stroke="none" 
	d="
M40.213387,16.706215 
	C40.315231,17.341818 40.082214,17.720919 39.427094,18.498329 
	C37.678886,19.615112 36.352791,20.333584 35.012478,20.800245 
	C34.999298,20.380299 35.000336,20.212162 35.001373,20.044022 
	C36.627087,18.845919 38.252804,17.647816 40.213387,16.706215 
z"/>
<path fill="#78572E" opacity="1.000000" stroke="none" 
	d="
M28.012011,23.730076 
	C28.001030,23.272396 27.990047,22.814718 27.979523,22.011360 
	C29.453197,21.209747 30.926413,20.753813 32.701553,20.530552 
	C33.005436,21.187643 33.007393,21.612066 32.806404,22.318407 
	C31.072979,22.976910 29.542494,23.353493 28.012011,23.730076 
z"/>
<path fill="#805423" opacity="1.000000" stroke="none" 
	d="
M23.790028,21.785313 
	C23.941969,22.026905 24.123165,22.256525 24.229660,22.516718 
	C24.265930,22.605331 24.114212,22.770885 23.524071,22.999718 
	C22.294529,23.008051 21.589308,22.917950 20.693460,22.626791 
	C19.980837,22.299767 19.458839,22.173803 18.959152,22.057329 
	C18.981462,22.066818 18.930145,22.071537 19.014725,21.837091 
	C19.099302,21.602646 19.135017,21.105455 19.091877,20.829029 
	C19.038128,20.366388 19.027515,20.180174 19.016903,19.993959 
	C19.743532,19.998558 20.470160,20.003157 21.632380,20.315876 
	C22.641989,21.011103 23.216009,21.398207 23.790028,21.785313 
z"/>
<path fill="#110B06" opacity="1.000000" stroke="none" 
	d="
M48.254669,10.968355 
	C47.551006,11.064233 47.039608,10.971797 46.145508,10.792583 
	C45.661381,9.946791 45.559956,9.187773 45.907784,8.318018 
	C46.591263,8.277001 46.825493,8.346723 47.059727,8.416445 
	C47.522129,9.204310 47.984531,9.992176 48.254669,10.968355 
z"/>
<path fill="#966738" opacity="1.000000" stroke="none" 
	d="
M9.049986,13.552560 
	C9.048402,14.108112 9.020267,14.329323 8.965548,14.884808 
	C8.403420,14.964020 7.867877,14.708959 7.179101,13.861294 
	C7.364907,12.471084 7.703947,11.673477 8.042986,10.875872 
	C8.369802,11.656653 8.696619,12.437436 9.049986,13.552560 
z"/>
<path fill="#815821" opacity="1.000000" stroke="none" 
	d="
M7.919080,10.659553 
	C7.703947,11.673477 7.364907,12.471084 7.016250,13.609715 
	C6.514333,13.422622 6.022035,12.894505 5.321076,12.186203 
	C4.993344,11.596572 4.874272,11.187124 5.069547,10.418941 
	C5.893395,10.048097 6.402897,10.035986 6.912398,10.023875 
	C7.266384,10.038014 7.560642,10.177801 7.919080,10.659553 
z"/>
<path fill="#69421D" opacity="1.000000" stroke="none" 
	d="
M44.769073,12.451013 
	C44.750565,13.225470 44.418640,13.788949 43.963131,14.648804 
	C43.689346,15.035225 43.539146,15.125273 43.174854,15.367575 
	C42.498966,15.128073 42.037170,14.736315 41.575371,14.344557 
	C42.535465,13.643050 43.495560,12.941544 44.769073,12.451013 
z"/>
<path fill="#886941" opacity="1.000000" stroke="none" 
	d="
M6.766824,9.764961 
	C6.402897,10.035986 5.893395,10.048097 5.001712,10.106302 
	C4.468037,9.326216 4.316544,8.500031 3.985440,6.694324 
	C5.343380,8.142895 5.982315,8.824471 6.766824,9.764961 
z"/>
<path fill="#B78558" opacity="1.000000" stroke="none" 
	d="
M18.845482,19.766026 
	C19.027515,20.180174 19.038128,20.366388 18.767370,20.830973 
	C18.270550,21.109604 18.055096,21.109863 17.558435,21.048189 
	C16.861509,20.653233 16.445793,20.320210 16.084457,19.797573 
	C16.138842,19.607960 16.196581,19.217690 16.421432,19.152044 
	C16.646286,19.086399 17.094069,18.948690 17.094069,18.948692 
	C17.620733,19.145157 18.147398,19.341623 18.845482,19.766026 
z"/>
<path fill="#A36D3D" opacity="1.000000" stroke="none" 
	d="
M16.196581,19.217690 
	C16.196581,19.217690 16.138842,19.607960 15.767282,19.778799 
	C14.578315,19.841318 13.760907,19.732998 12.962350,19.163586 
	C13.011121,18.087929 13.041041,17.473364 13.070962,16.858799 
	C13.228032,16.919401 13.385102,16.980001 13.858524,17.460480 
	C14.848778,18.326134 15.522679,18.771912 16.196581,19.217690 
z"/>
<path fill="#986E34" opacity="1.000000" stroke="none" 
	d="
M16.421432,19.152044 
	C15.522679,18.771912 14.848778,18.326134 14.077862,17.585638 
	C14.919147,17.664442 15.857448,18.037962 16.944908,18.680086 
	C17.094069,18.948690 16.646286,19.086399 16.421432,19.152044 
z"/>
<path fill="#B18850" opacity="1.000000" stroke="none" 
	d="
M33.009346,22.036488 
	C33.007393,21.612066 33.005436,21.187643 33.031738,20.448055 
	C33.490520,20.092001 33.921043,20.051109 34.676468,20.027122 
	C35.000336,20.212162 34.999298,20.380299 34.880394,21.077185 
	C34.178127,21.749453 33.593739,21.892971 33.009346,22.036488 
z"/>
<path fill="#B88758" opacity="1.000000" stroke="none" 
	d="
M12.980408,16.626350 
	C13.041041,17.473364 13.011121,18.087929 12.682173,19.049511 
	C12.219177,19.279369 12.055210,19.162212 11.891245,19.045053 
	C11.852650,18.257032 11.814054,17.469009 11.909916,16.308800 
	C12.410531,15.933109 12.692359,16.085539 12.980408,16.626350 
z"/>
<path fill="#4E3224" opacity="1.000000" stroke="none" 
	d="
M23.871130,21.636757 
	C23.216009,21.398207 22.641989,21.011103 21.994492,20.346924 
	C22.454906,20.340527 22.988800,20.611202 23.789639,21.024029 
	C24.056580,21.166178 23.952232,21.488201 23.871130,21.636757 
z"/>
<path fill="#473B26" opacity="1.000000" stroke="none" 
	d="
M46.597054,6.648352 
	C46.910393,6.320214 47.223728,5.992078 47.537064,5.663942 
	C47.614212,6.108014 47.691353,6.552084 47.397934,7.006718 
	C46.883934,6.894306 46.740494,6.771329 46.597054,6.648352 
z"/>
<path fill="#4B403C" opacity="1.000000" stroke="none" 
	d="
M51.002037,22.687727 
	C50.693329,22.531509 50.361233,22.075207 50.018440,21.311733 
	C50.331379,21.465588 50.655018,21.926615 51.002037,22.687727 
z"/>
<path fill="#A48B81" opacity="1.000000" stroke="none" 
	d="
M3.829802,13.768139 
	C4.027937,14.013027 4.011853,14.204790 4.046167,14.680719 
	C3.828117,14.719978 3.559669,14.475072 3.233336,13.955778 
	C3.175452,13.681392 3.615583,13.715015 3.829802,13.768139 
z"/>
<path fill="#B88758" opacity="1.000000" stroke="none" 
	d="
M11.992022,15.734236 
	C11.782589,15.804154 11.492850,15.612644 11.101542,15.166290 
	C11.303886,15.098566 11.607801,15.285686 11.992022,15.734236 
z"/>
<path fill="#1D1812" opacity="1.000000" stroke="none" 
	d="
M29.531189,20.579922 
	C29.482555,20.610840 29.579823,20.549004 29.531189,20.579922 
z"/>
<path fill="#473B26" opacity="1.000000" stroke="none" 
	d="
M47.157799,8.161521 
	C46.825493,8.346723 46.591263,8.277001 46.002319,8.107427 
	C45.847282,7.696455 46.046963,7.385336 46.421848,6.861285 
	C46.740494,6.771329 46.883934,6.894306 47.241669,7.207786 
	C47.389267,7.567725 47.322571,7.737161 47.157799,8.161521 
z"/>
<path fill="#BAA9A1" opacity="1.000000" stroke="none" 
	d="
M47.706890,25.041496 
	C48.204182,28.079517 48.415508,31.159164 48.628113,34.999397 
	C48.783718,36.510536 48.938049,37.261086 49.092377,38.011639 
	C49.147526,41.055305 49.202679,44.098976 48.735611,47.659077 
	C47.047413,50.046413 45.881424,51.917313 44.715439,53.788216 
	C42.755699,55.623627 40.735718,47.834026 38.662170,53.984379 
	C37.525215,56.082050 36.703812,58.010342 35.882404,59.938629 
	C30.550745,61.520672 25.195312,62.458485 19.354637,60.024799 
	C19.202274,53.938232 16.044695,54.995892 13.055682,56.522949 
	C12.221685,55.166740 11.557141,54.086082 10.926020,52.632416 
	C11.012359,51.763523 11.065275,51.267635 11.442938,50.801567 
	C12.510073,50.484100 13.252463,50.136814 14.396036,49.811630 
	C15.858869,49.909771 16.920519,49.985806 18.039410,50.322201 
	C18.634699,51.023251 19.172747,51.463943 19.944443,52.222733 
	C20.934069,52.712296 21.690046,52.883770 22.683746,53.272774 
	C27.431925,59.860947 29.970423,59.732952 33.994946,52.932056 
	C34.755531,51.646770 35.819847,50.448734 36.218430,49.059631 
	C37.274464,45.379269 39.224392,43.353382 43.034870,44.563602 
	C44.054901,38.178173 45.027832,32.087593 46.000763,25.997013 
	C46.474152,25.692383 46.947540,25.387753 47.706890,25.041496 
z"/>
<path fill="#CABAB2" opacity="1.000000" stroke="none" 
	d="
M10.892597,53.005432 
	C11.557141,54.086082 12.221685,55.166740 13.055682,56.522949 
	C16.044695,54.995892 19.202274,53.938232 18.967585,59.866455 
	C16.884886,61.471210 14.809606,62.724567 12.247795,63.577137 
	C10.215367,62.782928 8.669471,62.389507 7.123573,61.996086 
	C6.723508,59.932621 6.323444,57.869152 6.214766,55.347534 
	C6.717463,54.590996 6.928774,54.292606 7.462626,53.941746 
	C8.820976,53.594662 9.856787,53.300045 10.892597,53.005432 
z"/>
<path fill="#AA978D" opacity="1.000000" stroke="none" 
	d="
M38.977726,53.814995 
	C40.735718,47.834026 42.755699,55.623627 44.715439,53.788216 
	C45.881424,51.917313 47.047413,50.046413 48.549782,48.080139 
	C51.511131,54.329937 50.465618,58.721409 45.269066,60.619316 
	C42.820934,58.120064 40.899330,55.967529 38.977726,53.814995 
z"/>
<path fill="#0E0A08" opacity="1.000000" stroke="none" 
	d="
M38.662170,53.984379 
	C40.899330,55.967529 42.820934,58.120064 44.883209,60.586948 
	C43.392471,60.463097 41.761059,60.024895 40.184601,59.601456 
	C39.123466,59.797531 37.748852,60.051533 36.128319,60.122082 
	C36.703812,58.010342 37.525215,56.082050 38.662170,53.984379 
z"/>
<path fill="#DAC6BE" opacity="1.000000" stroke="none" 
	d="
M6.577738,46.970192 
	C6.418177,45.917305 6.258616,44.864418 6.181863,43.010643 
	C6.400928,40.493221 6.537185,38.776691 7.004938,37.048607 
	C7.999471,37.017139 8.662507,36.997227 9.366943,37.356716 
	C9.486691,39.224178 9.565042,40.712238 9.585430,42.435188 
	C9.527470,42.670082 9.893336,42.986851 9.888751,43.369038 
	C10.059511,44.483601 10.234857,45.215977 10.264789,46.203876 
	C10.039577,46.638420 9.959780,46.817444 9.549755,46.989738 
	C8.338931,46.978737 7.458334,46.974464 6.577738,46.970192 
z"/>
<path fill="#D2C1B8" opacity="1.000000" stroke="none" 
	d="
M6.450909,47.322556 
	C7.458334,46.974464 8.338931,46.978737 9.728806,47.163857 
	C10.365883,47.678925 10.599490,47.902611 10.914347,48.361534 
	C10.965921,49.395458 11.042057,50.083607 11.118192,50.771751 
	C11.065275,51.267635 11.012359,51.763523 10.926020,52.632420 
	C9.856787,53.300045 8.820976,53.594662 7.394281,53.588234 
	C6.791153,52.163437 6.578909,51.039684 6.366665,49.915928 
	C6.352469,49.168922 6.338274,48.421921 6.450909,47.322556 
z"/>
<path fill="#25221F" opacity="1.000000" stroke="none" 
	d="
M6.673441,37.060158 
	C6.537185,38.776691 6.400928,40.493221 6.101499,42.611771 
	C5.285518,39.628338 4.632709,36.242897 3.916584,32.395561 
	C3.853269,31.933668 3.855141,31.826496 4.125518,31.980005 
	C4.941112,32.423321 5.486328,32.713131 6.133603,33.404125 
	C6.381588,34.890259 6.527515,35.975208 6.673441,37.060158 
z"/>
<path fill="#C6B3AD" opacity="1.000000" stroke="none" 
	d="
M7.057181,62.382820 
	C8.669471,62.389507 10.215367,62.782928 11.882732,63.503731 
	C10.257524,63.834019 7.720048,67.571648 7.057181,62.382820 
z"/>
<path fill="#25221F" opacity="1.000000" stroke="none" 
	d="
M6.061052,50.118904 
	C6.578909,51.039684 6.791153,52.163437 7.071741,53.640701 
	C6.928774,54.292606 6.717463,54.590996 6.231130,54.939297 
	C5.889219,53.433434 5.822330,51.877655 6.061052,50.118904 
z"/>
<path fill="#151112" opacity="1.000000" stroke="none" 
	d="
M49.410904,37.933331 
	C48.938049,37.261086 48.783718,36.510536 48.748051,35.387321 
	C49.293472,35.002895 49.720230,34.991138 50.466797,34.980042 
	C50.786602,34.980698 51.078846,35.322823 51.077957,35.547482 
	C50.627853,36.466434 50.178642,37.160728 49.410904,37.933331 
z"/>
<path fill="#80776C" opacity="1.000000" stroke="none" 
	d="
M2.948259,28.438942 
	C2.919923,28.079603 3.336047,27.911970 3.642548,28.291107 
	C3.917746,29.722328 3.886444,30.774412 3.855141,31.826496 
	C3.855141,31.826496 3.853269,31.933668 3.906672,31.937645 
	C3.632248,30.893841 3.304421,29.846060 2.948259,28.438942 
z"/>
<path fill="#080506" opacity="1.000000" stroke="none" 
	d="
M11.560846,18.983559 
	C12.055210,19.162212 12.219177,19.279369 12.663321,19.510603 
	C13.760907,19.732998 14.578315,19.841318 15.712899,19.968414 
	C16.445793,20.320210 16.861509,20.653233 17.650198,21.297251 
	C18.325493,21.762676 18.627819,21.917107 18.930145,22.071537 
	C18.930145,22.071537 18.981462,22.066818 19.078938,22.332821 
	C19.745638,22.675167 20.314861,22.751507 20.884087,22.827850 
	C21.589308,22.917950 22.294529,23.008051 23.352699,23.138836 
	C24.891251,23.418522 26.076851,23.657522 27.637232,23.813301 
	C29.542494,23.353493 31.072979,22.976910 32.806404,22.318407 
	C33.593739,21.892971 34.178127,21.749453 34.894608,21.328995 
	C36.352791,20.333584 37.678886,19.615112 39.318871,18.814278 
	C39.976799,19.018534 40.320843,19.305153 40.864990,19.862019 
	C40.098183,21.183216 39.131268,22.234163 37.709145,23.634069 
	C35.180195,25.296614 32.308445,25.761135 31.677967,29.003052 
	C30.790283,29.253746 30.208698,29.437403 29.369745,29.653954 
	C28.960814,29.770208 28.809248,29.853567 28.428631,29.835102 
	C27.821865,30.288557 27.444153,30.843840 26.710718,31.550964 
	C25.329422,31.824804 24.303852,31.946802 23.189919,31.795170 
	C22.070307,30.672920 21.039057,29.824303 20.007805,28.975685 
	C20.517303,28.179300 21.026804,27.382914 21.165289,27.166454 
	C17.514715,25.023678 13.877096,22.888504 10.098369,20.064175 
	C9.948236,19.123487 9.939210,18.871954 9.930184,18.620422 
	C10.363605,18.720968 10.797027,18.821516 11.560846,18.983559 
z"/>
<path fill="#B2A199" opacity="1.000000" stroke="none" 
	d="
M9.018358,26.999456 
	C9.341029,26.217514 9.663699,25.435570 9.996452,24.323532 
	C12.608913,25.805632 15.211292,27.617828 17.773020,29.867716 
	C17.732368,30.305407 17.463007,30.464422 17.176596,30.386915 
	C16.239311,30.494757 15.588438,30.680103 14.697453,30.923529 
	C14.457341,30.981606 13.963401,30.993021 13.716948,30.822044 
	C12.126603,30.274101 10.782714,29.897137 9.018358,29.402227 
	C9.018358,28.902992 9.018358,27.951225 9.018358,26.999456 
z"/>
<path fill="#BEB0A7" opacity="1.000000" stroke="none" 
	d="
M19.813007,29.200445 
	C21.039057,29.824303 22.070307,30.672920 23.024319,31.911663 
	C22.656185,32.570530 22.365290,32.839272 21.810120,32.876637 
	C20.408091,32.436275 19.270332,32.227291 17.923615,31.809883 
	C17.630774,31.222443 17.546890,30.843433 17.463007,30.464422 
	C17.463007,30.464422 17.732368,30.305407 17.850723,30.205173 
	C18.518789,29.878365 19.068501,29.651785 19.813007,29.200445 
z"/>
<path fill="#0A0807" opacity="1.000000" stroke="none" 
	d="
M9.649052,18.649681 
	C9.939210,18.871954 9.948236,19.123487 9.953253,19.752541 
	C9.669415,19.938324 9.389585,19.746586 9.030584,19.308002 
	C9.090249,18.933750 9.229083,18.806343 9.649052,18.649681 
z"/>
<path fill="#CCBBB3" opacity="1.000000" stroke="none" 
	d="
M8.778535,26.906521 
	C9.018358,27.951225 9.018358,28.902992 9.018358,29.402227 
	C10.782714,29.897137 12.126603,30.274101 13.703836,31.197845 
	C13.631233,33.179611 13.325287,34.614605 12.694155,36.086815 
	C11.354493,36.408459 10.340018,36.692886 9.325544,36.977310 
	C8.662507,36.997227 7.999471,37.017139 7.004938,37.048607 
	C6.527515,35.975208 6.381588,34.890259 6.237489,32.983650 
	C6.193261,30.433821 6.147206,28.705654 6.101151,26.977488 
	C6.913671,26.922852 7.726192,26.868217 8.778535,26.906521 
z"/>
<path fill="#2A2624" opacity="1.000000" stroke="none" 
	d="
M5.771489,26.984863 
	C6.147206,28.705654 6.193261,30.433821 6.135430,32.582466 
	C5.486328,32.713131 4.941112,32.423321 4.125518,31.980005 
	C3.886444,30.774412 3.917746,29.722328 3.866658,28.281652 
	C4.336788,27.592789 4.889308,27.292515 5.771489,26.984863 
z"/>
<path fill="#CBBAB3" opacity="1.000000" stroke="none" 
	d="
M45.724121,25.899069 
	C45.027832,32.087593 44.054901,38.178173 43.034870,44.563602 
	C39.224392,43.353382 37.274464,45.379269 36.218430,49.059631 
	C35.819847,50.448734 34.755531,51.646770 33.994946,52.932056 
	C29.970423,59.732952 27.431925,59.860947 22.799358,53.007290 
	C22.642994,52.334007 22.608742,52.143738 22.654396,51.555302 
	C22.539377,50.097294 22.344454,49.037453 22.259336,47.655922 
	C22.424726,46.884823 22.480310,46.435410 22.871540,45.941509 
	C23.471373,44.092800 23.813005,42.295517 23.975534,40.482182 
	C24.108456,38.999187 24.027767,37.497051 24.220913,36.225235 
	C24.914637,36.973000 25.429228,37.498928 26.018822,38.278587 
	C26.328577,38.347054 26.563330,38.161789 26.941437,37.638760 
	C28.392710,36.150990 29.796175,35.087112 30.954466,33.802219 
	C31.337397,33.377438 31.088217,32.382824 31.204025,31.480652 
	C31.280001,31.312551 31.342028,30.948858 31.406818,30.946228 
	C31.471611,30.943600 31.600908,30.933538 32.013279,30.964060 
	C34.949940,29.996262 37.474228,28.997940 39.998516,27.999617 
	C41.814835,27.266785 43.631157,26.533955 45.724121,25.899069 
z"/>
<path fill="#B5A59C" opacity="1.000000" stroke="none" 
	d="
M39.655067,27.890306 
	C37.474228,28.997940 34.949940,29.996262 32.140015,30.645180 
	C31.897604,29.842522 31.940834,29.389265 31.984064,28.936010 
	C32.308445,25.761135 35.180195,25.296614 37.600327,23.923939 
	C38.401684,25.170231 38.856651,26.475613 39.655067,27.890306 
z"/>
<path fill="#B5A59C" opacity="1.000000" stroke="none" 
	d="
M39.490875,24.485453 
	C39.514641,24.475578 39.467110,24.495327 39.490875,24.485453 
z"/>
<path fill="#A57D3D" opacity="1.000000" stroke="none" 
	d="
M20.693460,22.626789 
	C20.314861,22.751507 19.745638,22.675167 19.056627,22.323334 
	C19.458839,22.173803 19.980837,22.299767 20.693460,22.626789 
z"/>
<path fill="#A57D3D" opacity="1.000000" stroke="none" 
	d="
M19.014725,21.837091 
	C18.627819,21.917107 18.325493,21.762676 17.931406,21.359184 
	C18.055096,21.109863 18.270550,21.109604 18.810509,21.107399 
	C19.135017,21.105455 19.099302,21.602646 19.014725,21.837091 
z"/>
<path fill="#171615" opacity="1.000000" stroke="none" 
	d="
M22.149530,47.977612 
	C22.344454,49.037453 22.539377,50.097294 22.177750,51.559059 
	C20.984398,51.942196 20.347597,51.923416 19.710796,51.904636 
	C19.172747,51.463943 18.634699,51.023251 18.036739,50.058002 
	C17.983864,49.357449 17.990898,49.181454 18.352661,49.059963 
	C19.214167,48.750610 19.720943,48.386749 20.548100,48.022369 
	C21.295494,48.007103 21.722513,47.992359 22.149530,47.977612 
z"/>
<path fill="#0E0506" opacity="1.000000" stroke="none" 
	d="
M17.997931,49.005455 
	C17.990898,49.181454 17.983864,49.357449 17.979500,49.797646 
	C16.920519,49.985806 15.858869,49.909771 14.394935,49.547264 
	C14.001081,48.908432 14.009509,48.556076 14.185652,47.911293 
	C15.568220,48.081066 16.783075,48.543262 17.997931,49.005455 
z"/>
<path fill="#090500" opacity="1.000000" stroke="none" 
	d="
M14.017939,48.203716 
	C14.009509,48.556076 14.001081,48.908432 13.993752,49.525162 
	C13.252463,50.136814 12.510073,50.484100 11.442938,50.801567 
	C11.042057,50.083607 10.965921,49.395458 11.298748,48.373390 
	C11.963905,48.029240 12.220099,48.019016 12.517250,48.031868 
	C12.558208,48.054947 12.658811,48.086140 12.999710,48.102619 
	C13.566385,48.147305 13.792162,48.175510 14.017939,48.203716 
z"/>
<path fill="#090806" opacity="1.000000" stroke="none" 
	d="
M19.944443,52.222733 
	C20.347597,51.923416 20.984398,51.942196 22.097843,51.957222 
	C22.608742,52.143738 22.642994,52.334007 22.561638,52.789761 
	C21.690046,52.883770 20.934069,52.712296 19.944443,52.222733 
z"/>
<path fill="#090806" opacity="1.000000" stroke="none" 
	d="
M9.366943,37.356712 
	C10.340018,36.692886 11.354493,36.408459 12.836468,36.289814 
	C13.751538,36.644871 14.199108,36.834148 14.742780,37.282135 
	C14.929135,37.701172 15.019387,37.861504 15.012351,38.240532 
	C14.742822,38.756210 14.715088,39.066132 14.488567,39.471474 
	C13.392611,40.030613 12.639947,40.507267 11.687097,41.108376 
	C11.269182,41.465252 11.098930,41.728394 10.988554,42.010345 
	C11.000957,41.998436 11.031569,41.982761 10.683559,42.030983 
	C10.104831,42.119568 9.874111,42.159931 9.643391,42.200298 
	C9.565042,40.712238 9.486691,39.224178 9.366943,37.356712 
z"/>
<path fill="#050508" opacity="1.000000" stroke="none" 
	d="
M10.410202,45.948353 
	C10.234857,45.215977 10.059511,44.483601 10.121086,43.256973 
	C10.582528,42.502731 10.807049,42.242748 11.031569,41.982761 
	C11.031569,41.982761 11.000957,41.998436 11.272588,42.005474 
	C11.731029,41.982365 11.917838,41.952221 12.097569,41.965553 
	C12.090487,42.009037 12.002635,42.015778 12.224193,42.231159 
	C13.596606,42.856464 14.747462,43.266388 15.639214,43.867088 
	C14.284738,44.717243 13.189367,45.376621 11.814117,46.002777 
	C11.159560,45.962486 10.784881,45.955418 10.410202,45.948353 
z"/>
<path fill="#1E1D19" opacity="1.000000" stroke="none" 
	d="
M10.264789,46.203876 
	C10.784881,45.955418 11.159560,45.962486 11.890358,46.170506 
	C12.246478,46.371456 12.047501,46.681526 12.156956,47.012615 
	C12.336372,47.565399 12.406332,47.787094 12.476293,48.008793 
	C12.220099,48.019016 11.963905,48.029240 11.323309,48.027611 
	C10.599490,47.902611 10.365883,47.678925 10.059034,47.170586 
	C9.959780,46.817444 10.039577,46.638420 10.264789,46.203876 
z"/>
<path fill="#312A1F" opacity="1.000000" stroke="none" 
	d="
M10.683559,42.030983 
	C10.807049,42.242748 10.582528,42.502731 10.125671,42.874786 
	C9.893336,42.986851 9.527470,42.670082 9.585430,42.435188 
	C9.874111,42.159931 10.104831,42.119568 10.683559,42.030983 
z"/>
<path fill="#080606" opacity="1.000000" stroke="none" 
	d="
M31.128052,31.648750 
	C31.088217,32.382824 31.337397,33.377438 30.954466,33.802219 
	C29.796175,35.087112 28.392710,36.150990 26.727470,37.643600 
	C26.370148,37.986198 25.943819,38.024853 25.943817,38.024853 
	C25.429228,37.498928 24.914637,36.973000 24.228039,35.919472 
	C23.395487,34.630585 22.734940,33.869301 22.074392,33.108013 
	C22.365290,32.839272 22.656185,32.570530 23.112682,32.185295 
	C24.303852,31.946802 25.329422,31.824804 26.968170,31.562908 
	C28.058245,31.609745 28.535143,31.796480 29.375036,31.990683 
	C30.201372,31.881683 30.664711,31.765217 31.128052,31.648750 
z"/>
<path fill="#19190E" opacity="1.000000" stroke="none" 
	d="
M29.012039,31.983215 
	C28.535143,31.796480 28.058245,31.609745 27.323895,31.411068 
	C27.444153,30.843840 27.821865,30.288557 28.461548,30.180418 
	C28.819691,31.079445 28.915865,31.531330 29.012039,31.983215 
z"/>
<path fill="#CCC0B8" opacity="1.000000" stroke="none" 
	d="
M31.677967,29.003052 
	C31.940834,29.389265 31.897604,29.842522 31.727642,30.614658 
	C31.600908,30.933538 31.471611,30.943600 31.036434,30.847897 
	C30.276543,30.375147 29.951828,29.998104 29.627113,29.621059 
	C30.208698,29.437403 30.790283,29.253746 31.677967,29.003052 
z"/>
<path fill="#91837E" opacity="1.000000" stroke="none" 
	d="
M29.369745,29.653955 
	C29.951828,29.998104 30.276543,30.375147 30.971642,30.850525 
	C31.342028,30.948858 31.280001,31.312551 31.204025,31.480652 
	C30.664711,31.765217 30.201372,31.881683 29.375036,31.990683 
	C28.915865,31.531330 28.819691,31.079445 28.690601,30.282242 
	C28.809248,29.853567 28.960814,29.770208 29.369745,29.653955 
z"/>
<path fill="#191411" opacity="1.000000" stroke="none" 
	d="
M14.646677,37.023426 
	C14.199108,36.834148 13.751538,36.644871 13.161655,36.252594 
	C13.325287,34.614605 13.631233,33.179611 13.950290,31.368820 
	C13.963401,30.993021 14.457341,30.981606 14.787226,31.254974 
	C16.055086,32.015263 16.993063,32.502182 18.083023,33.045624 
	C18.235004,33.102150 18.179985,33.421757 18.019497,33.736862 
	C17.529594,34.384674 17.200180,34.717381 16.553652,35.096924 
	C15.706583,35.770321 15.176630,36.396873 14.646677,37.023426 
z"/>
<path fill="#030204" opacity="1.000000" stroke="none" 
	d="
M17.931040,32.989101 
	C16.993063,32.502182 16.055086,32.015263 15.027337,31.196898 
	C15.588438,30.680103 16.239311,30.494757 17.176596,30.386915 
	C17.546890,30.843433 17.630774,31.222443 17.860872,32.050007 
	C18.007088,32.498562 17.931040,32.989101 17.931040,32.989101 
z"/>
<path fill="#D2C1BA" opacity="1.000000" stroke="none" 
	d="
M18.083023,33.045624 
	C17.931040,32.989101 18.007088,32.498562 18.069832,32.258438 
	C19.270332,32.227291 20.408091,32.436275 21.810120,32.876637 
	C22.734940,33.869301 23.395487,34.630585 24.048906,35.697636 
	C24.027767,37.497051 24.108456,38.999187 23.975534,40.482182 
	C23.813005,42.295517 23.471373,44.092800 22.726887,45.658638 
	C22.099560,45.267723 21.952534,45.115189 21.827805,44.570141 
	C21.325890,42.238907 20.801676,40.300190 20.176369,38.040932 
	C19.443510,36.287518 18.811747,34.854637 18.179985,33.421757 
	C18.179985,33.421757 18.235004,33.102150 18.083023,33.045624 
z"/>
<path fill="#28251F" opacity="1.000000" stroke="none" 
	d="
M21.805510,44.962654 
	C21.952534,45.115189 22.099560,45.267723 22.391239,45.703125 
	C22.480310,46.435410 22.424726,46.884823 22.259336,47.655922 
	C21.722513,47.992359 21.295494,48.007103 20.405464,47.661751 
	C19.957567,46.535625 19.972685,45.769600 20.290466,44.980576 
	C20.997257,44.959263 21.401384,44.960960 21.805510,44.962654 
z"/>
<path fill="#1C1714" opacity="1.000000" stroke="none" 
	d="
M26.018822,38.278587 
	C25.943819,38.024853 26.370148,37.986198 26.584114,37.981361 
	C26.563330,38.161789 26.328577,38.347054 26.018822,38.278587 
z"/>
<path fill="#AF9B8F" opacity="1.000000" stroke="none" 
	d="
M19.987803,45.003578 
	C19.972685,45.769600 19.957567,46.535625 20.085085,47.662270 
	C19.720943,48.386749 19.214167,48.750610 18.352661,49.059963 
	C16.783075,48.543262 15.568220,48.081066 14.185652,47.911293 
	C13.792162,48.175510 13.566385,48.147305 12.974460,47.841278 
	C12.421373,47.269478 12.234437,46.975502 12.047501,46.681526 
	C12.047501,46.681526 12.246478,46.371456 12.170237,46.203728 
	C13.189367,45.376621 14.284738,44.717243 16.037045,43.781998 
	C16.924978,43.364132 17.155973,43.222134 17.445034,43.093239 
	C17.503099,43.106350 17.430620,43.010483 17.868404,43.075661 
	C18.866726,43.761753 19.427263,44.382664 19.987803,45.003578 
z"/>
<path fill="#050508" opacity="1.000000" stroke="none" 
	d="
M12.156956,47.012615 
	C12.234437,46.975502 12.421373,47.269478 12.633560,47.824799 
	C12.658811,48.086140 12.558208,48.054947 12.517250,48.031868 
	C12.406332,47.787094 12.336372,47.565399 12.156956,47.012615 
z"/>
<path fill="#E6AE89" opacity="1.000000" stroke="none" 
	d="
M14.831861,39.388992 
	C14.715088,39.066132 14.742822,38.756210 15.266430,38.122536 
	C16.105469,37.513130 16.593138,37.240417 17.274147,37.260307 
	C17.910400,38.375443 18.353315,39.197971 18.476662,40.257797 
	C17.139658,40.757347 16.122223,41.019596 15.035691,40.808754 
	C14.921683,40.020107 14.876772,39.704548 14.831861,39.388992 
z"/>
<path fill="#F2B79B" opacity="1.000000" stroke="none" 
	d="
M14.488567,39.471474 
	C14.876772,39.704548 14.921683,40.020107 14.796263,41.049995 
	C13.751498,41.848137 12.877067,41.931957 12.002635,42.015778 
	C12.002635,42.015778 12.090487,42.009037 12.130907,41.710709 
	C12.076647,41.269558 11.981966,41.126743 11.887284,40.983925 
	C12.639947,40.507267 13.392611,40.030613 14.488567,39.471474 
z"/>
<path fill="#B78D76" opacity="1.000000" stroke="none" 
	d="
M17.080807,36.967701 
	C16.593138,37.240417 16.105469,37.513130 15.363720,37.903839 
	C15.019387,37.861504 14.929135,37.701172 14.742780,37.282135 
	C15.176630,36.396873 15.706583,35.770321 16.601852,35.417648 
	C17.005047,36.116920 17.042927,36.542313 17.080807,36.967701 
z"/>
<path fill="#312A1F" opacity="1.000000" stroke="none" 
	d="
M11.687097,41.108376 
	C11.981966,41.126743 12.076647,41.269558 12.137988,41.667225 
	C11.917838,41.952221 11.731029,41.982365 11.260185,42.017384 
	C11.098930,41.728394 11.269182,41.465252 11.687097,41.108376 
z"/>
<path fill="#070506" opacity="1.000000" stroke="none" 
	d="
M12.224193,42.231159 
	C12.877067,41.931957 13.751498,41.848137 14.865358,41.523079 
	C16.122223,41.019596 17.139658,40.757347 18.730106,40.121952 
	C19.627903,39.286362 19.952684,38.823917 20.277466,38.361469 
	C20.801676,40.300190 21.325890,42.238907 21.827805,44.570141 
	C21.401384,44.960960 20.997257,44.959263 20.290466,44.980576 
	C19.427263,44.382664 18.866726,43.761753 17.884087,43.098721 
	C17.461985,43.056602 17.386971,43.080132 17.386971,43.080132 
	C17.155973,43.222134 16.924978,43.364132 16.296150,43.591221 
	C14.747462,43.266388 13.596606,42.856464 12.224193,42.231159 
z"/>
<path fill="#130C09" opacity="1.000000" stroke="none" 
	d="
M20.176369,38.040932 
	C19.952684,38.823917 19.627903,39.286362 19.049675,39.884651 
	C18.353315,39.197971 17.910400,38.375443 17.274147,37.260307 
	C17.042927,36.542313 17.005047,36.116920 16.918968,35.370808 
	C17.200180,34.717381 17.529594,34.384674 18.019497,33.736862 
	C18.811747,34.854637 19.443510,36.287518 20.176369,38.040932 
z"/>
<path fill="#050508" opacity="1.000000" stroke="none" 
	d="
M17.445034,43.093239 
	C17.386971,43.080132 17.461985,43.056602 17.446302,43.033543 
	C17.430620,43.010483 17.503099,43.106350 17.445034,43.093239 
z"/>
</svg>